<?xml version="1.0" encoding="utf-8" standalone="no"?>
<!DOCTYPE svg PUBLIC "-//W3C//DTD SVG 1.1//EN"
  "http://www.w3.org/Graphics/SVG/1.1/DTD/svg11.dtd">
<svg xmlns:xlink="http://www.w3.org/1999/xlink" width="864pt" height="432pt" viewBox="0 0 864 432" xmlns="http://www.w3.org/2000/svg" version="1.1">
 <metadata>
  <rdf:RDF xmlns:dc="http://purl.org/dc/elements/1.1/" xmlns:cc="http://creativecommons.org/ns#" xmlns:rdf="http://www.w3.org/1999/02/22-rdf-syntax-ns#">
   <cc:Work>
    <dc:type rdf:resource="http://purl.org/dc/dcmitype/StillImage"/>
    <dc:date>2023-09-28T10:35:54.729273</dc:date>
    <dc:format>image/svg+xml</dc:format>
    <dc:creator>
     <cc:Agent>
      <dc:title>Matplotlib v3.5.3, https://matplotlib.org/</dc:title>
     </cc:Agent>
    </dc:creator>
   </cc:Work>
  </rdf:RDF>
 </metadata>
 <defs>
  <style type="text/css">*{stroke-linejoin: round; stroke-linecap: butt}</style>
 </defs>
 <g id="figure_1">
  <g id="patch_1">
   <path d="M 0 432 
L 864 432 
L 864 0 
L 0 0 
z
" style="fill: #ffffff"/>
  </g>
  <g id="axes_1">
   <g id="patch_2">
    <path d="M 91.3025 364.961675 
L 826.044189 364.961675 
L 826.044189 21.6 
L 91.3025 21.6 
z
" style="fill: #ffffff"/>
   </g>
   <g id="matplotlib.axis_1">
    <g id="xtick_1">
     <g id="line2d_1">
      <path d="M 124.699849 364.961675 
L 124.699849 21.6 
" clip-path="url(#pee37e32011)" style="fill: none; stroke: #cccccc; stroke-width: 0.8; stroke-linecap: round"/>
     </g>
     <g id="text_1">
      <!-- 01:00 -->
      <g style="fill: #262626" transform="translate(113.897081 407.689792)rotate(-45)scale(0.17 -0.17)">
       <defs>
        <path id="TimesNewRomanPSMT-30" d="M 231 2094 
Q 231 2819 450 3342 
Q 669 3866 1031 4122 
Q 1313 4325 1613 4325 
Q 2100 4325 2488 3828 
Q 2972 3213 2972 2159 
Q 2972 1422 2759 906 
Q 2547 391 2217 158 
Q 1888 -75 1581 -75 
Q 975 -75 572 641 
Q 231 1244 231 2094 
z
M 844 2016 
Q 844 1141 1059 588 
Q 1238 122 1591 122 
Q 1759 122 1940 273 
Q 2122 425 2216 781 
Q 2359 1319 2359 2297 
Q 2359 3022 2209 3506 
Q 2097 3866 1919 4016 
Q 1791 4119 1609 4119 
Q 1397 4119 1231 3928 
Q 1006 3669 925 3112 
Q 844 2556 844 2016 
z
" transform="scale(0.015625)"/>
        <path id="TimesNewRomanPSMT-31" d="M 750 3822 
L 1781 4325 
L 1884 4325 
L 1884 747 
Q 1884 391 1914 303 
Q 1944 216 2037 169 
Q 2131 122 2419 116 
L 2419 0 
L 825 0 
L 825 116 
Q 1125 122 1212 167 
Q 1300 213 1334 289 
Q 1369 366 1369 747 
L 1369 3034 
Q 1369 3497 1338 3628 
Q 1316 3728 1258 3775 
Q 1200 3822 1119 3822 
Q 1003 3822 797 3725 
L 750 3822 
z
" transform="scale(0.015625)"/>
        <path id="TimesNewRomanPSMT-3a" d="M 903 2950 
Q 1047 2950 1148 2848 
Q 1250 2747 1250 2603 
Q 1250 2459 1148 2357 
Q 1047 2256 903 2256 
Q 759 2256 657 2357 
Q 556 2459 556 2603 
Q 556 2747 657 2848 
Q 759 2950 903 2950 
z
M 897 609 
Q 1044 609 1145 506 
Q 1247 403 1247 259 
Q 1247 116 1144 14 
Q 1041 -88 897 -88 
Q 753 -88 651 14 
Q 550 116 550 259 
Q 550 403 651 506 
Q 753 609 897 609 
z
" transform="scale(0.015625)"/>
       </defs>
       <use xlink:href="#TimesNewRomanPSMT-30"/>
       <use xlink:href="#TimesNewRomanPSMT-31" x="50"/>
       <use xlink:href="#TimesNewRomanPSMT-3a" x="100"/>
       <use xlink:href="#TimesNewRomanPSMT-30" x="127.783203"/>
       <use xlink:href="#TimesNewRomanPSMT-30" x="177.783203"/>
      </g>
     </g>
    </g>
    <g id="xtick_2">
     <g id="line2d_2">
      <path d="M 159.609971 364.961675 
L 159.609971 21.6 
" clip-path="url(#pee37e32011)" style="fill: none; stroke: #cccccc; stroke-width: 0.8; stroke-linecap: round"/>
     </g>
     <g id="text_2">
      <!-- 02:00 -->
      <g style="fill: #262626" transform="translate(148.807202 407.689792)rotate(-45)scale(0.17 -0.17)">
       <defs>
        <path id="TimesNewRomanPSMT-32" d="M 2934 816 
L 2638 0 
L 138 0 
L 138 116 
Q 1241 1122 1691 1759 
Q 2141 2397 2141 2925 
Q 2141 3328 1894 3587 
Q 1647 3847 1303 3847 
Q 991 3847 742 3664 
Q 494 3481 375 3128 
L 259 3128 
Q 338 3706 661 4015 
Q 984 4325 1469 4325 
Q 1984 4325 2329 3994 
Q 2675 3663 2675 3213 
Q 2675 2891 2525 2569 
Q 2294 2063 1775 1497 
Q 997 647 803 472 
L 1909 472 
Q 2247 472 2383 497 
Q 2519 522 2628 598 
Q 2738 675 2819 816 
L 2934 816 
z
" transform="scale(0.015625)"/>
       </defs>
       <use xlink:href="#TimesNewRomanPSMT-30"/>
       <use xlink:href="#TimesNewRomanPSMT-32" x="50"/>
       <use xlink:href="#TimesNewRomanPSMT-3a" x="100"/>
       <use xlink:href="#TimesNewRomanPSMT-30" x="127.783203"/>
       <use xlink:href="#TimesNewRomanPSMT-30" x="177.783203"/>
      </g>
     </g>
    </g>
    <g id="xtick_3">
     <g id="line2d_3">
      <path d="M 194.520092 364.961675 
L 194.520092 21.6 
" clip-path="url(#pee37e32011)" style="fill: none; stroke: #cccccc; stroke-width: 0.8; stroke-linecap: round"/>
     </g>
     <g id="text_3">
      <!-- 03:00 -->
      <g style="fill: #262626" transform="translate(183.717324 407.689792)rotate(-45)scale(0.17 -0.17)">
       <defs>
        <path id="TimesNewRomanPSMT-33" d="M 325 3431 
Q 506 3859 782 4092 
Q 1059 4325 1472 4325 
Q 1981 4325 2253 3994 
Q 2459 3747 2459 3466 
Q 2459 3003 1878 2509 
Q 2269 2356 2469 2072 
Q 2669 1788 2669 1403 
Q 2669 853 2319 450 
Q 1863 -75 997 -75 
Q 569 -75 414 31 
Q 259 138 259 259 
Q 259 350 332 419 
Q 406 488 509 488 
Q 588 488 669 463 
Q 722 447 909 348 
Q 1097 250 1169 231 
Q 1284 197 1416 197 
Q 1734 197 1970 444 
Q 2206 691 2206 1028 
Q 2206 1275 2097 1509 
Q 2016 1684 1919 1775 
Q 1784 1900 1550 2001 
Q 1316 2103 1072 2103 
L 972 2103 
L 972 2197 
Q 1219 2228 1467 2375 
Q 1716 2522 1828 2728 
Q 1941 2934 1941 3181 
Q 1941 3503 1739 3701 
Q 1538 3900 1238 3900 
Q 753 3900 428 3381 
L 325 3431 
z
" transform="scale(0.015625)"/>
       </defs>
       <use xlink:href="#TimesNewRomanPSMT-30"/>
       <use xlink:href="#TimesNewRomanPSMT-33" x="50"/>
       <use xlink:href="#TimesNewRomanPSMT-3a" x="100"/>
       <use xlink:href="#TimesNewRomanPSMT-30" x="127.783203"/>
       <use xlink:href="#TimesNewRomanPSMT-30" x="177.783203"/>
      </g>
     </g>
    </g>
    <g id="xtick_4">
     <g id="line2d_4">
      <path d="M 229.430214 364.961675 
L 229.430214 21.6 
" clip-path="url(#pee37e32011)" style="fill: none; stroke: #cccccc; stroke-width: 0.8; stroke-linecap: round"/>
     </g>
     <g id="text_4">
      <!-- 04:00 -->
      <g style="fill: #262626" transform="translate(218.627445 407.689792)rotate(-45)scale(0.17 -0.17)">
       <defs>
        <path id="TimesNewRomanPSMT-34" d="M 2978 1563 
L 2978 1119 
L 2409 1119 
L 2409 0 
L 1894 0 
L 1894 1119 
L 100 1119 
L 100 1519 
L 2066 4325 
L 2409 4325 
L 2409 1563 
L 2978 1563 
z
M 1894 1563 
L 1894 3666 
L 406 1563 
L 1894 1563 
z
" transform="scale(0.015625)"/>
       </defs>
       <use xlink:href="#TimesNewRomanPSMT-30"/>
       <use xlink:href="#TimesNewRomanPSMT-34" x="50"/>
       <use xlink:href="#TimesNewRomanPSMT-3a" x="100"/>
       <use xlink:href="#TimesNewRomanPSMT-30" x="127.783203"/>
       <use xlink:href="#TimesNewRomanPSMT-30" x="177.783203"/>
      </g>
     </g>
    </g>
    <g id="xtick_5">
     <g id="line2d_5">
      <path d="M 264.340335 364.961675 
L 264.340335 21.6 
" clip-path="url(#pee37e32011)" style="fill: none; stroke: #cccccc; stroke-width: 0.8; stroke-linecap: round"/>
     </g>
     <g id="text_5">
      <!-- 05:00 -->
      <g style="fill: #262626" transform="translate(253.537567 407.689792)rotate(-45)scale(0.17 -0.17)">
       <defs>
        <path id="TimesNewRomanPSMT-35" d="M 2778 4238 
L 2534 3706 
L 1259 3706 
L 981 3138 
Q 1809 3016 2294 2522 
Q 2709 2097 2709 1522 
Q 2709 1188 2573 903 
Q 2438 619 2231 419 
Q 2025 219 1772 97 
Q 1413 -75 1034 -75 
Q 653 -75 479 54 
Q 306 184 306 341 
Q 306 428 378 495 
Q 450 563 559 563 
Q 641 563 702 538 
Q 763 513 909 409 
Q 1144 247 1384 247 
Q 1750 247 2026 523 
Q 2303 800 2303 1197 
Q 2303 1581 2056 1914 
Q 1809 2247 1375 2428 
Q 1034 2569 447 2591 
L 1259 4238 
L 2778 4238 
z
" transform="scale(0.015625)"/>
       </defs>
       <use xlink:href="#TimesNewRomanPSMT-30"/>
       <use xlink:href="#TimesNewRomanPSMT-35" x="50"/>
       <use xlink:href="#TimesNewRomanPSMT-3a" x="100"/>
       <use xlink:href="#TimesNewRomanPSMT-30" x="127.783203"/>
       <use xlink:href="#TimesNewRomanPSMT-30" x="177.783203"/>
      </g>
     </g>
    </g>
    <g id="xtick_6">
     <g id="line2d_6">
      <path d="M 299.250457 364.961675 
L 299.250457 21.6 
" clip-path="url(#pee37e32011)" style="fill: none; stroke: #cccccc; stroke-width: 0.8; stroke-linecap: round"/>
     </g>
     <g id="text_6">
      <!-- 06:00 -->
      <g style="fill: #262626" transform="translate(288.447688 407.689792)rotate(-45)scale(0.17 -0.17)">
       <defs>
        <path id="TimesNewRomanPSMT-36" d="M 2869 4325 
L 2869 4209 
Q 2456 4169 2195 4045 
Q 1934 3922 1679 3669 
Q 1425 3416 1258 3105 
Q 1091 2794 978 2366 
Q 1428 2675 1881 2675 
Q 2316 2675 2634 2325 
Q 2953 1975 2953 1425 
Q 2953 894 2631 456 
Q 2244 -75 1606 -75 
Q 1172 -75 869 213 
Q 275 772 275 1663 
Q 275 2231 503 2743 
Q 731 3256 1154 3653 
Q 1578 4050 1965 4187 
Q 2353 4325 2688 4325 
L 2869 4325 
z
M 925 2138 
Q 869 1716 869 1456 
Q 869 1156 980 804 
Q 1091 453 1309 247 
Q 1469 100 1697 100 
Q 1969 100 2183 356 
Q 2397 613 2397 1088 
Q 2397 1622 2184 2012 
Q 1972 2403 1581 2403 
Q 1463 2403 1327 2353 
Q 1191 2303 925 2138 
z
" transform="scale(0.015625)"/>
       </defs>
       <use xlink:href="#TimesNewRomanPSMT-30"/>
       <use xlink:href="#TimesNewRomanPSMT-36" x="50"/>
       <use xlink:href="#TimesNewRomanPSMT-3a" x="100"/>
       <use xlink:href="#TimesNewRomanPSMT-30" x="127.783203"/>
       <use xlink:href="#TimesNewRomanPSMT-30" x="177.783203"/>
      </g>
     </g>
    </g>
    <g id="xtick_7">
     <g id="line2d_7">
      <path d="M 334.160578 364.961675 
L 334.160578 21.6 
" clip-path="url(#pee37e32011)" style="fill: none; stroke: #cccccc; stroke-width: 0.8; stroke-linecap: round"/>
     </g>
     <g id="text_7">
      <!-- 07:00 -->
      <g style="fill: #262626" transform="translate(323.357809 407.689792)rotate(-45)scale(0.17 -0.17)">
       <defs>
        <path id="TimesNewRomanPSMT-37" d="M 644 4238 
L 2916 4238 
L 2916 4119 
L 1503 -88 
L 1153 -88 
L 2419 3728 
L 1253 3728 
Q 900 3728 750 3644 
Q 488 3500 328 3200 
L 238 3234 
L 644 4238 
z
" transform="scale(0.015625)"/>
       </defs>
       <use xlink:href="#TimesNewRomanPSMT-30"/>
       <use xlink:href="#TimesNewRomanPSMT-37" x="50"/>
       <use xlink:href="#TimesNewRomanPSMT-3a" x="100"/>
       <use xlink:href="#TimesNewRomanPSMT-30" x="127.783203"/>
       <use xlink:href="#TimesNewRomanPSMT-30" x="177.783203"/>
      </g>
     </g>
    </g>
    <g id="xtick_8">
     <g id="line2d_8">
      <path d="M 369.070699 364.961675 
L 369.070699 21.6 
" clip-path="url(#pee37e32011)" style="fill: none; stroke: #cccccc; stroke-width: 0.8; stroke-linecap: round"/>
     </g>
     <g id="text_8">
      <!-- 08:00 -->
      <g style="fill: #262626" transform="translate(358.267931 407.689792)rotate(-45)scale(0.17 -0.17)">
       <defs>
        <path id="TimesNewRomanPSMT-38" d="M 1228 2134 
Q 725 2547 579 2797 
Q 434 3047 434 3316 
Q 434 3728 753 4026 
Q 1072 4325 1600 4325 
Q 2113 4325 2425 4047 
Q 2738 3769 2738 3413 
Q 2738 3175 2569 2928 
Q 2400 2681 1866 2347 
Q 2416 1922 2594 1678 
Q 2831 1359 2831 1006 
Q 2831 559 2490 242 
Q 2150 -75 1597 -75 
Q 994 -75 656 303 
Q 388 606 388 966 
Q 388 1247 577 1523 
Q 766 1800 1228 2134 
z
M 1719 2469 
Q 2094 2806 2194 3001 
Q 2294 3197 2294 3444 
Q 2294 3772 2109 3958 
Q 1925 4144 1606 4144 
Q 1288 4144 1088 3959 
Q 888 3775 888 3528 
Q 888 3366 970 3203 
Q 1053 3041 1206 2894 
L 1719 2469 
z
M 1375 2016 
Q 1116 1797 991 1539 
Q 866 1281 866 981 
Q 866 578 1086 336 
Q 1306 94 1647 94 
Q 1984 94 2187 284 
Q 2391 475 2391 747 
Q 2391 972 2272 1150 
Q 2050 1481 1375 2016 
z
" transform="scale(0.015625)"/>
       </defs>
       <use xlink:href="#TimesNewRomanPSMT-30"/>
       <use xlink:href="#TimesNewRomanPSMT-38" x="50"/>
       <use xlink:href="#TimesNewRomanPSMT-3a" x="100"/>
       <use xlink:href="#TimesNewRomanPSMT-30" x="127.783203"/>
       <use xlink:href="#TimesNewRomanPSMT-30" x="177.783203"/>
      </g>
     </g>
    </g>
    <g id="xtick_9">
     <g id="line2d_9">
      <path d="M 403.980821 364.961675 
L 403.980821 21.6 
" clip-path="url(#pee37e32011)" style="fill: none; stroke: #cccccc; stroke-width: 0.8; stroke-linecap: round"/>
     </g>
     <g id="text_9">
      <!-- 09:00 -->
      <g style="fill: #262626" transform="translate(393.178052 407.689792)rotate(-45)scale(0.17 -0.17)">
       <defs>
        <path id="TimesNewRomanPSMT-39" d="M 338 -88 
L 338 28 
Q 744 34 1094 217 
Q 1444 400 1770 856 
Q 2097 1313 2225 1859 
Q 1734 1544 1338 1544 
Q 891 1544 572 1889 
Q 253 2234 253 2806 
Q 253 3363 572 3797 
Q 956 4325 1575 4325 
Q 2097 4325 2469 3894 
Q 2925 3359 2925 2575 
Q 2925 1869 2578 1258 
Q 2231 647 1613 244 
Q 1109 -88 516 -88 
L 338 -88 
z
M 2275 2091 
Q 2331 2497 2331 2741 
Q 2331 3044 2228 3395 
Q 2125 3747 1936 3934 
Q 1747 4122 1506 4122 
Q 1228 4122 1018 3872 
Q 809 3622 809 3128 
Q 809 2469 1088 2097 
Q 1291 1828 1588 1828 
Q 1731 1828 1928 1897 
Q 2125 1966 2275 2091 
z
" transform="scale(0.015625)"/>
       </defs>
       <use xlink:href="#TimesNewRomanPSMT-30"/>
       <use xlink:href="#TimesNewRomanPSMT-39" x="50"/>
       <use xlink:href="#TimesNewRomanPSMT-3a" x="100"/>
       <use xlink:href="#TimesNewRomanPSMT-30" x="127.783203"/>
       <use xlink:href="#TimesNewRomanPSMT-30" x="177.783203"/>
      </g>
     </g>
    </g>
    <g id="xtick_10">
     <g id="line2d_10">
      <path d="M 438.890942 364.961675 
L 438.890942 21.6 
" clip-path="url(#pee37e32011)" style="fill: none; stroke: #cccccc; stroke-width: 0.8; stroke-linecap: round"/>
     </g>
     <g id="text_10">
      <!-- 10:00 -->
      <g style="fill: #262626" transform="translate(428.088174 407.689792)rotate(-45)scale(0.17 -0.17)">
       <use xlink:href="#TimesNewRomanPSMT-31"/>
       <use xlink:href="#TimesNewRomanPSMT-30" x="50"/>
       <use xlink:href="#TimesNewRomanPSMT-3a" x="100"/>
       <use xlink:href="#TimesNewRomanPSMT-30" x="127.783203"/>
       <use xlink:href="#TimesNewRomanPSMT-30" x="177.783203"/>
      </g>
     </g>
    </g>
    <g id="xtick_11">
     <g id="line2d_11">
      <path d="M 473.801064 364.961675 
L 473.801064 21.6 
" clip-path="url(#pee37e32011)" style="fill: none; stroke: #cccccc; stroke-width: 0.8; stroke-linecap: round"/>
     </g>
     <g id="text_11">
      <!-- 11:00 -->
      <g style="fill: #262626" transform="translate(463.223685 407.239012)rotate(-45)scale(0.17 -0.17)">
       <use xlink:href="#TimesNewRomanPSMT-31"/>
       <use xlink:href="#TimesNewRomanPSMT-31" x="46.25"/>
       <use xlink:href="#TimesNewRomanPSMT-3a" x="96.25"/>
       <use xlink:href="#TimesNewRomanPSMT-30" x="124.033203"/>
       <use xlink:href="#TimesNewRomanPSMT-30" x="174.033203"/>
      </g>
     </g>
    </g>
    <g id="xtick_12">
     <g id="line2d_12">
      <path d="M 508.711185 364.961675 
L 508.711185 21.6 
" clip-path="url(#pee37e32011)" style="fill: none; stroke: #cccccc; stroke-width: 0.8; stroke-linecap: round"/>
     </g>
     <g id="text_12">
      <!-- 12:00 -->
      <g style="fill: #262626" transform="translate(497.908417 407.689792)rotate(-45)scale(0.17 -0.17)">
       <use xlink:href="#TimesNewRomanPSMT-31"/>
       <use xlink:href="#TimesNewRomanPSMT-32" x="50"/>
       <use xlink:href="#TimesNewRomanPSMT-3a" x="100"/>
       <use xlink:href="#TimesNewRomanPSMT-30" x="127.783203"/>
       <use xlink:href="#TimesNewRomanPSMT-30" x="177.783203"/>
      </g>
     </g>
    </g>
    <g id="xtick_13">
     <g id="line2d_13">
      <path d="M 543.621307 364.961675 
L 543.621307 21.6 
" clip-path="url(#pee37e32011)" style="fill: none; stroke: #cccccc; stroke-width: 0.8; stroke-linecap: round"/>
     </g>
     <g id="text_13">
      <!-- 13:00 -->
      <g style="fill: #262626" transform="translate(532.818538 407.689792)rotate(-45)scale(0.17 -0.17)">
       <use xlink:href="#TimesNewRomanPSMT-31"/>
       <use xlink:href="#TimesNewRomanPSMT-33" x="50"/>
       <use xlink:href="#TimesNewRomanPSMT-3a" x="100"/>
       <use xlink:href="#TimesNewRomanPSMT-30" x="127.783203"/>
       <use xlink:href="#TimesNewRomanPSMT-30" x="177.783203"/>
      </g>
     </g>
    </g>
    <g id="xtick_14">
     <g id="line2d_14">
      <path d="M 578.531428 364.961675 
L 578.531428 21.6 
" clip-path="url(#pee37e32011)" style="fill: none; stroke: #cccccc; stroke-width: 0.8; stroke-linecap: round"/>
     </g>
     <g id="text_14">
      <!-- 14:00 -->
      <g style="fill: #262626" transform="translate(567.728659 407.689792)rotate(-45)scale(0.17 -0.17)">
       <use xlink:href="#TimesNewRomanPSMT-31"/>
       <use xlink:href="#TimesNewRomanPSMT-34" x="50"/>
       <use xlink:href="#TimesNewRomanPSMT-3a" x="100"/>
       <use xlink:href="#TimesNewRomanPSMT-30" x="127.783203"/>
       <use xlink:href="#TimesNewRomanPSMT-30" x="177.783203"/>
      </g>
     </g>
    </g>
    <g id="xtick_15">
     <g id="line2d_15">
      <path d="M 613.441549 364.961675 
L 613.441549 21.6 
" clip-path="url(#pee37e32011)" style="fill: none; stroke: #cccccc; stroke-width: 0.8; stroke-linecap: round"/>
     </g>
     <g id="text_15">
      <!-- 15:00 -->
      <g style="fill: #262626" transform="translate(602.638781 407.689792)rotate(-45)scale(0.17 -0.17)">
       <use xlink:href="#TimesNewRomanPSMT-31"/>
       <use xlink:href="#TimesNewRomanPSMT-35" x="50"/>
       <use xlink:href="#TimesNewRomanPSMT-3a" x="100"/>
       <use xlink:href="#TimesNewRomanPSMT-30" x="127.783203"/>
       <use xlink:href="#TimesNewRomanPSMT-30" x="177.783203"/>
      </g>
     </g>
    </g>
    <g id="xtick_16">
     <g id="line2d_16">
      <path d="M 648.351671 364.961675 
L 648.351671 21.6 
" clip-path="url(#pee37e32011)" style="fill: none; stroke: #cccccc; stroke-width: 0.8; stroke-linecap: round"/>
     </g>
     <g id="text_16">
      <!-- 16:00 -->
      <g style="fill: #262626" transform="translate(637.548902 407.689792)rotate(-45)scale(0.17 -0.17)">
       <use xlink:href="#TimesNewRomanPSMT-31"/>
       <use xlink:href="#TimesNewRomanPSMT-36" x="50"/>
       <use xlink:href="#TimesNewRomanPSMT-3a" x="100"/>
       <use xlink:href="#TimesNewRomanPSMT-30" x="127.783203"/>
       <use xlink:href="#TimesNewRomanPSMT-30" x="177.783203"/>
      </g>
     </g>
    </g>
    <g id="xtick_17">
     <g id="line2d_17">
      <path d="M 683.261792 364.961675 
L 683.261792 21.6 
" clip-path="url(#pee37e32011)" style="fill: none; stroke: #cccccc; stroke-width: 0.8; stroke-linecap: round"/>
     </g>
     <g id="text_17">
      <!-- 17:00 -->
      <g style="fill: #262626" transform="translate(672.459024 407.689792)rotate(-45)scale(0.17 -0.17)">
       <use xlink:href="#TimesNewRomanPSMT-31"/>
       <use xlink:href="#TimesNewRomanPSMT-37" x="50"/>
       <use xlink:href="#TimesNewRomanPSMT-3a" x="100"/>
       <use xlink:href="#TimesNewRomanPSMT-30" x="127.783203"/>
       <use xlink:href="#TimesNewRomanPSMT-30" x="177.783203"/>
      </g>
     </g>
    </g>
    <g id="xtick_18">
     <g id="line2d_18">
      <path d="M 718.171914 364.961675 
L 718.171914 21.6 
" clip-path="url(#pee37e32011)" style="fill: none; stroke: #cccccc; stroke-width: 0.8; stroke-linecap: round"/>
     </g>
     <g id="text_18">
      <!-- 18:00 -->
      <g style="fill: #262626" transform="translate(707.369145 407.689792)rotate(-45)scale(0.17 -0.17)">
       <use xlink:href="#TimesNewRomanPSMT-31"/>
       <use xlink:href="#TimesNewRomanPSMT-38" x="50"/>
       <use xlink:href="#TimesNewRomanPSMT-3a" x="100"/>
       <use xlink:href="#TimesNewRomanPSMT-30" x="127.783203"/>
       <use xlink:href="#TimesNewRomanPSMT-30" x="177.783203"/>
      </g>
     </g>
    </g>
    <g id="xtick_19">
     <g id="line2d_19">
      <path d="M 753.082035 364.961675 
L 753.082035 21.6 
" clip-path="url(#pee37e32011)" style="fill: none; stroke: #cccccc; stroke-width: 0.8; stroke-linecap: round"/>
     </g>
     <g id="text_19">
      <!-- 19:00 -->
      <g style="fill: #262626" transform="translate(742.279267 407.689792)rotate(-45)scale(0.17 -0.17)">
       <use xlink:href="#TimesNewRomanPSMT-31"/>
       <use xlink:href="#TimesNewRomanPSMT-39" x="50"/>
       <use xlink:href="#TimesNewRomanPSMT-3a" x="100"/>
       <use xlink:href="#TimesNewRomanPSMT-30" x="127.783203"/>
       <use xlink:href="#TimesNewRomanPSMT-30" x="177.783203"/>
      </g>
     </g>
    </g>
    <g id="xtick_20">
     <g id="line2d_20">
      <path d="M 787.992157 364.961675 
L 787.992157 21.6 
" clip-path="url(#pee37e32011)" style="fill: none; stroke: #cccccc; stroke-width: 0.8; stroke-linecap: round"/>
     </g>
     <g id="text_20">
      <!-- 20:00 -->
      <g style="fill: #262626" transform="translate(777.189388 407.689792)rotate(-45)scale(0.17 -0.17)">
       <use xlink:href="#TimesNewRomanPSMT-32"/>
       <use xlink:href="#TimesNewRomanPSMT-30" x="50"/>
       <use xlink:href="#TimesNewRomanPSMT-3a" x="100"/>
       <use xlink:href="#TimesNewRomanPSMT-30" x="127.783203"/>
       <use xlink:href="#TimesNewRomanPSMT-30" x="177.783203"/>
      </g>
     </g>
    </g>
    <g id="xtick_21">
     <g id="line2d_21">
      <path d="M 822.902278 364.961675 
L 822.902278 21.6 
" clip-path="url(#pee37e32011)" style="fill: none; stroke: #cccccc; stroke-width: 0.8; stroke-linecap: round"/>
     </g>
     <g id="text_21">
      <!-- 21:00 -->
      <g style="fill: #262626" transform="translate(812.099509 407.689792)rotate(-45)scale(0.17 -0.17)">
       <use xlink:href="#TimesNewRomanPSMT-32"/>
       <use xlink:href="#TimesNewRomanPSMT-31" x="50"/>
       <use xlink:href="#TimesNewRomanPSMT-3a" x="100"/>
       <use xlink:href="#TimesNewRomanPSMT-30" x="127.783203"/>
       <use xlink:href="#TimesNewRomanPSMT-30" x="177.783203"/>
      </g>
     </g>
    </g>
   </g>
   <g id="matplotlib.axis_2">
    <g id="ytick_1">
     <g id="line2d_22">
      <path d="M 91.3025 349.354326 
L 826.044189 349.354326 
" clip-path="url(#pee37e32011)" style="fill: none; stroke: #cccccc; stroke-width: 0.8; stroke-linecap: round"/>
     </g>
     <g id="text_22">
      <!-- 0 -->
      <g style="fill: #262626" transform="translate(74.3025 356.298076)scale(0.2 -0.2)">
       <use xlink:href="#TimesNewRomanPSMT-30"/>
      </g>
     </g>
    </g>
    <g id="ytick_2">
     <g id="line2d_23">
      <path d="M 91.3025 286.774237 
L 826.044189 286.774237 
" clip-path="url(#pee37e32011)" style="fill: none; stroke: #cccccc; stroke-width: 0.8; stroke-linecap: round"/>
     </g>
     <g id="text_23">
      <!-- 1000 -->
      <g style="fill: #262626" transform="translate(44.3025 293.717987)scale(0.2 -0.2)">
       <use xlink:href="#TimesNewRomanPSMT-31"/>
       <use xlink:href="#TimesNewRomanPSMT-30" x="50"/>
       <use xlink:href="#TimesNewRomanPSMT-30" x="100"/>
       <use xlink:href="#TimesNewRomanPSMT-30" x="150"/>
      </g>
     </g>
    </g>
    <g id="ytick_3">
     <g id="line2d_24">
      <path d="M 91.3025 224.194147 
L 826.044189 224.194147 
" clip-path="url(#pee37e32011)" style="fill: none; stroke: #cccccc; stroke-width: 0.8; stroke-linecap: round"/>
     </g>
     <g id="text_24">
      <!-- 2000 -->
      <g style="fill: #262626" transform="translate(44.3025 231.137897)scale(0.2 -0.2)">
       <use xlink:href="#TimesNewRomanPSMT-32"/>
       <use xlink:href="#TimesNewRomanPSMT-30" x="50"/>
       <use xlink:href="#TimesNewRomanPSMT-30" x="100"/>
       <use xlink:href="#TimesNewRomanPSMT-30" x="150"/>
      </g>
     </g>
    </g>
    <g id="ytick_4">
     <g id="line2d_25">
      <path d="M 91.3025 161.614058 
L 826.044189 161.614058 
" clip-path="url(#pee37e32011)" style="fill: none; stroke: #cccccc; stroke-width: 0.8; stroke-linecap: round"/>
     </g>
     <g id="text_25">
      <!-- 3000 -->
      <g style="fill: #262626" transform="translate(44.3025 168.557808)scale(0.2 -0.2)">
       <use xlink:href="#TimesNewRomanPSMT-33"/>
       <use xlink:href="#TimesNewRomanPSMT-30" x="50"/>
       <use xlink:href="#TimesNewRomanPSMT-30" x="100"/>
       <use xlink:href="#TimesNewRomanPSMT-30" x="150"/>
      </g>
     </g>
    </g>
    <g id="ytick_5">
     <g id="line2d_26">
      <path d="M 91.3025 99.033968 
L 826.044189 99.033968 
" clip-path="url(#pee37e32011)" style="fill: none; stroke: #cccccc; stroke-width: 0.8; stroke-linecap: round"/>
     </g>
     <g id="text_26">
      <!-- 4000 -->
      <g style="fill: #262626" transform="translate(44.3025 105.977718)scale(0.2 -0.2)">
       <use xlink:href="#TimesNewRomanPSMT-34"/>
       <use xlink:href="#TimesNewRomanPSMT-30" x="50"/>
       <use xlink:href="#TimesNewRomanPSMT-30" x="100"/>
       <use xlink:href="#TimesNewRomanPSMT-30" x="150"/>
      </g>
     </g>
    </g>
    <g id="ytick_6">
     <g id="line2d_27">
      <path d="M 91.3025 36.453879 
L 826.044189 36.453879 
" clip-path="url(#pee37e32011)" style="fill: none; stroke: #cccccc; stroke-width: 0.8; stroke-linecap: round"/>
     </g>
     <g id="text_27">
      <!-- 5000 -->
      <g style="fill: #262626" transform="translate(44.3025 43.397629)scale(0.2 -0.2)">
       <use xlink:href="#TimesNewRomanPSMT-35"/>
       <use xlink:href="#TimesNewRomanPSMT-30" x="50"/>
       <use xlink:href="#TimesNewRomanPSMT-30" x="100"/>
       <use xlink:href="#TimesNewRomanPSMT-30" x="150"/>
      </g>
     </g>
    </g>
    <g id="text_28">
     <!-- Solar Power Generation (W) -->
     <g style="fill: #262626" transform="translate(36.024375 307.96365)rotate(-90)scale(0.2 -0.2)">
      <defs>
       <path id="TimesNewRomanPSMT-53" d="M 2934 4334 
L 2934 2869 
L 2819 2869 
Q 2763 3291 2617 3541 
Q 2472 3791 2203 3937 
Q 1934 4084 1647 4084 
Q 1322 4084 1109 3886 
Q 897 3688 897 3434 
Q 897 3241 1031 3081 
Q 1225 2847 1953 2456 
Q 2547 2138 2764 1967 
Q 2981 1797 3098 1565 
Q 3216 1334 3216 1081 
Q 3216 600 2842 251 
Q 2469 -97 1881 -97 
Q 1697 -97 1534 -69 
Q 1438 -53 1133 45 
Q 828 144 747 144 
Q 669 144 623 97 
Q 578 50 556 -97 
L 441 -97 
L 441 1356 
L 556 1356 
Q 638 900 775 673 
Q 913 447 1195 297 
Q 1478 147 1816 147 
Q 2206 147 2432 353 
Q 2659 559 2659 841 
Q 2659 997 2573 1156 
Q 2488 1316 2306 1453 
Q 2184 1547 1640 1851 
Q 1097 2156 867 2337 
Q 638 2519 519 2737 
Q 400 2956 400 3219 
Q 400 3675 750 4004 
Q 1100 4334 1641 4334 
Q 1978 4334 2356 4169 
Q 2531 4091 2603 4091 
Q 2684 4091 2736 4139 
Q 2788 4188 2819 4334 
L 2934 4334 
z
" transform="scale(0.015625)"/>
       <path id="TimesNewRomanPSMT-6f" d="M 1600 2947 
Q 2250 2947 2644 2453 
Q 2978 2031 2978 1484 
Q 2978 1100 2793 706 
Q 2609 313 2286 112 
Q 1963 -88 1566 -88 
Q 919 -88 538 428 
Q 216 863 216 1403 
Q 216 1797 411 2186 
Q 606 2575 925 2761 
Q 1244 2947 1600 2947 
z
M 1503 2744 
Q 1338 2744 1170 2645 
Q 1003 2547 900 2300 
Q 797 2053 797 1666 
Q 797 1041 1045 587 
Q 1294 134 1700 134 
Q 2003 134 2200 384 
Q 2397 634 2397 1244 
Q 2397 2006 2069 2444 
Q 1847 2744 1503 2744 
z
" transform="scale(0.015625)"/>
       <path id="TimesNewRomanPSMT-6c" d="M 1184 4444 
L 1184 647 
Q 1184 378 1223 290 
Q 1263 203 1344 158 
Q 1425 113 1647 113 
L 1647 0 
L 244 0 
L 244 113 
Q 441 113 512 153 
Q 584 194 625 287 
Q 666 381 666 647 
L 666 3247 
Q 666 3731 644 3842 
Q 622 3953 573 3993 
Q 525 4034 450 4034 
Q 369 4034 244 3984 
L 191 4094 
L 1044 4444 
L 1184 4444 
z
" transform="scale(0.015625)"/>
       <path id="TimesNewRomanPSMT-61" d="M 1822 413 
Q 1381 72 1269 19 
Q 1100 -59 909 -59 
Q 613 -59 420 144 
Q 228 347 228 678 
Q 228 888 322 1041 
Q 450 1253 767 1440 
Q 1084 1628 1822 1897 
L 1822 2009 
Q 1822 2438 1686 2597 
Q 1550 2756 1291 2756 
Q 1094 2756 978 2650 
Q 859 2544 859 2406 
L 866 2225 
Q 866 2081 792 2003 
Q 719 1925 600 1925 
Q 484 1925 411 2006 
Q 338 2088 338 2228 
Q 338 2497 613 2722 
Q 888 2947 1384 2947 
Q 1766 2947 2009 2819 
Q 2194 2722 2281 2516 
Q 2338 2381 2338 1966 
L 2338 994 
Q 2338 584 2353 492 
Q 2369 400 2405 369 
Q 2441 338 2488 338 
Q 2538 338 2575 359 
Q 2641 400 2828 588 
L 2828 413 
Q 2478 -56 2159 -56 
Q 2006 -56 1915 50 
Q 1825 156 1822 413 
z
M 1822 616 
L 1822 1706 
Q 1350 1519 1213 1441 
Q 966 1303 859 1153 
Q 753 1003 753 825 
Q 753 600 887 451 
Q 1022 303 1197 303 
Q 1434 303 1822 616 
z
" transform="scale(0.015625)"/>
       <path id="TimesNewRomanPSMT-72" d="M 1038 2947 
L 1038 2303 
Q 1397 2947 1775 2947 
Q 1947 2947 2059 2842 
Q 2172 2738 2172 2600 
Q 2172 2478 2090 2393 
Q 2009 2309 1897 2309 
Q 1788 2309 1652 2417 
Q 1516 2525 1450 2525 
Q 1394 2525 1328 2463 
Q 1188 2334 1038 2041 
L 1038 669 
Q 1038 431 1097 309 
Q 1138 225 1241 169 
Q 1344 113 1538 113 
L 1538 0 
L 72 0 
L 72 113 
Q 291 113 397 181 
Q 475 231 506 341 
Q 522 394 522 644 
L 522 1753 
Q 522 2253 501 2348 
Q 481 2444 426 2487 
Q 372 2531 291 2531 
Q 194 2531 72 2484 
L 41 2597 
L 906 2947 
L 1038 2947 
z
" transform="scale(0.015625)"/>
       <path id="TimesNewRomanPSMT-20" transform="scale(0.015625)"/>
       <path id="TimesNewRomanPSMT-50" d="M 1313 1984 
L 1313 750 
Q 1313 350 1400 253 
Q 1519 116 1759 116 
L 1922 116 
L 1922 0 
L 106 0 
L 106 116 
L 266 116 
Q 534 116 650 291 
Q 713 388 713 750 
L 713 3488 
Q 713 3888 628 3984 
Q 506 4122 266 4122 
L 106 4122 
L 106 4238 
L 1659 4238 
Q 2228 4238 2556 4120 
Q 2884 4003 3109 3725 
Q 3334 3447 3334 3066 
Q 3334 2547 2992 2222 
Q 2650 1897 2025 1897 
Q 1872 1897 1694 1919 
Q 1516 1941 1313 1984 
z
M 1313 2163 
Q 1478 2131 1606 2115 
Q 1734 2100 1825 2100 
Q 2150 2100 2386 2351 
Q 2622 2603 2622 3003 
Q 2622 3278 2509 3514 
Q 2397 3750 2190 3867 
Q 1984 3984 1722 3984 
Q 1563 3984 1313 3925 
L 1313 2163 
z
" transform="scale(0.015625)"/>
       <path id="TimesNewRomanPSMT-77" d="M 41 2863 
L 1241 2863 
L 1241 2747 
Q 1075 2734 1023 2687 
Q 972 2641 972 2553 
Q 972 2456 1025 2319 
L 1638 672 
L 2253 2013 
L 2091 2434 
Q 2016 2622 1894 2694 
Q 1825 2738 1638 2747 
L 1638 2863 
L 3000 2863 
L 3000 2747 
Q 2775 2738 2681 2666 
Q 2619 2616 2619 2506 
Q 2619 2444 2644 2378 
L 3294 734 
L 3897 2319 
Q 3959 2488 3959 2588 
Q 3959 2647 3898 2694 
Q 3838 2741 3659 2747 
L 3659 2863 
L 4563 2863 
L 4563 2747 
Q 4291 2706 4163 2378 
L 3206 -88 
L 3078 -88 
L 2363 1741 
L 1528 -88 
L 1413 -88 
L 494 2319 
Q 403 2547 315 2626 
Q 228 2706 41 2747 
L 41 2863 
z
" transform="scale(0.015625)"/>
       <path id="TimesNewRomanPSMT-65" d="M 681 1784 
Q 678 1147 991 784 
Q 1303 422 1725 422 
Q 2006 422 2214 576 
Q 2422 731 2563 1106 
L 2659 1044 
Q 2594 616 2278 264 
Q 1963 -88 1488 -88 
Q 972 -88 605 314 
Q 238 716 238 1394 
Q 238 2128 614 2539 
Q 991 2950 1559 2950 
Q 2041 2950 2350 2633 
Q 2659 2316 2659 1784 
L 681 1784 
z
M 681 1966 
L 2006 1966 
Q 1991 2241 1941 2353 
Q 1863 2528 1708 2628 
Q 1553 2728 1384 2728 
Q 1125 2728 920 2526 
Q 716 2325 681 1966 
z
" transform="scale(0.015625)"/>
       <path id="TimesNewRomanPSMT-47" d="M 3928 4334 
L 4038 2997 
L 3928 2997 
Q 3763 3497 3500 3750 
Q 3122 4116 2528 4116 
Q 1719 4116 1297 3475 
Q 944 2934 944 2188 
Q 944 1581 1178 1081 
Q 1413 581 1792 348 
Q 2172 116 2572 116 
Q 2806 116 3025 175 
Q 3244 234 3447 350 
L 3447 1575 
Q 3447 1894 3398 1992 
Q 3350 2091 3248 2142 
Q 3147 2194 2891 2194 
L 2891 2313 
L 4531 2313 
L 4531 2194 
L 4453 2194 
Q 4209 2194 4119 2031 
Q 4056 1916 4056 1575 
L 4056 278 
Q 3697 84 3347 -6 
Q 2997 -97 2569 -97 
Q 1341 -97 703 691 
Q 225 1281 225 2053 
Q 225 2613 494 3125 
Q 813 3734 1369 4063 
Q 1834 4334 2469 4334 
Q 2700 4334 2889 4296 
Q 3078 4259 3425 4131 
Q 3600 4066 3659 4066 
Q 3719 4066 3761 4120 
Q 3803 4175 3813 4334 
L 3928 4334 
z
" transform="scale(0.015625)"/>
       <path id="TimesNewRomanPSMT-6e" d="M 1034 2341 
Q 1538 2947 1994 2947 
Q 2228 2947 2397 2830 
Q 2566 2713 2666 2444 
Q 2734 2256 2734 1869 
L 2734 647 
Q 2734 375 2778 278 
Q 2813 200 2889 156 
Q 2966 113 3172 113 
L 3172 0 
L 1756 0 
L 1756 113 
L 1816 113 
Q 2016 113 2095 173 
Q 2175 234 2206 353 
Q 2219 400 2219 647 
L 2219 1819 
Q 2219 2209 2117 2386 
Q 2016 2563 1775 2563 
Q 1403 2563 1034 2156 
L 1034 647 
Q 1034 356 1069 288 
Q 1113 197 1189 155 
Q 1266 113 1500 113 
L 1500 0 
L 84 0 
L 84 113 
L 147 113 
Q 366 113 442 223 
Q 519 334 519 647 
L 519 1709 
Q 519 2225 495 2337 
Q 472 2450 423 2490 
Q 375 2531 294 2531 
Q 206 2531 84 2484 
L 38 2597 
L 900 2947 
L 1034 2947 
L 1034 2341 
z
" transform="scale(0.015625)"/>
       <path id="TimesNewRomanPSMT-74" d="M 1031 3803 
L 1031 2863 
L 1700 2863 
L 1700 2644 
L 1031 2644 
L 1031 788 
Q 1031 509 1111 412 
Q 1191 316 1316 316 
Q 1419 316 1516 380 
Q 1613 444 1666 569 
L 1788 569 
Q 1678 263 1478 108 
Q 1278 -47 1066 -47 
Q 922 -47 784 33 
Q 647 113 581 261 
Q 516 409 516 719 
L 516 2644 
L 63 2644 
L 63 2747 
Q 234 2816 414 2980 
Q 594 3144 734 3369 
Q 806 3488 934 3803 
L 1031 3803 
z
" transform="scale(0.015625)"/>
       <path id="TimesNewRomanPSMT-69" d="M 928 4444 
Q 1059 4444 1151 4351 
Q 1244 4259 1244 4128 
Q 1244 3997 1151 3903 
Q 1059 3809 928 3809 
Q 797 3809 703 3903 
Q 609 3997 609 4128 
Q 609 4259 701 4351 
Q 794 4444 928 4444 
z
M 1188 2947 
L 1188 647 
Q 1188 378 1227 289 
Q 1266 200 1342 156 
Q 1419 113 1622 113 
L 1622 0 
L 231 0 
L 231 113 
Q 441 113 512 153 
Q 584 194 626 287 
Q 669 381 669 647 
L 669 1750 
Q 669 2216 641 2353 
Q 619 2453 572 2492 
Q 525 2531 444 2531 
Q 356 2531 231 2484 
L 188 2597 
L 1050 2947 
L 1188 2947 
z
" transform="scale(0.015625)"/>
       <path id="TimesNewRomanPSMT-28" d="M 1988 -1253 
L 1988 -1369 
Q 1516 -1131 1200 -813 
Q 750 -359 506 256 
Q 263 872 263 1534 
Q 263 2503 741 3301 
Q 1219 4100 1988 4444 
L 1988 4313 
Q 1603 4100 1356 3731 
Q 1109 3363 987 2797 
Q 866 2231 866 1616 
Q 866 947 969 400 
Q 1050 -31 1165 -292 
Q 1281 -553 1476 -793 
Q 1672 -1034 1988 -1253 
z
" transform="scale(0.015625)"/>
       <path id="TimesNewRomanPSMT-57" d="M 5991 4238 
L 5991 4122 
Q 5825 4122 5722 4062 
Q 5619 4003 5525 3841 
Q 5463 3731 5328 3319 
L 4147 -97 
L 4022 -97 
L 3056 2613 
L 2097 -97 
L 1984 -97 
L 725 3422 
Q 584 3816 547 3888 
Q 484 4006 376 4064 
Q 269 4122 84 4122 
L 84 4238 
L 1653 4238 
L 1653 4122 
L 1578 4122 
Q 1413 4122 1325 4047 
Q 1238 3972 1238 3866 
Q 1238 3756 1375 3363 
L 2209 984 
L 2913 3006 
L 2788 3363 
L 2688 3647 
Q 2622 3803 2541 3922 
Q 2500 3981 2441 4022 
Q 2363 4078 2284 4103 
Q 2225 4122 2097 4122 
L 2097 4238 
L 3747 4238 
L 3747 4122 
L 3634 4122 
Q 3459 4122 3378 4047 
Q 3297 3972 3297 3844 
Q 3297 3684 3438 3288 
L 4250 984 
L 5056 3319 
Q 5194 3706 5194 3856 
Q 5194 3928 5148 3990 
Q 5103 4053 5034 4078 
Q 4916 4122 4725 4122 
L 4725 4238 
L 5991 4238 
z
" transform="scale(0.015625)"/>
       <path id="TimesNewRomanPSMT-29" d="M 144 4313 
L 144 4444 
Q 619 4209 934 3891 
Q 1381 3434 1625 2820 
Q 1869 2206 1869 1541 
Q 1869 572 1392 -226 
Q 916 -1025 144 -1369 
L 144 -1253 
Q 528 -1038 776 -670 
Q 1025 -303 1145 264 
Q 1266 831 1266 1447 
Q 1266 2113 1163 2663 
Q 1084 3094 967 3353 
Q 850 3613 656 3853 
Q 463 4094 144 4313 
z
" transform="scale(0.015625)"/>
      </defs>
      <use xlink:href="#TimesNewRomanPSMT-53"/>
      <use xlink:href="#TimesNewRomanPSMT-6f" x="55.615234"/>
      <use xlink:href="#TimesNewRomanPSMT-6c" x="105.615234"/>
      <use xlink:href="#TimesNewRomanPSMT-61" x="133.398438"/>
      <use xlink:href="#TimesNewRomanPSMT-72" x="177.783203"/>
      <use xlink:href="#TimesNewRomanPSMT-20" x="211.083984"/>
      <use xlink:href="#TimesNewRomanPSMT-50" x="236.083984"/>
      <use xlink:href="#TimesNewRomanPSMT-6f" x="291.699219"/>
      <use xlink:href="#TimesNewRomanPSMT-77" x="341.699219"/>
      <use xlink:href="#TimesNewRomanPSMT-65" x="413.916016"/>
      <use xlink:href="#TimesNewRomanPSMT-72" x="458.300781"/>
      <use xlink:href="#TimesNewRomanPSMT-20" x="491.601562"/>
      <use xlink:href="#TimesNewRomanPSMT-47" x="516.601562"/>
      <use xlink:href="#TimesNewRomanPSMT-65" x="588.818359"/>
      <use xlink:href="#TimesNewRomanPSMT-6e" x="633.203125"/>
      <use xlink:href="#TimesNewRomanPSMT-65" x="683.203125"/>
      <use xlink:href="#TimesNewRomanPSMT-72" x="727.587891"/>
      <use xlink:href="#TimesNewRomanPSMT-61" x="760.888672"/>
      <use xlink:href="#TimesNewRomanPSMT-74" x="805.273438"/>
      <use xlink:href="#TimesNewRomanPSMT-69" x="833.056641"/>
      <use xlink:href="#TimesNewRomanPSMT-6f" x="860.839844"/>
      <use xlink:href="#TimesNewRomanPSMT-6e" x="910.839844"/>
      <use xlink:href="#TimesNewRomanPSMT-20" x="960.839844"/>
      <use xlink:href="#TimesNewRomanPSMT-28" x="985.839844"/>
      <use xlink:href="#TimesNewRomanPSMT-57" x="1019.140625"/>
      <use xlink:href="#TimesNewRomanPSMT-29" x="1113.525391"/>
     </g>
    </g>
   </g>
   <g id="line2d_28">
    <path d="M 124.699849 349.354326 
L 210.811482 349.309412 
L 213.138824 342.604449 
L 215.466165 339.741612 
L 217.793507 339.004814 
L 227.102872 337.577501 
L 231.757555 336.299488 
L 234.084897 335.401943 
L 236.412238 334.376497 
L 238.739579 333.144519 
L 241.066921 331.659227 
L 243.394262 328.199934 
L 245.721604 324.232895 
L 248.048945 321.000662 
L 250.376287 317.482893 
L 252.703628 313.431125 
L 255.030969 308.334627 
L 257.358311 303.826622 
L 262.012994 288.696506 
L 264.340335 280.922801 
L 266.667677 274.403966 
L 268.995018 263.927921 
L 271.322359 250.50543 
L 273.649701 244.73708 
L 275.977042 235.575377 
L 278.304384 224.455722 
L 280.631725 226.845775 
L 282.959067 209.405979 
L 285.286408 205.949423 
L 287.613749 201.56173 
L 289.941091 194.257574 
L 292.268432 188.593485 
L 294.595774 181.232471 
L 296.923115 174.575658 
L 299.250457 169.693406 
L 301.577798 166.437286 
L 303.905139 161.395905 
L 306.232481 157.171695 
L 308.559822 152.153331 
L 310.887164 146.590766 
L 313.214505 141.397721 
L 315.541847 138.222472 
L 317.869188 137.171769 
L 320.196529 135.052697 
L 322.523871 127.801294 
L 324.851212 123.462123 
L 327.178554 119.397168 
L 329.505895 115.79691 
L 331.833237 114.782288 
L 334.160578 110.976244 
L 336.487919 108.378788 
L 338.815261 104.082541 
L 341.142602 100.701755 
L 343.469944 97.040408 
L 345.797285 97.084203 
L 348.124627 96.812725 
L 350.451968 96.130173 
L 352.779309 94.896826 
L 355.106651 90.99722 
L 357.433992 86.714659 
L 359.761334 84.410081 
L 362.088675 78.854732 
L 364.416017 81.259964 
L 366.743358 87.29606 
L 369.070699 85.733506 
L 371.398041 81.531567 
L 373.725382 86.912482 
L 376.052724 90.67921 
L 378.380065 82.848397 
L 380.707407 83.667808 
L 383.034748 77.70798 
L 385.362089 73.785855 
L 387.689431 75.666917 
L 390.016772 76.76888 
L 392.344114 79.410504 
L 394.671455 94.572968 
L 396.998797 78.291496 
L 399.326138 84.91621 
L 401.653479 79.217284 
L 403.980821 72.927377 
L 406.308162 72.576645 
L 408.635504 77.903564 
L 410.962845 75.893232 
L 413.290187 70.311632 
L 415.617528 71.087621 
L 417.944869 91.065899 
L 420.272211 65.203438 
L 422.599552 65.759458 
L 424.926894 79.215791 
L 427.254235 79.895482 
L 429.581577 80.719372 
L 431.908918 85.245168 
L 434.236259 73.458887 
L 436.563601 66.846739 
L 438.890942 97.551514 
L 441.218284 82.409454 
L 443.545625 88.405363 
L 445.872967 82.968211 
L 448.200308 95.358289 
L 450.527649 99.581006 
L 452.854991 99.362529 
L 455.182332 103.66002 
L 457.509674 109.02526 
L 459.837015 109.13823 
L 462.164357 96.852041 
L 464.491698 95.156733 
L 466.819039 96.258447 
L 469.146381 92.240894 
L 471.473722 90.685929 
L 473.801064 94.44457 
L 476.128405 95.909457 
L 478.455747 99.292358 
L 480.783088 104.507923 
L 483.110429 106.64093 
L 485.437771 106.266559 
L 487.765112 110.274905 
L 490.092454 106.975114 
L 492.419795 104.072961 
L 494.747137 109.524794 
L 497.074478 109.809087 
L 499.401819 111.804738 
L 501.729161 116.205247 
L 504.056502 120.073499 
L 506.383844 126.225925 
L 511.038527 132.352721 
L 515.693209 141.551998 
L 518.020551 146.280221 
L 520.347892 151.302442 
L 522.675234 153.628794 
L 525.002575 159.809587 
L 527.329917 162.677899 
L 529.657258 167.386464 
L 531.984599 173.539513 
L 541.293965 194.5028 
L 548.275989 212.975755 
L 550.603331 219.879287 
L 555.258014 232.892446 
L 562.240038 252.81063 
L 564.567379 259.754474 
L 566.894721 268.481214 
L 569.222062 279.934058 
L 573.876745 305.566347 
L 576.204087 317.099439 
L 578.531428 323.406018 
L 580.858769 326.53063 
L 583.186111 328.874772 
L 587.840794 332.683429 
L 590.168135 333.571394 
L 594.822818 334.648473 
L 601.804842 336.281572 
L 622.750915 340.061861 
L 641.369647 343.179256 
L 650.679012 344.979821 
L 659.988378 347.089562 
L 666.970402 348.286828 
L 671.625085 348.912397 
L 673.952427 349.354326 
L 792.646839 349.354326 
L 792.646839 349.354326 
" clip-path="url(#pee37e32011)" style="fill: none; stroke: #fc8e0f; stroke-opacity: 0.8; stroke-width: 2.5; stroke-linecap: round"/>
   </g>
   <g id="line2d_29">
    <path d="M 124.699849 349.354326 
L 259.685652 349.354326 
L 262.012994 348.857031 
L 264.340335 342.089363 
L 266.667677 342.697265 
L 268.995018 343.804826 
L 271.322359 343.408806 
L 273.649701 341.217447 
L 275.977042 341.960218 
L 278.304384 341.419625 
L 280.631725 340.227585 
L 282.959067 338.363568 
L 285.286408 334.718395 
L 287.613749 332.197705 
L 289.941091 332.631174 
L 292.268432 329.985195 
L 294.595774 326.247083 
L 296.923115 321.954444 
L 299.250457 326.539712 
L 301.577798 322.287011 
L 303.905139 320.599044 
L 306.232481 310.647541 
L 308.559822 314.268701 
L 310.887164 311.663158 
L 313.214505 306.331885 
L 315.541847 303.797135 
L 317.869188 309.623091 
L 320.196529 306.154217 
L 322.523871 306.974499 
L 324.851212 300.603224 
L 327.178554 301.655046 
L 329.505895 302.191781 
L 331.833237 301.007953 
L 334.160578 302.441113 
L 336.487919 301.141203 
L 338.815261 273.627603 
L 341.142602 284.077521 
L 343.469944 257.538978 
L 345.797285 252.754394 
L 348.124627 258.98794 
L 350.451968 243.255396 
L 352.779309 239.175013 
L 355.106651 233.873351 
L 357.433992 156.975365 
L 359.761334 97.691856 
L 362.088675 102.752273 
L 364.416017 207.974187 
L 366.743358 162.925364 
L 369.070699 43.852591 
L 371.398041 37.207349 
L 373.725382 110.984083 
L 376.052724 276.487206 
L 378.380065 252.995763 
L 380.707407 263.791684 
L 383.034748 232.486349 
L 385.362089 168.772098 
L 387.689431 258.017984 
L 390.016772 272.981132 
L 392.344114 274.902257 
L 394.671455 266.597041 
L 396.998797 131.323667 
L 399.326138 210.455562 
L 401.653479 260.067631 
L 403.980821 202.529197 
L 406.308162 175.537029 
L 408.635504 107.700964 
L 410.962845 148.797802 
L 413.290187 38.752485 
L 415.617528 74.365265 
L 417.944869 150.206825 
L 420.272211 91.965185 
L 422.599552 208.352789 
L 424.926894 141.002448 
L 427.254235 168.120401 
L 429.581577 217.477166 
L 431.908918 191.321455 
L 434.236259 149.164583 
L 436.563601 242.164009 
L 438.890942 202.748171 
L 441.218284 188.845803 
L 443.545625 196.961407 
L 445.872967 217.742921 
L 448.200308 219.404387 
L 450.527649 92.328981 
L 452.854991 192.747524 
L 455.182332 232.344513 
L 457.509674 137.649655 
L 459.837015 191.84973 
L 462.164357 254.429172 
L 464.491698 258.890148 
L 466.819039 195.66411 
L 469.146381 263.735448 
L 471.473722 209.411951 
L 473.801064 222.965205 
L 476.128405 220.867781 
L 478.455747 142.416324 
L 480.783088 112.402438 
L 483.110429 49.180878 
L 485.437771 171.989773 
L 487.765112 236.995474 
L 490.092454 244.41994 
L 492.419795 270.604517 
L 494.747137 276.412058 
L 497.074478 250.651247 
L 499.401819 211.651459 
L 501.729161 230.835707 
L 504.056502 273.320791 
L 506.383844 277.870725 
L 508.711185 267.577075 
L 511.038527 229.003167 
L 513.365868 214.273799 
L 515.693209 237.3207 
L 518.020551 273.907666 
L 520.347892 290.670259 
L 522.675234 241.547896 
L 525.002575 196.35562 
L 527.329917 167.579684 
L 529.657258 173.675376 
L 531.984599 185.161688 
L 534.311941 191.737754 
L 536.639282 215.571096 
L 538.966624 203.237504 
L 541.293965 248.231583 
L 543.621307 272.77659 
L 545.948648 238.951062 
L 548.275989 263.501046 
L 550.603331 285.049094 
L 552.930672 253.753588 
L 555.258014 258.297425 
L 557.585355 267.204072 
L 559.912697 277.046586 
L 562.240038 314.713119 
L 564.567379 324.276316 
L 566.894721 310.48132 
L 569.222062 316.894898 
L 571.549404 329.920747 
L 573.876745 317.701121 
L 576.204087 333.686729 
L 578.531428 333.34483 
L 580.858769 337.671435 
L 583.186111 334.425269 
L 585.513452 334.988629 
L 587.840794 333.655251 
L 590.168135 334.997587 
L 592.495477 338.188264 
L 594.822818 340.635175 
L 597.150159 342.246377 
L 599.477501 342.853781 
L 601.804842 342.174464 
L 604.132184 343.81677 
L 611.114208 347.399485 
L 613.441549 348.009129 
L 615.768891 348.42406 
L 618.096232 349.219956 
L 620.423574 349.354326 
L 792.646839 349.354326 
L 792.646839 349.354326 
" clip-path="url(#pee37e32011)" style="fill: none; stroke: #44af69; stroke-opacity: 0.8; stroke-width: 2.5; stroke-linecap: round"/>
   </g>
   <g id="line2d_30">
    <path d="M 124.699849 349.354326 
L 285.286408 349.354326 
L 289.941091 342.08787 
L 292.268432 341.325068 
L 294.595774 340.918846 
L 296.923115 340.814212 
L 299.250457 340.455642 
L 301.577798 339.381051 
L 306.232481 335.784401 
L 308.559822 333.560943 
L 310.887164 337.143036 
L 313.214505 338.890848 
L 315.541847 336.959396 
L 317.869188 335.887294 
L 320.196529 333.544893 
L 322.523871 333.953354 
L 324.851212 333.204488 
L 327.178554 335.09936 
L 329.505895 332.232541 
L 331.833237 330.446534 
L 334.160578 326.053117 
L 336.487919 329.170388 
L 338.815261 326.297099 
L 341.142602 322.898272 
L 343.469944 324.135476 
L 345.797285 327.792344 
L 348.124627 330.75372 
L 350.451968 330.861963 
L 352.779309 330.211385 
L 355.106651 332.777488 
L 357.433992 332.161748 
L 359.761334 332.153412 
L 362.088675 330.934995 
L 364.416017 330.469302 
L 366.743358 331.654002 
L 369.070699 334.881133 
L 371.398041 335.788507 
L 373.725382 335.168288 
L 376.052724 333.722561 
L 378.380065 331.209086 
L 380.707407 333.776682 
L 385.362089 334.776623 
L 390.016772 334.893077 
L 392.344114 332.807473 
L 394.671455 335.821726 
L 396.998797 336.781604 
L 399.326138 336.036719 
L 401.653479 334.53911 
L 406.308162 328.069296 
L 408.635504 325.219895 
L 410.962845 323.773049 
L 413.290187 327.517631 
L 415.617528 320.732046 
L 417.944869 310.330527 
L 420.272211 315.922951 
L 422.599552 307.097299 
L 424.926894 311.127418 
L 427.254235 317.497947 
L 429.581577 320.215342 
L 431.908918 301.968079 
L 434.236259 285.698552 
L 436.563601 295.991081 
L 438.890942 281.721185 
L 441.218284 288.517594 
L 443.545625 307.108248 
L 445.872967 313.083255 
L 448.200308 312.133953 
L 450.527649 317.793687 
L 452.854991 312.815136 
L 457.509674 325.007391 
L 459.837015 328.712035 
L 462.164357 324.267358 
L 464.491698 324.292739 
L 466.819039 325.684469 
L 469.146381 329.413747 
L 471.473722 326.607271 
L 473.801064 325.1975 
L 476.128405 326.725591 
L 478.455747 333.415002 
L 480.783088 336.694761 
L 483.110429 331.932447 
L 485.437771 322.099763 
L 487.765112 318.959351 
L 490.092454 318.561092 
L 492.419795 318.955494 
L 494.747137 320.022744 
L 497.074478 318.78019 
L 499.401819 323.797061 
L 501.729161 324.547421 
L 504.056502 324.331557 
L 506.383844 322.719858 
L 508.711185 323.591027 
L 511.038527 326.376477 
L 513.365868 328.534367 
L 515.693209 328.723855 
L 518.020551 327.313089 
L 520.347892 320.753072 
L 522.675234 324.396379 
L 525.002575 330.396145 
L 527.329917 335.757029 
L 529.657258 335.97252 
L 531.984599 334.492703 
L 534.311941 336.085988 
L 536.639282 337.873613 
L 538.966624 340.844196 
L 541.293965 344.496336 
L 543.621307 346.133914 
L 545.948648 347.370993 
L 548.275989 348.770561 
L 550.603331 349.354326 
L 792.646839 349.354326 
L 792.646839 349.354326 
" clip-path="url(#pee37e32011)" style="fill: none; stroke: #2b9eb3; stroke-opacity: 0.8; stroke-width: 2.5; stroke-linecap: round"/>
   </g>
   <g id="line2d_31">
    <path d="M 124.699849 349.354326 
L 336.487919 349.325835 
L 338.815261 345.079852 
L 341.142602 342.259814 
L 343.469944 342.139005 
L 345.797285 340.278347 
L 350.451968 337.637221 
L 352.779309 338.754486 
L 355.106651 340.333588 
L 357.433992 338.565746 
L 359.761334 336.544341 
L 362.088675 335.855817 
L 364.416017 335.414136 
L 366.743358 338.2287 
L 369.070699 338.361328 
L 371.398041 336.272365 
L 373.725382 334.667633 
L 376.052724 335.98322 
L 378.380065 333.733012 
L 380.707407 330.606907 
L 383.034748 325.903319 
L 385.362089 315.407864 
L 387.689431 309.119575 
L 390.016772 305.289767 
L 392.344114 300.115135 
L 394.671455 298.324898 
L 396.998797 298.555691 
L 399.326138 287.236347 
L 401.653479 263.689787 
L 403.980821 250.327762 
L 406.308162 260.367228 
L 408.635504 261.840326 
L 410.962845 239.575014 
L 413.290187 265.793805 
L 415.617528 228.056851 
L 417.944869 244.257576 
L 420.272211 198.868348 
L 422.599552 161.229684 
L 424.926894 166.57315 
L 427.254235 209.619479 
L 429.581577 235.657492 
L 431.908918 291.726312 
L 434.236259 280.001243 
L 436.563601 290.406619 
L 438.890942 300.225493 
L 441.218284 303.596451 
L 443.545625 302.148484 
L 445.872967 308.28822 
L 448.200308 317.866844 
L 450.527649 311.727606 
L 452.854991 309.365672 
L 455.182332 313.95517 
L 457.509674 320.9927 
L 459.837015 326.008202 
L 462.164357 329.71409 
L 464.491698 331.866755 
L 466.819039 338.772402 
L 469.146381 340.111504 
L 471.473722 338.636041 
L 473.801064 334.5946 
L 476.128405 338.10901 
L 478.455747 340.078658 
L 480.783088 339.358656 
L 483.110429 339.310258 
L 485.437771 333.395593 
L 487.765112 333.210336 
L 490.092454 335.86353 
L 492.419795 337.650409 
L 494.747137 341.677293 
L 499.401819 342.220747 
L 501.729161 343.721839 
L 504.056502 339.104472 
L 506.383844 337.389382 
L 508.711185 341.621679 
L 511.038527 343.2554 
L 513.365868 343.892664 
L 515.693209 344.166133 
L 518.020551 342.652226 
L 520.347892 342.419317 
L 522.675234 344.21167 
L 525.002575 346.15183 
L 527.329917 346.756746 
L 529.657258 345.826355 
L 531.984599 345.029588 
L 534.311941 345.069401 
L 536.639282 347.411429 
L 538.966624 348.471836 
L 541.293965 349.110967 
L 543.621307 349.354326 
L 792.646839 349.354326 
L 792.646839 349.354326 
" clip-path="url(#pee37e32011)" style="fill: none; stroke: #f8333c; stroke-opacity: 0.8; stroke-width: 2.5; stroke-linecap: round"/>
   </g>
   <g id="patch_3">
    <path d="M 91.3025 364.961675 
L 91.3025 21.6 
" style="fill: none; stroke: #000000; stroke-width: 1.5; stroke-linejoin: miter; stroke-linecap: square"/>
   </g>
   <g id="patch_4">
    <path d="M 91.3025 364.961675 
L 826.044189 364.961675 
" style="fill: none; stroke: #000000; stroke-width: 1.5; stroke-linejoin: miter; stroke-linecap: square"/>
   </g>
   <g id="legend_1">
    <g id="patch_5">
     <path d="M 638.026845 48.8 
L 672.026845 48.8 
L 672.026845 36.9 
L 638.026845 36.9 
z
" style="fill: #f8333c; opacity: 0.8; stroke: #f8333c; stroke-linejoin: miter"/>
    </g>
    <g id="text_29">
     <!-- February 15, 2020 -->
     <g style="fill: #262626" transform="translate(685.626845 48.8)scale(0.17 -0.17)">
      <defs>
       <path id="TimesNewRomanPSMT-46" d="M 1309 4006 
L 1309 2341 
L 2081 2341 
Q 2347 2341 2470 2458 
Q 2594 2575 2634 2922 
L 2750 2922 
L 2750 1488 
L 2634 1488 
Q 2631 1734 2570 1850 
Q 2509 1966 2401 2023 
Q 2294 2081 2081 2081 
L 1309 2081 
L 1309 750 
Q 1309 428 1350 325 
Q 1381 247 1481 191 
Q 1619 116 1769 116 
L 1922 116 
L 1922 0 
L 103 0 
L 103 116 
L 253 116 
Q 516 116 634 269 
Q 709 369 709 750 
L 709 3488 
Q 709 3809 669 3913 
Q 638 3991 541 4047 
Q 406 4122 253 4122 
L 103 4122 
L 103 4238 
L 3256 4238 
L 3297 3306 
L 3188 3306 
Q 3106 3603 2998 3742 
Q 2891 3881 2733 3943 
Q 2575 4006 2244 4006 
L 1309 4006 
z
" transform="scale(0.015625)"/>
       <path id="TimesNewRomanPSMT-62" d="M 984 2369 
Q 1400 2947 1881 2947 
Q 2322 2947 2650 2570 
Q 2978 2194 2978 1541 
Q 2978 778 2472 313 
Q 2038 -88 1503 -88 
Q 1253 -88 995 3 
Q 738 94 469 275 
L 469 3241 
Q 469 3728 445 3840 
Q 422 3953 372 3993 
Q 322 4034 247 4034 
Q 159 4034 28 3984 
L -16 4094 
L 844 4444 
L 984 4444 
L 984 2369 
z
M 984 2169 
L 984 456 
Q 1144 300 1314 220 
Q 1484 141 1663 141 
Q 1947 141 2192 453 
Q 2438 766 2438 1363 
Q 2438 1913 2192 2208 
Q 1947 2503 1634 2503 
Q 1469 2503 1303 2419 
Q 1178 2356 984 2169 
z
" transform="scale(0.015625)"/>
       <path id="TimesNewRomanPSMT-75" d="M 2709 2863 
L 2709 1128 
Q 2709 631 2732 520 
Q 2756 409 2807 365 
Q 2859 322 2928 322 
Q 3025 322 3147 375 
L 3191 266 
L 2334 -88 
L 2194 -88 
L 2194 519 
Q 1825 119 1631 15 
Q 1438 -88 1222 -88 
Q 981 -88 804 51 
Q 628 191 559 409 
Q 491 628 491 1028 
L 491 2306 
Q 491 2509 447 2587 
Q 403 2666 317 2708 
Q 231 2750 6 2747 
L 6 2863 
L 1009 2863 
L 1009 947 
Q 1009 547 1148 422 
Q 1288 297 1484 297 
Q 1619 297 1789 381 
Q 1959 466 2194 703 
L 2194 2325 
Q 2194 2569 2105 2655 
Q 2016 2741 1734 2747 
L 1734 2863 
L 2709 2863 
z
" transform="scale(0.015625)"/>
       <path id="TimesNewRomanPSMT-79" d="M 38 2863 
L 1372 2863 
L 1372 2747 
L 1306 2747 
Q 1166 2747 1095 2686 
Q 1025 2625 1025 2534 
Q 1025 2413 1128 2197 
L 1825 753 
L 2466 2334 
Q 2519 2463 2519 2588 
Q 2519 2644 2497 2672 
Q 2472 2706 2419 2726 
Q 2366 2747 2231 2747 
L 2231 2863 
L 3163 2863 
L 3163 2747 
Q 3047 2734 2984 2696 
Q 2922 2659 2847 2556 
Q 2819 2513 2741 2316 
L 1575 -541 
Q 1406 -956 1132 -1168 
Q 859 -1381 606 -1381 
Q 422 -1381 303 -1275 
Q 184 -1169 184 -1031 
Q 184 -900 270 -820 
Q 356 -741 506 -741 
Q 609 -741 788 -809 
Q 913 -856 944 -856 
Q 1038 -856 1148 -759 
Q 1259 -663 1372 -384 
L 1575 113 
L 547 2272 
Q 500 2369 397 2513 
Q 319 2622 269 2659 
Q 197 2709 38 2747 
L 38 2863 
z
" transform="scale(0.015625)"/>
       <path id="TimesNewRomanPSMT-2c" d="M 344 -1066 
L 344 -928 
Q 666 -822 842 -598 
Q 1019 -375 1019 -125 
Q 1019 -66 991 -25 
Q 969 3 947 3 
Q 913 3 797 -59 
Q 741 -88 678 -88 
Q 525 -88 434 3 
Q 344 94 344 253 
Q 344 406 461 515 
Q 578 625 747 625 
Q 953 625 1114 445 
Q 1275 266 1275 -31 
Q 1275 -353 1051 -629 
Q 828 -906 344 -1066 
z
" transform="scale(0.015625)"/>
      </defs>
      <use xlink:href="#TimesNewRomanPSMT-46"/>
      <use xlink:href="#TimesNewRomanPSMT-65" x="55.615234"/>
      <use xlink:href="#TimesNewRomanPSMT-62" x="100"/>
      <use xlink:href="#TimesNewRomanPSMT-72" x="150"/>
      <use xlink:href="#TimesNewRomanPSMT-75" x="183.300781"/>
      <use xlink:href="#TimesNewRomanPSMT-61" x="233.300781"/>
      <use xlink:href="#TimesNewRomanPSMT-72" x="277.685547"/>
      <use xlink:href="#TimesNewRomanPSMT-79" x="310.986328"/>
      <use xlink:href="#TimesNewRomanPSMT-20" x="360.986328"/>
      <use xlink:href="#TimesNewRomanPSMT-31" x="385.986328"/>
      <use xlink:href="#TimesNewRomanPSMT-35" x="435.986328"/>
      <use xlink:href="#TimesNewRomanPSMT-2c" x="485.986328"/>
      <use xlink:href="#TimesNewRomanPSMT-20" x="510.986328"/>
      <use xlink:href="#TimesNewRomanPSMT-32" x="535.986328"/>
      <use xlink:href="#TimesNewRomanPSMT-30" x="585.986328"/>
      <use xlink:href="#TimesNewRomanPSMT-32" x="635.986328"/>
      <use xlink:href="#TimesNewRomanPSMT-30" x="685.986328"/>
     </g>
    </g>
    <g id="patch_6">
     <path d="M 638.026845 72.868281 
L 672.026845 72.868281 
L 672.026845 60.968281 
L 638.026845 60.968281 
z
" style="fill: #44af69; opacity: 0.8; stroke: #44af69; stroke-linejoin: miter"/>
    </g>
    <g id="text_30">
     <!-- March 15, 2020 -->
     <g style="fill: #262626" transform="translate(685.626845 72.868281)scale(0.17 -0.17)">
      <defs>
       <path id="TimesNewRomanPSMT-4d" d="M 2619 0 
L 981 3566 
L 981 734 
Q 981 344 1066 247 
Q 1181 116 1431 116 
L 1581 116 
L 1581 0 
L 106 0 
L 106 116 
L 256 116 
Q 525 116 638 278 
Q 706 378 706 734 
L 706 3503 
Q 706 3784 644 3909 
Q 600 4000 483 4061 
Q 366 4122 106 4122 
L 106 4238 
L 1306 4238 
L 2844 922 
L 4356 4238 
L 5556 4238 
L 5556 4122 
L 5409 4122 
Q 5138 4122 5025 3959 
Q 4956 3859 4956 3503 
L 4956 734 
Q 4956 344 5044 247 
Q 5159 116 5409 116 
L 5556 116 
L 5556 0 
L 3756 0 
L 3756 116 
L 3906 116 
Q 4178 116 4288 278 
Q 4356 378 4356 734 
L 4356 3566 
L 2722 0 
L 2619 0 
z
" transform="scale(0.015625)"/>
       <path id="TimesNewRomanPSMT-63" d="M 2631 1088 
Q 2516 522 2178 217 
Q 1841 -88 1431 -88 
Q 944 -88 581 321 
Q 219 731 219 1428 
Q 219 2103 620 2525 
Q 1022 2947 1584 2947 
Q 2006 2947 2278 2723 
Q 2550 2500 2550 2259 
Q 2550 2141 2473 2067 
Q 2397 1994 2259 1994 
Q 2075 1994 1981 2113 
Q 1928 2178 1911 2362 
Q 1894 2547 1784 2644 
Q 1675 2738 1481 2738 
Q 1169 2738 978 2506 
Q 725 2200 725 1697 
Q 725 1184 976 792 
Q 1228 400 1656 400 
Q 1963 400 2206 609 
Q 2378 753 2541 1131 
L 2631 1088 
z
" transform="scale(0.015625)"/>
       <path id="TimesNewRomanPSMT-68" d="M 1041 4444 
L 1041 2350 
Q 1388 2731 1591 2839 
Q 1794 2947 1997 2947 
Q 2241 2947 2416 2812 
Q 2591 2678 2675 2391 
Q 2734 2191 2734 1659 
L 2734 647 
Q 2734 375 2778 275 
Q 2809 200 2884 156 
Q 2959 113 3159 113 
L 3159 0 
L 1753 0 
L 1753 113 
L 1819 113 
Q 2019 113 2097 173 
Q 2175 234 2206 353 
Q 2216 403 2216 647 
L 2216 1659 
Q 2216 2128 2167 2275 
Q 2119 2422 2012 2495 
Q 1906 2569 1756 2569 
Q 1603 2569 1437 2487 
Q 1272 2406 1041 2159 
L 1041 647 
Q 1041 353 1073 281 
Q 1106 209 1195 161 
Q 1284 113 1503 113 
L 1503 0 
L 84 0 
L 84 113 
Q 275 113 384 172 
Q 447 203 484 290 
Q 522 378 522 647 
L 522 3238 
Q 522 3728 498 3840 
Q 475 3953 426 3993 
Q 378 4034 297 4034 
Q 231 4034 84 3984 
L 41 4094 
L 897 4444 
L 1041 4444 
z
" transform="scale(0.015625)"/>
      </defs>
      <use xlink:href="#TimesNewRomanPSMT-4d"/>
      <use xlink:href="#TimesNewRomanPSMT-61" x="88.916016"/>
      <use xlink:href="#TimesNewRomanPSMT-72" x="133.300781"/>
      <use xlink:href="#TimesNewRomanPSMT-63" x="166.601562"/>
      <use xlink:href="#TimesNewRomanPSMT-68" x="210.986328"/>
      <use xlink:href="#TimesNewRomanPSMT-20" x="260.986328"/>
      <use xlink:href="#TimesNewRomanPSMT-31" x="285.986328"/>
      <use xlink:href="#TimesNewRomanPSMT-35" x="335.986328"/>
      <use xlink:href="#TimesNewRomanPSMT-2c" x="385.986328"/>
      <use xlink:href="#TimesNewRomanPSMT-20" x="410.986328"/>
      <use xlink:href="#TimesNewRomanPSMT-32" x="435.986328"/>
      <use xlink:href="#TimesNewRomanPSMT-30" x="485.986328"/>
      <use xlink:href="#TimesNewRomanPSMT-32" x="535.986328"/>
      <use xlink:href="#TimesNewRomanPSMT-30" x="585.986328"/>
     </g>
    </g>
    <g id="patch_7">
     <path d="M 638.026845 96.904688 
L 672.026845 96.904688 
L 672.026845 85.004688 
L 638.026845 85.004688 
z
" style="fill: #fc8e0f; opacity: 0.8; stroke: #fc8e0f; stroke-linejoin: miter"/>
    </g>
    <g id="text_31">
     <!-- June 15, 2020 -->
     <g style="fill: #262626" transform="translate(685.626845 96.904688)scale(0.17 -0.17)">
      <defs>
       <path id="TimesNewRomanPSMT-4a" d="M 638 4122 
L 638 4238 
L 2453 4238 
L 2453 4122 
L 2300 4122 
Q 2041 4122 1922 3969 
Q 1847 3869 1847 3488 
L 1847 1416 
Q 1847 938 1742 641 
Q 1638 344 1381 123 
Q 1125 -97 763 -97 
Q 469 -97 300 48 
Q 131 194 131 381 
Q 131 534 209 613 
Q 313 709 450 709 
Q 550 709 629 643 
Q 709 578 831 294 
Q 903 125 1016 125 
Q 1100 125 1173 228 
Q 1247 331 1247 594 
L 1247 3488 
Q 1247 3809 1206 3913 
Q 1175 3991 1075 4047 
Q 941 4122 791 4122 
L 638 4122 
z
" transform="scale(0.015625)"/>
      </defs>
      <use xlink:href="#TimesNewRomanPSMT-4a"/>
      <use xlink:href="#TimesNewRomanPSMT-75" x="38.916016"/>
      <use xlink:href="#TimesNewRomanPSMT-6e" x="88.916016"/>
      <use xlink:href="#TimesNewRomanPSMT-65" x="138.916016"/>
      <use xlink:href="#TimesNewRomanPSMT-20" x="183.300781"/>
      <use xlink:href="#TimesNewRomanPSMT-31" x="208.300781"/>
      <use xlink:href="#TimesNewRomanPSMT-35" x="258.300781"/>
      <use xlink:href="#TimesNewRomanPSMT-2c" x="308.300781"/>
      <use xlink:href="#TimesNewRomanPSMT-20" x="333.300781"/>
      <use xlink:href="#TimesNewRomanPSMT-32" x="358.300781"/>
      <use xlink:href="#TimesNewRomanPSMT-30" x="408.300781"/>
      <use xlink:href="#TimesNewRomanPSMT-32" x="458.300781"/>
      <use xlink:href="#TimesNewRomanPSMT-30" x="508.300781"/>
     </g>
    </g>
    <g id="patch_8">
     <path d="M 638.026845 120.941094 
L 672.026845 120.941094 
L 672.026845 109.041094 
L 638.026845 109.041094 
z
" style="fill: #2b9eb3; opacity: 0.8; stroke: #2b9eb3; stroke-linejoin: miter"/>
    </g>
    <g id="text_32">
     <!-- October 15, 2020 -->
     <g style="fill: #262626" transform="translate(685.626845 120.941094)scale(0.17 -0.17)">
      <defs>
       <path id="TimesNewRomanPSMT-4f" d="M 2341 4334 
Q 3166 4334 3770 3707 
Q 4375 3081 4375 2144 
Q 4375 1178 3765 540 
Q 3156 -97 2291 -97 
Q 1416 -97 820 525 
Q 225 1147 225 2134 
Q 225 3144 913 3781 
Q 1509 4334 2341 4334 
z
M 2281 4106 
Q 1713 4106 1369 3684 
Q 941 3159 941 2147 
Q 941 1109 1384 550 
Q 1725 125 2284 125 
Q 2881 125 3270 590 
Q 3659 1056 3659 2059 
Q 3659 3147 3231 3681 
Q 2888 4106 2281 4106 
z
" transform="scale(0.015625)"/>
      </defs>
      <use xlink:href="#TimesNewRomanPSMT-4f"/>
      <use xlink:href="#TimesNewRomanPSMT-63" x="72.216797"/>
      <use xlink:href="#TimesNewRomanPSMT-74" x="116.601562"/>
      <use xlink:href="#TimesNewRomanPSMT-6f" x="144.384766"/>
      <use xlink:href="#TimesNewRomanPSMT-62" x="194.384766"/>
      <use xlink:href="#TimesNewRomanPSMT-65" x="244.384766"/>
      <use xlink:href="#TimesNewRomanPSMT-72" x="288.769531"/>
      <use xlink:href="#TimesNewRomanPSMT-20" x="322.070312"/>
      <use xlink:href="#TimesNewRomanPSMT-31" x="347.070312"/>
      <use xlink:href="#TimesNewRomanPSMT-35" x="397.070312"/>
      <use xlink:href="#TimesNewRomanPSMT-2c" x="447.070312"/>
      <use xlink:href="#TimesNewRomanPSMT-20" x="472.070312"/>
      <use xlink:href="#TimesNewRomanPSMT-32" x="497.070312"/>
      <use xlink:href="#TimesNewRomanPSMT-30" x="547.070312"/>
      <use xlink:href="#TimesNewRomanPSMT-32" x="597.070312"/>
      <use xlink:href="#TimesNewRomanPSMT-30" x="647.070312"/>
     </g>
    </g>
   </g>
  </g>
 </g>
 <defs>
  <clipPath id="pee37e32011">
   <rect x="91.3025" y="21.6" width="734.741689" height="343.361675"/>
  </clipPath>
 </defs>
</svg>
