<?xml version="1.0" encoding="utf-8" standalone="no"?>
<!DOCTYPE svg PUBLIC "-//W3C//DTD SVG 1.1//EN"
  "http://www.w3.org/Graphics/SVG/1.1/DTD/svg11.dtd">
<svg xmlns:xlink="http://www.w3.org/1999/xlink" width="864pt" height="432pt" viewBox="0 0 864 432" xmlns="http://www.w3.org/2000/svg" version="1.1">
 <metadata>
  <rdf:RDF xmlns:dc="http://purl.org/dc/elements/1.1/" xmlns:cc="http://creativecommons.org/ns#" xmlns:rdf="http://www.w3.org/1999/02/22-rdf-syntax-ns#">
   <cc:Work>
    <dc:type rdf:resource="http://purl.org/dc/dcmitype/StillImage"/>
    <dc:date>2023-07-11T18:49:37.762823</dc:date>
    <dc:format>image/svg+xml</dc:format>
    <dc:creator>
     <cc:Agent>
      <dc:title>Matplotlib v3.5.3, https://matplotlib.org/</dc:title>
     </cc:Agent>
    </dc:creator>
   </cc:Work>
  </rdf:RDF>
 </metadata>
 <defs>
  <style type="text/css">*{stroke-linejoin: round; stroke-linecap: butt}</style>
 </defs>
 <g id="figure_1">
  <g id="patch_1">
   <path d="M 0 432 
L 864 432 
L 864 0 
L 0 0 
z
" style="fill: #ffffff"/>
  </g>
  <g id="axes_1">
   <g id="patch_2">
    <path d="M 131.29 391.16 
L 844.56 391.16 
L 844.56 19.44 
L 131.29 19.44 
z
" style="fill: #ffffff"/>
   </g>
   <g id="matplotlib.axis_1">
    <g id="xtick_1">
     <g id="line2d_1">
      <path d="M 164.878998 391.16 
L 164.878998 19.44 
" clip-path="url(#p3182b4f49a)" style="fill: none; stroke: #cccccc; stroke-width: 0.8; stroke-linecap: round"/>
     </g>
     <g id="text_1">
      <!-- 0.000 -->
      <g style="fill: #262626" transform="translate(146.878998 409.27)scale(0.16 -0.16)">
       <defs>
        <path id="TimesNewRomanPSMT-30" d="M 231 2094 
Q 231 2819 450 3342 
Q 669 3866 1031 4122 
Q 1313 4325 1613 4325 
Q 2100 4325 2488 3828 
Q 2972 3213 2972 2159 
Q 2972 1422 2759 906 
Q 2547 391 2217 158 
Q 1888 -75 1581 -75 
Q 975 -75 572 641 
Q 231 1244 231 2094 
z
M 844 2016 
Q 844 1141 1059 588 
Q 1238 122 1591 122 
Q 1759 122 1940 273 
Q 2122 425 2216 781 
Q 2359 1319 2359 2297 
Q 2359 3022 2209 3506 
Q 2097 3866 1919 4016 
Q 1791 4119 1609 4119 
Q 1397 4119 1231 3928 
Q 1006 3669 925 3112 
Q 844 2556 844 2016 
z
" transform="scale(0.015625)"/>
        <path id="TimesNewRomanPSMT-2e" d="M 800 606 
Q 947 606 1047 504 
Q 1147 403 1147 259 
Q 1147 116 1045 14 
Q 944 -88 800 -88 
Q 656 -88 554 14 
Q 453 116 453 259 
Q 453 406 554 506 
Q 656 606 800 606 
z
" transform="scale(0.015625)"/>
       </defs>
       <use xlink:href="#TimesNewRomanPSMT-30"/>
       <use xlink:href="#TimesNewRomanPSMT-2e" x="50"/>
       <use xlink:href="#TimesNewRomanPSMT-30" x="75"/>
       <use xlink:href="#TimesNewRomanPSMT-30" x="125"/>
       <use xlink:href="#TimesNewRomanPSMT-30" x="175"/>
      </g>
     </g>
    </g>
    <g id="xtick_2">
     <g id="line2d_2">
      <path d="M 289.365927 391.16 
L 289.365927 19.44 
" clip-path="url(#p3182b4f49a)" style="fill: none; stroke: #cccccc; stroke-width: 0.8; stroke-linecap: round"/>
     </g>
     <g id="text_2">
      <!-- 0.005 -->
      <g style="fill: #262626" transform="translate(271.365927 409.27)scale(0.16 -0.16)">
       <defs>
        <path id="TimesNewRomanPSMT-35" d="M 2778 4238 
L 2534 3706 
L 1259 3706 
L 981 3138 
Q 1809 3016 2294 2522 
Q 2709 2097 2709 1522 
Q 2709 1188 2573 903 
Q 2438 619 2231 419 
Q 2025 219 1772 97 
Q 1413 -75 1034 -75 
Q 653 -75 479 54 
Q 306 184 306 341 
Q 306 428 378 495 
Q 450 563 559 563 
Q 641 563 702 538 
Q 763 513 909 409 
Q 1144 247 1384 247 
Q 1750 247 2026 523 
Q 2303 800 2303 1197 
Q 2303 1581 2056 1914 
Q 1809 2247 1375 2428 
Q 1034 2569 447 2591 
L 1259 4238 
L 2778 4238 
z
" transform="scale(0.015625)"/>
       </defs>
       <use xlink:href="#TimesNewRomanPSMT-30"/>
       <use xlink:href="#TimesNewRomanPSMT-2e" x="50"/>
       <use xlink:href="#TimesNewRomanPSMT-30" x="75"/>
       <use xlink:href="#TimesNewRomanPSMT-30" x="125"/>
       <use xlink:href="#TimesNewRomanPSMT-35" x="175"/>
      </g>
     </g>
    </g>
    <g id="xtick_3">
     <g id="line2d_3">
      <path d="M 413.852856 391.16 
L 413.852856 19.44 
" clip-path="url(#p3182b4f49a)" style="fill: none; stroke: #cccccc; stroke-width: 0.8; stroke-linecap: round"/>
     </g>
     <g id="text_3">
      <!-- 0.010 -->
      <g style="fill: #262626" transform="translate(395.852856 409.27)scale(0.16 -0.16)">
       <defs>
        <path id="TimesNewRomanPSMT-31" d="M 750 3822 
L 1781 4325 
L 1884 4325 
L 1884 747 
Q 1884 391 1914 303 
Q 1944 216 2037 169 
Q 2131 122 2419 116 
L 2419 0 
L 825 0 
L 825 116 
Q 1125 122 1212 167 
Q 1300 213 1334 289 
Q 1369 366 1369 747 
L 1369 3034 
Q 1369 3497 1338 3628 
Q 1316 3728 1258 3775 
Q 1200 3822 1119 3822 
Q 1003 3822 797 3725 
L 750 3822 
z
" transform="scale(0.015625)"/>
       </defs>
       <use xlink:href="#TimesNewRomanPSMT-30"/>
       <use xlink:href="#TimesNewRomanPSMT-2e" x="50"/>
       <use xlink:href="#TimesNewRomanPSMT-30" x="75"/>
       <use xlink:href="#TimesNewRomanPSMT-31" x="125"/>
       <use xlink:href="#TimesNewRomanPSMT-30" x="175"/>
      </g>
     </g>
    </g>
    <g id="xtick_4">
     <g id="line2d_4">
      <path d="M 538.339785 391.16 
L 538.339785 19.44 
" clip-path="url(#p3182b4f49a)" style="fill: none; stroke: #cccccc; stroke-width: 0.8; stroke-linecap: round"/>
     </g>
     <g id="text_4">
      <!-- 0.015 -->
      <g style="fill: #262626" transform="translate(520.339785 409.27)scale(0.16 -0.16)">
       <use xlink:href="#TimesNewRomanPSMT-30"/>
       <use xlink:href="#TimesNewRomanPSMT-2e" x="50"/>
       <use xlink:href="#TimesNewRomanPSMT-30" x="75"/>
       <use xlink:href="#TimesNewRomanPSMT-31" x="125"/>
       <use xlink:href="#TimesNewRomanPSMT-35" x="175"/>
      </g>
     </g>
    </g>
    <g id="xtick_5">
     <g id="line2d_5">
      <path d="M 662.826714 391.16 
L 662.826714 19.44 
" clip-path="url(#p3182b4f49a)" style="fill: none; stroke: #cccccc; stroke-width: 0.8; stroke-linecap: round"/>
     </g>
     <g id="text_5">
      <!-- 0.020 -->
      <g style="fill: #262626" transform="translate(644.826714 409.27)scale(0.16 -0.16)">
       <defs>
        <path id="TimesNewRomanPSMT-32" d="M 2934 816 
L 2638 0 
L 138 0 
L 138 116 
Q 1241 1122 1691 1759 
Q 2141 2397 2141 2925 
Q 2141 3328 1894 3587 
Q 1647 3847 1303 3847 
Q 991 3847 742 3664 
Q 494 3481 375 3128 
L 259 3128 
Q 338 3706 661 4015 
Q 984 4325 1469 4325 
Q 1984 4325 2329 3994 
Q 2675 3663 2675 3213 
Q 2675 2891 2525 2569 
Q 2294 2063 1775 1497 
Q 997 647 803 472 
L 1909 472 
Q 2247 472 2383 497 
Q 2519 522 2628 598 
Q 2738 675 2819 816 
L 2934 816 
z
" transform="scale(0.015625)"/>
       </defs>
       <use xlink:href="#TimesNewRomanPSMT-30"/>
       <use xlink:href="#TimesNewRomanPSMT-2e" x="50"/>
       <use xlink:href="#TimesNewRomanPSMT-30" x="75"/>
       <use xlink:href="#TimesNewRomanPSMT-32" x="125"/>
       <use xlink:href="#TimesNewRomanPSMT-30" x="175"/>
      </g>
     </g>
    </g>
    <g id="xtick_6">
     <g id="line2d_6">
      <path d="M 787.313643 391.16 
L 787.313643 19.44 
" clip-path="url(#p3182b4f49a)" style="fill: none; stroke: #cccccc; stroke-width: 0.8; stroke-linecap: round"/>
     </g>
     <g id="text_6">
      <!-- 0.025 -->
      <g style="fill: #262626" transform="translate(769.313643 409.27)scale(0.16 -0.16)">
       <use xlink:href="#TimesNewRomanPSMT-30"/>
       <use xlink:href="#TimesNewRomanPSMT-2e" x="50"/>
       <use xlink:href="#TimesNewRomanPSMT-30" x="75"/>
       <use xlink:href="#TimesNewRomanPSMT-32" x="125"/>
       <use xlink:href="#TimesNewRomanPSMT-35" x="175"/>
      </g>
     </g>
    </g>
   </g>
   <g id="matplotlib.axis_2">
    <g id="ytick_1">
     <g id="line2d_7">
      <path d="M 131.29 375.671667 
L 844.56 375.671667 
" clip-path="url(#p3182b4f49a)" style="fill: none; stroke: #cccccc; stroke-width: 0.8; stroke-linecap: round"/>
     </g>
     <g id="text_7">
      <!-- snowfall -->
      <g style="fill: #262626" transform="translate(69.1875 381.226667)scale(0.16 -0.16)">
       <defs>
        <path id="TimesNewRomanPSMT-73" d="M 2050 2947 
L 2050 1972 
L 1947 1972 
Q 1828 2431 1642 2597 
Q 1456 2763 1169 2763 
Q 950 2763 815 2647 
Q 681 2531 681 2391 
Q 681 2216 781 2091 
Q 878 1963 1175 1819 
L 1631 1597 
Q 2266 1288 2266 781 
Q 2266 391 1970 151 
Q 1675 -88 1309 -88 
Q 1047 -88 709 6 
Q 606 38 541 38 
Q 469 38 428 -44 
L 325 -44 
L 325 978 
L 428 978 
Q 516 541 762 319 
Q 1009 97 1316 97 
Q 1531 97 1667 223 
Q 1803 350 1803 528 
Q 1803 744 1651 891 
Q 1500 1038 1047 1263 
Q 594 1488 453 1669 
Q 313 1847 313 2119 
Q 313 2472 555 2709 
Q 797 2947 1181 2947 
Q 1350 2947 1591 2875 
Q 1750 2828 1803 2828 
Q 1853 2828 1881 2850 
Q 1909 2872 1947 2947 
L 2050 2947 
z
" transform="scale(0.015625)"/>
        <path id="TimesNewRomanPSMT-6e" d="M 1034 2341 
Q 1538 2947 1994 2947 
Q 2228 2947 2397 2830 
Q 2566 2713 2666 2444 
Q 2734 2256 2734 1869 
L 2734 647 
Q 2734 375 2778 278 
Q 2813 200 2889 156 
Q 2966 113 3172 113 
L 3172 0 
L 1756 0 
L 1756 113 
L 1816 113 
Q 2016 113 2095 173 
Q 2175 234 2206 353 
Q 2219 400 2219 647 
L 2219 1819 
Q 2219 2209 2117 2386 
Q 2016 2563 1775 2563 
Q 1403 2563 1034 2156 
L 1034 647 
Q 1034 356 1069 288 
Q 1113 197 1189 155 
Q 1266 113 1500 113 
L 1500 0 
L 84 0 
L 84 113 
L 147 113 
Q 366 113 442 223 
Q 519 334 519 647 
L 519 1709 
Q 519 2225 495 2337 
Q 472 2450 423 2490 
Q 375 2531 294 2531 
Q 206 2531 84 2484 
L 38 2597 
L 900 2947 
L 1034 2947 
L 1034 2341 
z
" transform="scale(0.015625)"/>
        <path id="TimesNewRomanPSMT-6f" d="M 1600 2947 
Q 2250 2947 2644 2453 
Q 2978 2031 2978 1484 
Q 2978 1100 2793 706 
Q 2609 313 2286 112 
Q 1963 -88 1566 -88 
Q 919 -88 538 428 
Q 216 863 216 1403 
Q 216 1797 411 2186 
Q 606 2575 925 2761 
Q 1244 2947 1600 2947 
z
M 1503 2744 
Q 1338 2744 1170 2645 
Q 1003 2547 900 2300 
Q 797 2053 797 1666 
Q 797 1041 1045 587 
Q 1294 134 1700 134 
Q 2003 134 2200 384 
Q 2397 634 2397 1244 
Q 2397 2006 2069 2444 
Q 1847 2744 1503 2744 
z
" transform="scale(0.015625)"/>
        <path id="TimesNewRomanPSMT-77" d="M 41 2863 
L 1241 2863 
L 1241 2747 
Q 1075 2734 1023 2687 
Q 972 2641 972 2553 
Q 972 2456 1025 2319 
L 1638 672 
L 2253 2013 
L 2091 2434 
Q 2016 2622 1894 2694 
Q 1825 2738 1638 2747 
L 1638 2863 
L 3000 2863 
L 3000 2747 
Q 2775 2738 2681 2666 
Q 2619 2616 2619 2506 
Q 2619 2444 2644 2378 
L 3294 734 
L 3897 2319 
Q 3959 2488 3959 2588 
Q 3959 2647 3898 2694 
Q 3838 2741 3659 2747 
L 3659 2863 
L 4563 2863 
L 4563 2747 
Q 4291 2706 4163 2378 
L 3206 -88 
L 3078 -88 
L 2363 1741 
L 1528 -88 
L 1413 -88 
L 494 2319 
Q 403 2547 315 2626 
Q 228 2706 41 2747 
L 41 2863 
z
" transform="scale(0.015625)"/>
        <path id="TimesNewRomanPSMT-66" d="M 1319 2638 
L 1319 756 
Q 1319 356 1406 250 
Q 1522 113 1716 113 
L 1975 113 
L 1975 0 
L 266 0 
L 266 113 
L 394 113 
Q 519 113 622 175 
Q 725 238 764 344 
Q 803 450 803 756 
L 803 2638 
L 247 2638 
L 247 2863 
L 803 2863 
L 803 3050 
Q 803 3478 940 3775 
Q 1078 4072 1361 4255 
Q 1644 4438 1997 4438 
Q 2325 4438 2600 4225 
Q 2781 4084 2781 3909 
Q 2781 3816 2700 3733 
Q 2619 3650 2525 3650 
Q 2453 3650 2373 3701 
Q 2294 3753 2178 3923 
Q 2063 4094 1966 4153 
Q 1869 4213 1750 4213 
Q 1606 4213 1506 4136 
Q 1406 4059 1362 3898 
Q 1319 3738 1319 3069 
L 1319 2863 
L 2056 2863 
L 2056 2638 
L 1319 2638 
z
" transform="scale(0.015625)"/>
        <path id="TimesNewRomanPSMT-61" d="M 1822 413 
Q 1381 72 1269 19 
Q 1100 -59 909 -59 
Q 613 -59 420 144 
Q 228 347 228 678 
Q 228 888 322 1041 
Q 450 1253 767 1440 
Q 1084 1628 1822 1897 
L 1822 2009 
Q 1822 2438 1686 2597 
Q 1550 2756 1291 2756 
Q 1094 2756 978 2650 
Q 859 2544 859 2406 
L 866 2225 
Q 866 2081 792 2003 
Q 719 1925 600 1925 
Q 484 1925 411 2006 
Q 338 2088 338 2228 
Q 338 2497 613 2722 
Q 888 2947 1384 2947 
Q 1766 2947 2009 2819 
Q 2194 2722 2281 2516 
Q 2338 2381 2338 1966 
L 2338 994 
Q 2338 584 2353 492 
Q 2369 400 2405 369 
Q 2441 338 2488 338 
Q 2538 338 2575 359 
Q 2641 400 2828 588 
L 2828 413 
Q 2478 -56 2159 -56 
Q 2006 -56 1915 50 
Q 1825 156 1822 413 
z
M 1822 616 
L 1822 1706 
Q 1350 1519 1213 1441 
Q 966 1303 859 1153 
Q 753 1003 753 825 
Q 753 600 887 451 
Q 1022 303 1197 303 
Q 1434 303 1822 616 
z
" transform="scale(0.015625)"/>
        <path id="TimesNewRomanPSMT-6c" d="M 1184 4444 
L 1184 647 
Q 1184 378 1223 290 
Q 1263 203 1344 158 
Q 1425 113 1647 113 
L 1647 0 
L 244 0 
L 244 113 
Q 441 113 512 153 
Q 584 194 625 287 
Q 666 381 666 647 
L 666 3247 
Q 666 3731 644 3842 
Q 622 3953 573 3993 
Q 525 4034 450 4034 
Q 369 4034 244 3984 
L 191 4094 
L 1044 4444 
L 1184 4444 
z
" transform="scale(0.015625)"/>
       </defs>
       <use xlink:href="#TimesNewRomanPSMT-73"/>
       <use xlink:href="#TimesNewRomanPSMT-6e" x="38.916016"/>
       <use xlink:href="#TimesNewRomanPSMT-6f" x="88.916016"/>
       <use xlink:href="#TimesNewRomanPSMT-77" x="138.916016"/>
       <use xlink:href="#TimesNewRomanPSMT-66" x="211.132812"/>
       <use xlink:href="#TimesNewRomanPSMT-61" x="244.433594"/>
       <use xlink:href="#TimesNewRomanPSMT-6c" x="288.818359"/>
       <use xlink:href="#TimesNewRomanPSMT-6c" x="316.601562"/>
      </g>
     </g>
    </g>
    <g id="ytick_2">
     <g id="line2d_8">
      <path d="M 131.29 344.695 
L 844.56 344.695 
" clip-path="url(#p3182b4f49a)" style="fill: none; stroke: #cccccc; stroke-width: 0.8; stroke-linecap: round"/>
     </g>
     <g id="text_8">
      <!-- precipitation -->
      <g style="fill: #262626" transform="translate(43.43 350.25)scale(0.16 -0.16)">
       <defs>
        <path id="TimesNewRomanPSMT-70" d="M -6 2578 
L 875 2934 
L 994 2934 
L 994 2266 
Q 1216 2644 1439 2795 
Q 1663 2947 1909 2947 
Q 2341 2947 2628 2609 
Q 2981 2197 2981 1534 
Q 2981 794 2556 309 
Q 2206 -88 1675 -88 
Q 1444 -88 1275 -22 
Q 1150 25 994 166 
L 994 -706 
Q 994 -1000 1030 -1079 
Q 1066 -1159 1155 -1206 
Q 1244 -1253 1478 -1253 
L 1478 -1369 
L -22 -1369 
L -22 -1253 
L 56 -1253 
Q 228 -1256 350 -1188 
Q 409 -1153 442 -1076 
Q 475 -1000 475 -688 
L 475 2019 
Q 475 2297 450 2372 
Q 425 2447 370 2484 
Q 316 2522 222 2522 
Q 147 2522 31 2478 
L -6 2578 
z
M 994 2081 
L 994 1013 
Q 994 666 1022 556 
Q 1066 375 1236 237 
Q 1406 100 1666 100 
Q 1978 100 2172 344 
Q 2425 663 2425 1241 
Q 2425 1897 2138 2250 
Q 1938 2494 1663 2494 
Q 1513 2494 1366 2419 
Q 1253 2363 994 2081 
z
" transform="scale(0.015625)"/>
        <path id="TimesNewRomanPSMT-72" d="M 1038 2947 
L 1038 2303 
Q 1397 2947 1775 2947 
Q 1947 2947 2059 2842 
Q 2172 2738 2172 2600 
Q 2172 2478 2090 2393 
Q 2009 2309 1897 2309 
Q 1788 2309 1652 2417 
Q 1516 2525 1450 2525 
Q 1394 2525 1328 2463 
Q 1188 2334 1038 2041 
L 1038 669 
Q 1038 431 1097 309 
Q 1138 225 1241 169 
Q 1344 113 1538 113 
L 1538 0 
L 72 0 
L 72 113 
Q 291 113 397 181 
Q 475 231 506 341 
Q 522 394 522 644 
L 522 1753 
Q 522 2253 501 2348 
Q 481 2444 426 2487 
Q 372 2531 291 2531 
Q 194 2531 72 2484 
L 41 2597 
L 906 2947 
L 1038 2947 
z
" transform="scale(0.015625)"/>
        <path id="TimesNewRomanPSMT-65" d="M 681 1784 
Q 678 1147 991 784 
Q 1303 422 1725 422 
Q 2006 422 2214 576 
Q 2422 731 2563 1106 
L 2659 1044 
Q 2594 616 2278 264 
Q 1963 -88 1488 -88 
Q 972 -88 605 314 
Q 238 716 238 1394 
Q 238 2128 614 2539 
Q 991 2950 1559 2950 
Q 2041 2950 2350 2633 
Q 2659 2316 2659 1784 
L 681 1784 
z
M 681 1966 
L 2006 1966 
Q 1991 2241 1941 2353 
Q 1863 2528 1708 2628 
Q 1553 2728 1384 2728 
Q 1125 2728 920 2526 
Q 716 2325 681 1966 
z
" transform="scale(0.015625)"/>
        <path id="TimesNewRomanPSMT-63" d="M 2631 1088 
Q 2516 522 2178 217 
Q 1841 -88 1431 -88 
Q 944 -88 581 321 
Q 219 731 219 1428 
Q 219 2103 620 2525 
Q 1022 2947 1584 2947 
Q 2006 2947 2278 2723 
Q 2550 2500 2550 2259 
Q 2550 2141 2473 2067 
Q 2397 1994 2259 1994 
Q 2075 1994 1981 2113 
Q 1928 2178 1911 2362 
Q 1894 2547 1784 2644 
Q 1675 2738 1481 2738 
Q 1169 2738 978 2506 
Q 725 2200 725 1697 
Q 725 1184 976 792 
Q 1228 400 1656 400 
Q 1963 400 2206 609 
Q 2378 753 2541 1131 
L 2631 1088 
z
" transform="scale(0.015625)"/>
        <path id="TimesNewRomanPSMT-69" d="M 928 4444 
Q 1059 4444 1151 4351 
Q 1244 4259 1244 4128 
Q 1244 3997 1151 3903 
Q 1059 3809 928 3809 
Q 797 3809 703 3903 
Q 609 3997 609 4128 
Q 609 4259 701 4351 
Q 794 4444 928 4444 
z
M 1188 2947 
L 1188 647 
Q 1188 378 1227 289 
Q 1266 200 1342 156 
Q 1419 113 1622 113 
L 1622 0 
L 231 0 
L 231 113 
Q 441 113 512 153 
Q 584 194 626 287 
Q 669 381 669 647 
L 669 1750 
Q 669 2216 641 2353 
Q 619 2453 572 2492 
Q 525 2531 444 2531 
Q 356 2531 231 2484 
L 188 2597 
L 1050 2947 
L 1188 2947 
z
" transform="scale(0.015625)"/>
        <path id="TimesNewRomanPSMT-74" d="M 1031 3803 
L 1031 2863 
L 1700 2863 
L 1700 2644 
L 1031 2644 
L 1031 788 
Q 1031 509 1111 412 
Q 1191 316 1316 316 
Q 1419 316 1516 380 
Q 1613 444 1666 569 
L 1788 569 
Q 1678 263 1478 108 
Q 1278 -47 1066 -47 
Q 922 -47 784 33 
Q 647 113 581 261 
Q 516 409 516 719 
L 516 2644 
L 63 2644 
L 63 2747 
Q 234 2816 414 2980 
Q 594 3144 734 3369 
Q 806 3488 934 3803 
L 1031 3803 
z
" transform="scale(0.015625)"/>
       </defs>
       <use xlink:href="#TimesNewRomanPSMT-70"/>
       <use xlink:href="#TimesNewRomanPSMT-72" x="50"/>
       <use xlink:href="#TimesNewRomanPSMT-65" x="83.300781"/>
       <use xlink:href="#TimesNewRomanPSMT-63" x="127.685547"/>
       <use xlink:href="#TimesNewRomanPSMT-69" x="172.070312"/>
       <use xlink:href="#TimesNewRomanPSMT-70" x="199.853516"/>
       <use xlink:href="#TimesNewRomanPSMT-69" x="249.853516"/>
       <use xlink:href="#TimesNewRomanPSMT-74" x="277.636719"/>
       <use xlink:href="#TimesNewRomanPSMT-61" x="305.419922"/>
       <use xlink:href="#TimesNewRomanPSMT-74" x="349.804688"/>
       <use xlink:href="#TimesNewRomanPSMT-69" x="377.587891"/>
       <use xlink:href="#TimesNewRomanPSMT-6f" x="405.371094"/>
       <use xlink:href="#TimesNewRomanPSMT-6e" x="455.371094"/>
      </g>
     </g>
    </g>
    <g id="ytick_3">
     <g id="line2d_9">
      <path d="M 131.29 313.718333 
L 844.56 313.718333 
" clip-path="url(#p3182b4f49a)" style="fill: none; stroke: #cccccc; stroke-width: 0.8; stroke-linecap: round"/>
     </g>
     <g id="text_9">
      <!-- rain -->
      <g style="fill: #262626" transform="translate(99.415 319.273333)scale(0.16 -0.16)">
       <use xlink:href="#TimesNewRomanPSMT-72"/>
       <use xlink:href="#TimesNewRomanPSMT-61" x="33.300781"/>
       <use xlink:href="#TimesNewRomanPSMT-69" x="77.685547"/>
       <use xlink:href="#TimesNewRomanPSMT-6e" x="105.46875"/>
      </g>
     </g>
    </g>
    <g id="ytick_4">
     <g id="line2d_10">
      <path d="M 131.29 282.741667 
L 844.56 282.741667 
" clip-path="url(#p3182b4f49a)" style="fill: none; stroke: #cccccc; stroke-width: 0.8; stroke-linecap: round"/>
     </g>
     <g id="text_10">
      <!-- cloudcover_mid -->
      <g style="fill: #262626" transform="translate(20.32 288.296667)scale(0.16 -0.16)">
       <defs>
        <path id="TimesNewRomanPSMT-75" d="M 2709 2863 
L 2709 1128 
Q 2709 631 2732 520 
Q 2756 409 2807 365 
Q 2859 322 2928 322 
Q 3025 322 3147 375 
L 3191 266 
L 2334 -88 
L 2194 -88 
L 2194 519 
Q 1825 119 1631 15 
Q 1438 -88 1222 -88 
Q 981 -88 804 51 
Q 628 191 559 409 
Q 491 628 491 1028 
L 491 2306 
Q 491 2509 447 2587 
Q 403 2666 317 2708 
Q 231 2750 6 2747 
L 6 2863 
L 1009 2863 
L 1009 947 
Q 1009 547 1148 422 
Q 1288 297 1484 297 
Q 1619 297 1789 381 
Q 1959 466 2194 703 
L 2194 2325 
Q 2194 2569 2105 2655 
Q 2016 2741 1734 2747 
L 1734 2863 
L 2709 2863 
z
" transform="scale(0.015625)"/>
        <path id="TimesNewRomanPSMT-64" d="M 2222 322 
Q 2013 103 1813 7 
Q 1613 -88 1381 -88 
Q 913 -88 563 304 
Q 213 697 213 1313 
Q 213 1928 600 2439 
Q 988 2950 1597 2950 
Q 1975 2950 2222 2709 
L 2222 3238 
Q 2222 3728 2198 3840 
Q 2175 3953 2125 3993 
Q 2075 4034 2000 4034 
Q 1919 4034 1784 3984 
L 1744 4094 
L 2597 4444 
L 2738 4444 
L 2738 1134 
Q 2738 631 2761 520 
Q 2784 409 2836 365 
Q 2888 322 2956 322 
Q 3041 322 3181 375 
L 3216 266 
L 2366 -88 
L 2222 -88 
L 2222 322 
z
M 2222 541 
L 2222 2016 
Q 2203 2228 2109 2403 
Q 2016 2578 1861 2667 
Q 1706 2756 1559 2756 
Q 1284 2756 1069 2509 
Q 784 2184 784 1559 
Q 784 928 1059 592 
Q 1334 256 1672 256 
Q 1956 256 2222 541 
z
" transform="scale(0.015625)"/>
        <path id="TimesNewRomanPSMT-76" d="M 53 2863 
L 1400 2863 
L 1400 2747 
L 1313 2747 
Q 1191 2747 1127 2687 
Q 1063 2628 1063 2528 
Q 1063 2419 1128 2269 
L 1794 688 
L 2463 2328 
Q 2534 2503 2534 2594 
Q 2534 2638 2509 2666 
Q 2475 2713 2422 2730 
Q 2369 2747 2206 2747 
L 2206 2863 
L 3141 2863 
L 3141 2747 
Q 2978 2734 2916 2681 
Q 2806 2588 2719 2369 
L 1703 -88 
L 1575 -88 
L 553 2328 
Q 484 2497 421 2570 
Q 359 2644 263 2694 
Q 209 2722 53 2747 
L 53 2863 
z
" transform="scale(0.015625)"/>
        <path id="TimesNewRomanPSMT-5f" d="M 3256 -1381 
L -53 -1381 
L -53 -1119 
L 3256 -1119 
L 3256 -1381 
z
" transform="scale(0.015625)"/>
        <path id="TimesNewRomanPSMT-6d" d="M 1050 2338 
Q 1363 2650 1419 2697 
Q 1559 2816 1721 2881 
Q 1884 2947 2044 2947 
Q 2313 2947 2506 2790 
Q 2700 2634 2766 2338 
Q 3088 2713 3309 2830 
Q 3531 2947 3766 2947 
Q 3994 2947 4170 2830 
Q 4347 2713 4450 2447 
Q 4519 2266 4519 1878 
L 4519 647 
Q 4519 378 4559 278 
Q 4591 209 4675 161 
Q 4759 113 4950 113 
L 4950 0 
L 3538 0 
L 3538 113 
L 3597 113 
Q 3781 113 3884 184 
Q 3956 234 3988 344 
Q 4000 397 4000 647 
L 4000 1878 
Q 4000 2228 3916 2372 
Q 3794 2572 3525 2572 
Q 3359 2572 3192 2489 
Q 3025 2406 2788 2181 
L 2781 2147 
L 2788 2013 
L 2788 647 
Q 2788 353 2820 281 
Q 2853 209 2943 161 
Q 3034 113 3253 113 
L 3253 0 
L 1806 0 
L 1806 113 
Q 2044 113 2133 169 
Q 2222 225 2256 338 
Q 2272 391 2272 647 
L 2272 1878 
Q 2272 2228 2169 2381 
Q 2031 2581 1784 2581 
Q 1616 2581 1450 2491 
Q 1191 2353 1050 2181 
L 1050 647 
Q 1050 366 1089 281 
Q 1128 197 1204 155 
Q 1281 113 1516 113 
L 1516 0 
L 100 0 
L 100 113 
Q 297 113 375 155 
Q 453 197 493 289 
Q 534 381 534 647 
L 534 1741 
Q 534 2213 506 2350 
Q 484 2453 437 2492 
Q 391 2531 309 2531 
Q 222 2531 100 2484 
L 53 2597 
L 916 2947 
L 1050 2947 
L 1050 2338 
z
" transform="scale(0.015625)"/>
       </defs>
       <use xlink:href="#TimesNewRomanPSMT-63"/>
       <use xlink:href="#TimesNewRomanPSMT-6c" x="44.384766"/>
       <use xlink:href="#TimesNewRomanPSMT-6f" x="72.167969"/>
       <use xlink:href="#TimesNewRomanPSMT-75" x="122.167969"/>
       <use xlink:href="#TimesNewRomanPSMT-64" x="172.167969"/>
       <use xlink:href="#TimesNewRomanPSMT-63" x="222.167969"/>
       <use xlink:href="#TimesNewRomanPSMT-6f" x="266.552734"/>
       <use xlink:href="#TimesNewRomanPSMT-76" x="316.552734"/>
       <use xlink:href="#TimesNewRomanPSMT-65" x="366.552734"/>
       <use xlink:href="#TimesNewRomanPSMT-72" x="410.9375"/>
       <use xlink:href="#TimesNewRomanPSMT-5f" x="444.238281"/>
       <use xlink:href="#TimesNewRomanPSMT-6d" x="494.238281"/>
       <use xlink:href="#TimesNewRomanPSMT-69" x="572.021484"/>
       <use xlink:href="#TimesNewRomanPSMT-64" x="599.804688"/>
      </g>
     </g>
    </g>
    <g id="ytick_5">
     <g id="line2d_11">
      <path d="M 131.29 251.765 
L 844.56 251.765 
" clip-path="url(#p3182b4f49a)" style="fill: none; stroke: #cccccc; stroke-width: 0.8; stroke-linecap: round"/>
     </g>
     <g id="text_11">
      <!-- Lag_25 -->
      <g style="fill: #262626" transform="translate(75.415 257.305)scale(0.16 -0.16)">
       <defs>
        <path id="TimesNewRomanPSMT-4c" d="M 3669 1172 
L 3772 1150 
L 3409 0 
L 128 0 
L 128 116 
L 288 116 
Q 556 116 672 291 
Q 738 391 738 753 
L 738 3488 
Q 738 3884 650 3984 
Q 528 4122 288 4122 
L 128 4122 
L 128 4238 
L 2047 4238 
L 2047 4122 
Q 1709 4125 1573 4059 
Q 1438 3994 1388 3894 
Q 1338 3794 1338 3416 
L 1338 753 
Q 1338 494 1388 397 
Q 1425 331 1503 300 
Q 1581 269 1991 269 
L 2300 269 
Q 2788 269 2984 341 
Q 3181 413 3343 595 
Q 3506 778 3669 1172 
z
" transform="scale(0.015625)"/>
        <path id="TimesNewRomanPSMT-67" d="M 966 1044 
Q 703 1172 562 1401 
Q 422 1631 422 1909 
Q 422 2334 742 2640 
Q 1063 2947 1563 2947 
Q 1972 2947 2272 2747 
L 2878 2747 
Q 3013 2747 3034 2739 
Q 3056 2731 3066 2713 
Q 3084 2684 3084 2613 
Q 3084 2531 3069 2500 
Q 3059 2484 3036 2475 
Q 3013 2466 2878 2466 
L 2506 2466 
Q 2681 2241 2681 1891 
Q 2681 1491 2375 1206 
Q 2069 922 1553 922 
Q 1341 922 1119 984 
Q 981 866 932 777 
Q 884 688 884 625 
Q 884 572 936 522 
Q 988 472 1138 450 
Q 1225 438 1575 428 
Q 2219 413 2409 384 
Q 2700 344 2873 169 
Q 3047 -6 3047 -263 
Q 3047 -616 2716 -925 
Q 2228 -1381 1444 -1381 
Q 841 -1381 425 -1109 
Q 191 -953 191 -784 
Q 191 -709 225 -634 
Q 278 -519 444 -313 
Q 466 -284 763 25 
Q 600 122 533 198 
Q 466 275 466 372 
Q 466 481 555 628 
Q 644 775 966 1044 
z
M 1509 2797 
Q 1278 2797 1122 2612 
Q 966 2428 966 2047 
Q 966 1553 1178 1281 
Q 1341 1075 1591 1075 
Q 1828 1075 1981 1253 
Q 2134 1431 2134 1813 
Q 2134 2309 1919 2591 
Q 1759 2797 1509 2797 
z
M 934 0 
Q 788 -159 713 -296 
Q 638 -434 638 -550 
Q 638 -700 819 -813 
Q 1131 -1006 1722 -1006 
Q 2284 -1006 2551 -807 
Q 2819 -609 2819 -384 
Q 2819 -222 2659 -153 
Q 2497 -84 2016 -72 
Q 1313 -53 934 0 
z
" transform="scale(0.015625)"/>
       </defs>
       <use xlink:href="#TimesNewRomanPSMT-4c"/>
       <use xlink:href="#TimesNewRomanPSMT-61" x="61.083984"/>
       <use xlink:href="#TimesNewRomanPSMT-67" x="105.46875"/>
       <use xlink:href="#TimesNewRomanPSMT-5f" x="155.46875"/>
       <use xlink:href="#TimesNewRomanPSMT-32" x="205.46875"/>
       <use xlink:href="#TimesNewRomanPSMT-35" x="255.46875"/>
      </g>
     </g>
    </g>
    <g id="ytick_6">
     <g id="line2d_12">
      <path d="M 131.29 220.788333 
L 844.56 220.788333 
" clip-path="url(#p3182b4f49a)" style="fill: none; stroke: #cccccc; stroke-width: 0.8; stroke-linecap: round"/>
     </g>
     <g id="text_12">
      <!-- Lag_48 -->
      <g style="fill: #262626" transform="translate(75.415 226.328333)scale(0.16 -0.16)">
       <defs>
        <path id="TimesNewRomanPSMT-34" d="M 2978 1563 
L 2978 1119 
L 2409 1119 
L 2409 0 
L 1894 0 
L 1894 1119 
L 100 1119 
L 100 1519 
L 2066 4325 
L 2409 4325 
L 2409 1563 
L 2978 1563 
z
M 1894 1563 
L 1894 3666 
L 406 1563 
L 1894 1563 
z
" transform="scale(0.015625)"/>
        <path id="TimesNewRomanPSMT-38" d="M 1228 2134 
Q 725 2547 579 2797 
Q 434 3047 434 3316 
Q 434 3728 753 4026 
Q 1072 4325 1600 4325 
Q 2113 4325 2425 4047 
Q 2738 3769 2738 3413 
Q 2738 3175 2569 2928 
Q 2400 2681 1866 2347 
Q 2416 1922 2594 1678 
Q 2831 1359 2831 1006 
Q 2831 559 2490 242 
Q 2150 -75 1597 -75 
Q 994 -75 656 303 
Q 388 606 388 966 
Q 388 1247 577 1523 
Q 766 1800 1228 2134 
z
M 1719 2469 
Q 2094 2806 2194 3001 
Q 2294 3197 2294 3444 
Q 2294 3772 2109 3958 
Q 1925 4144 1606 4144 
Q 1288 4144 1088 3959 
Q 888 3775 888 3528 
Q 888 3366 970 3203 
Q 1053 3041 1206 2894 
L 1719 2469 
z
M 1375 2016 
Q 1116 1797 991 1539 
Q 866 1281 866 981 
Q 866 578 1086 336 
Q 1306 94 1647 94 
Q 1984 94 2187 284 
Q 2391 475 2391 747 
Q 2391 972 2272 1150 
Q 2050 1481 1375 2016 
z
" transform="scale(0.015625)"/>
       </defs>
       <use xlink:href="#TimesNewRomanPSMT-4c"/>
       <use xlink:href="#TimesNewRomanPSMT-61" x="61.083984"/>
       <use xlink:href="#TimesNewRomanPSMT-67" x="105.46875"/>
       <use xlink:href="#TimesNewRomanPSMT-5f" x="155.46875"/>
       <use xlink:href="#TimesNewRomanPSMT-34" x="205.46875"/>
       <use xlink:href="#TimesNewRomanPSMT-38" x="255.46875"/>
      </g>
     </g>
    </g>
    <g id="ytick_7">
     <g id="line2d_13">
      <path d="M 131.29 189.811667 
L 844.56 189.811667 
" clip-path="url(#p3182b4f49a)" style="fill: none; stroke: #cccccc; stroke-width: 0.8; stroke-linecap: round"/>
     </g>
     <g id="text_13">
      <!-- windspeed_10m -->
      <g style="fill: #262626" transform="translate(19.4125 195.366667)scale(0.16 -0.16)">
       <use xlink:href="#TimesNewRomanPSMT-77"/>
       <use xlink:href="#TimesNewRomanPSMT-69" x="72.216797"/>
       <use xlink:href="#TimesNewRomanPSMT-6e" x="100"/>
       <use xlink:href="#TimesNewRomanPSMT-64" x="150"/>
       <use xlink:href="#TimesNewRomanPSMT-73" x="200"/>
       <use xlink:href="#TimesNewRomanPSMT-70" x="238.916016"/>
       <use xlink:href="#TimesNewRomanPSMT-65" x="288.916016"/>
       <use xlink:href="#TimesNewRomanPSMT-65" x="333.300781"/>
       <use xlink:href="#TimesNewRomanPSMT-64" x="377.685547"/>
       <use xlink:href="#TimesNewRomanPSMT-5f" x="427.685547"/>
       <use xlink:href="#TimesNewRomanPSMT-31" x="477.685547"/>
       <use xlink:href="#TimesNewRomanPSMT-30" x="527.685547"/>
       <use xlink:href="#TimesNewRomanPSMT-6d" x="577.685547"/>
      </g>
     </g>
    </g>
    <g id="ytick_8">
     <g id="line2d_14">
      <path d="M 131.29 158.835 
L 844.56 158.835 
" clip-path="url(#p3182b4f49a)" style="fill: none; stroke: #cccccc; stroke-width: 0.8; stroke-linecap: round"/>
     </g>
     <g id="text_14">
      <!-- Lag_47 -->
      <g style="fill: #262626" transform="translate(75.415 164.375)scale(0.16 -0.16)">
       <defs>
        <path id="TimesNewRomanPSMT-37" d="M 644 4238 
L 2916 4238 
L 2916 4119 
L 1503 -88 
L 1153 -88 
L 2419 3728 
L 1253 3728 
Q 900 3728 750 3644 
Q 488 3500 328 3200 
L 238 3234 
L 644 4238 
z
" transform="scale(0.015625)"/>
       </defs>
       <use xlink:href="#TimesNewRomanPSMT-4c"/>
       <use xlink:href="#TimesNewRomanPSMT-61" x="61.083984"/>
       <use xlink:href="#TimesNewRomanPSMT-67" x="105.46875"/>
       <use xlink:href="#TimesNewRomanPSMT-5f" x="155.46875"/>
       <use xlink:href="#TimesNewRomanPSMT-34" x="205.46875"/>
       <use xlink:href="#TimesNewRomanPSMT-37" x="255.46875"/>
      </g>
     </g>
    </g>
    <g id="ytick_9">
     <g id="line2d_15">
      <path d="M 131.29 127.858333 
L 844.56 127.858333 
" clip-path="url(#p3182b4f49a)" style="fill: none; stroke: #cccccc; stroke-width: 0.8; stroke-linecap: round"/>
     </g>
     <g id="text_15">
      <!-- Lag_72 -->
      <g style="fill: #262626" transform="translate(75.415 133.398333)scale(0.16 -0.16)">
       <use xlink:href="#TimesNewRomanPSMT-4c"/>
       <use xlink:href="#TimesNewRomanPSMT-61" x="61.083984"/>
       <use xlink:href="#TimesNewRomanPSMT-67" x="105.46875"/>
       <use xlink:href="#TimesNewRomanPSMT-5f" x="155.46875"/>
       <use xlink:href="#TimesNewRomanPSMT-37" x="205.46875"/>
       <use xlink:href="#TimesNewRomanPSMT-32" x="255.46875"/>
      </g>
     </g>
    </g>
    <g id="ytick_10">
     <g id="line2d_16">
      <path d="M 131.29 96.881667 
L 844.56 96.881667 
" clip-path="url(#p3182b4f49a)" style="fill: none; stroke: #cccccc; stroke-width: 0.8; stroke-linecap: round"/>
     </g>
     <g id="text_16">
      <!-- Lag_24 -->
      <g style="fill: #262626" transform="translate(75.415 102.421667)scale(0.16 -0.16)">
       <use xlink:href="#TimesNewRomanPSMT-4c"/>
       <use xlink:href="#TimesNewRomanPSMT-61" x="61.083984"/>
       <use xlink:href="#TimesNewRomanPSMT-67" x="105.46875"/>
       <use xlink:href="#TimesNewRomanPSMT-5f" x="155.46875"/>
       <use xlink:href="#TimesNewRomanPSMT-32" x="205.46875"/>
       <use xlink:href="#TimesNewRomanPSMT-34" x="255.46875"/>
      </g>
     </g>
    </g>
    <g id="ytick_11">
     <g id="line2d_17">
      <path d="M 131.29 65.905 
L 844.56 65.905 
" clip-path="url(#p3182b4f49a)" style="fill: none; stroke: #cccccc; stroke-width: 0.8; stroke-linecap: round"/>
     </g>
     <g id="text_17">
      <!-- dewpoint_2m -->
      <g style="fill: #262626" transform="translate(36.2975 71.46)scale(0.16 -0.16)">
       <use xlink:href="#TimesNewRomanPSMT-64"/>
       <use xlink:href="#TimesNewRomanPSMT-65" x="50"/>
       <use xlink:href="#TimesNewRomanPSMT-77" x="94.384766"/>
       <use xlink:href="#TimesNewRomanPSMT-70" x="166.601562"/>
       <use xlink:href="#TimesNewRomanPSMT-6f" x="216.601562"/>
       <use xlink:href="#TimesNewRomanPSMT-69" x="266.601562"/>
       <use xlink:href="#TimesNewRomanPSMT-6e" x="294.384766"/>
       <use xlink:href="#TimesNewRomanPSMT-74" x="344.384766"/>
       <use xlink:href="#TimesNewRomanPSMT-5f" x="372.167969"/>
       <use xlink:href="#TimesNewRomanPSMT-32" x="422.167969"/>
       <use xlink:href="#TimesNewRomanPSMT-6d" x="472.167969"/>
      </g>
     </g>
    </g>
    <g id="ytick_12">
     <g id="line2d_18">
      <path d="M 131.29 34.928333 
L 844.56 34.928333 
" clip-path="url(#p3182b4f49a)" style="fill: none; stroke: #cccccc; stroke-width: 0.8; stroke-linecap: round"/>
     </g>
     <g id="text_18">
      <!-- temperature_2m -->
      <g style="fill: #262626" transform="translate(19.445 40.468333)scale(0.16 -0.16)">
       <use xlink:href="#TimesNewRomanPSMT-74"/>
       <use xlink:href="#TimesNewRomanPSMT-65" x="27.783203"/>
       <use xlink:href="#TimesNewRomanPSMT-6d" x="72.167969"/>
       <use xlink:href="#TimesNewRomanPSMT-70" x="149.951172"/>
       <use xlink:href="#TimesNewRomanPSMT-65" x="199.951172"/>
       <use xlink:href="#TimesNewRomanPSMT-72" x="244.335938"/>
       <use xlink:href="#TimesNewRomanPSMT-61" x="277.636719"/>
       <use xlink:href="#TimesNewRomanPSMT-74" x="322.021484"/>
       <use xlink:href="#TimesNewRomanPSMT-75" x="349.804688"/>
       <use xlink:href="#TimesNewRomanPSMT-72" x="399.804688"/>
       <use xlink:href="#TimesNewRomanPSMT-65" x="433.105469"/>
       <use xlink:href="#TimesNewRomanPSMT-5f" x="477.490234"/>
       <use xlink:href="#TimesNewRomanPSMT-32" x="527.490234"/>
       <use xlink:href="#TimesNewRomanPSMT-6d" x="577.490234"/>
      </g>
     </g>
    </g>
   </g>
   <g id="line2d_19">
    <path d="M 164.842271 383.415833 
L 164.842271 367.9275 
L 165.112925 367.9275 
L 165.112925 383.415833 
L 164.842271 383.415833 
" clip-path="url(#p3182b4f49a)" style="fill: none; stroke: #000000; stroke-linecap: round"/>
   </g>
   <g id="line2d_20">
    <path d="M 164.842271 375.671667 
L 164.718346 375.671667 
" clip-path="url(#p3182b4f49a)" style="fill: none; stroke: #000000; stroke-linecap: round"/>
   </g>
   <g id="line2d_21">
    <path d="M 165.112925 375.671667 
L 165.176914 375.671667 
" clip-path="url(#p3182b4f49a)" style="fill: none; stroke: #000000; stroke-linecap: round"/>
   </g>
   <g id="line2d_22">
    <path d="M 164.718346 379.54375 
L 164.718346 371.799583 
" clip-path="url(#p3182b4f49a)" style="fill: none; stroke: #000000; stroke-linecap: round"/>
   </g>
   <g id="line2d_23">
    <path d="M 165.176914 379.54375 
L 165.176914 371.799583 
" clip-path="url(#p3182b4f49a)" style="fill: none; stroke: #000000; stroke-linecap: round"/>
   </g>
   <g id="line2d_24"/>
   <g id="line2d_25">
    <path d="M 164.564285 352.439167 
L 164.564285 336.950833 
L 166.325058 336.950833 
L 166.325058 352.439167 
L 164.564285 352.439167 
" clip-path="url(#p3182b4f49a)" style="fill: none; stroke: #000000; stroke-linecap: round"/>
   </g>
   <g id="line2d_26">
    <path d="M 164.564285 344.695 
L 163.711364 344.695 
" clip-path="url(#p3182b4f49a)" style="fill: none; stroke: #000000; stroke-linecap: round"/>
   </g>
   <g id="line2d_27">
    <path d="M 166.325058 344.695 
L 168.432163 344.695 
" clip-path="url(#p3182b4f49a)" style="fill: none; stroke: #000000; stroke-linecap: round"/>
   </g>
   <g id="line2d_28">
    <path d="M 163.711364 348.567083 
L 163.711364 340.822917 
" clip-path="url(#p3182b4f49a)" style="fill: none; stroke: #000000; stroke-linecap: round"/>
   </g>
   <g id="line2d_29">
    <path d="M 168.432163 348.567083 
L 168.432163 340.822917 
" clip-path="url(#p3182b4f49a)" style="fill: none; stroke: #000000; stroke-linecap: round"/>
   </g>
   <g id="line2d_30"/>
   <g id="line2d_31">
    <path d="M 166.10782 321.4625 
L 166.10782 305.974167 
L 168.056813 305.974167 
L 168.056813 321.4625 
L 166.10782 321.4625 
" clip-path="url(#p3182b4f49a)" style="fill: none; stroke: #000000; stroke-linecap: round"/>
   </g>
   <g id="line2d_32">
    <path d="M 166.10782 313.718333 
L 165.132671 313.718333 
" clip-path="url(#p3182b4f49a)" style="fill: none; stroke: #000000; stroke-linecap: round"/>
   </g>
   <g id="line2d_33">
    <path d="M 168.056813 313.718333 
L 168.782924 313.718333 
" clip-path="url(#p3182b4f49a)" style="fill: none; stroke: #000000; stroke-linecap: round"/>
   </g>
   <g id="line2d_34">
    <path d="M 165.132671 317.590417 
L 165.132671 309.84625 
" clip-path="url(#p3182b4f49a)" style="fill: none; stroke: #000000; stroke-linecap: round"/>
   </g>
   <g id="line2d_35">
    <path d="M 168.782924 317.590417 
L 168.782924 309.84625 
" clip-path="url(#p3182b4f49a)" style="fill: none; stroke: #000000; stroke-linecap: round"/>
   </g>
   <g id="line2d_36"/>
   <g id="line2d_37">
    <path d="M 176.699063 290.485833 
L 176.699063 274.9975 
L 186.208743 274.9975 
L 186.208743 290.485833 
L 176.699063 290.485833 
" clip-path="url(#p3182b4f49a)" style="fill: none; stroke: #000000; stroke-linecap: round"/>
   </g>
   <g id="line2d_38">
    <path d="M 176.699063 282.741667 
L 173.286251 282.741667 
" clip-path="url(#p3182b4f49a)" style="fill: none; stroke: #000000; stroke-linecap: round"/>
   </g>
   <g id="line2d_39">
    <path d="M 186.208743 282.741667 
L 187.400883 282.741667 
" clip-path="url(#p3182b4f49a)" style="fill: none; stroke: #000000; stroke-linecap: round"/>
   </g>
   <g id="line2d_40">
    <path d="M 173.286251 286.61375 
L 173.286251 278.869583 
" clip-path="url(#p3182b4f49a)" style="fill: none; stroke: #000000; stroke-linecap: round"/>
   </g>
   <g id="line2d_41">
    <path d="M 187.400883 286.61375 
L 187.400883 278.869583 
" clip-path="url(#p3182b4f49a)" style="fill: none; stroke: #000000; stroke-linecap: round"/>
   </g>
   <g id="line2d_42"/>
   <g id="line2d_43">
    <path d="M 176.651566 259.509167 
L 176.651566 244.020833 
L 186.730537 244.020833 
L 186.730537 259.509167 
L 176.651566 259.509167 
" clip-path="url(#p3182b4f49a)" style="fill: none; stroke: #000000; stroke-linecap: round"/>
   </g>
   <g id="line2d_44">
    <path d="M 176.651566 251.765 
L 173.756526 251.765 
" clip-path="url(#p3182b4f49a)" style="fill: none; stroke: #000000; stroke-linecap: round"/>
   </g>
   <g id="line2d_45">
    <path d="M 186.730537 251.765 
L 188.86665 251.765 
" clip-path="url(#p3182b4f49a)" style="fill: none; stroke: #000000; stroke-linecap: round"/>
   </g>
   <g id="line2d_46">
    <path d="M 173.756526 255.637083 
L 173.756526 247.892917 
" clip-path="url(#p3182b4f49a)" style="fill: none; stroke: #000000; stroke-linecap: round"/>
   </g>
   <g id="line2d_47">
    <path d="M 188.86665 255.637083 
L 188.86665 247.892917 
" clip-path="url(#p3182b4f49a)" style="fill: none; stroke: #000000; stroke-linecap: round"/>
   </g>
   <g id="line2d_48"/>
   <g id="line2d_49">
    <path d="M 201.054553 228.5325 
L 201.054553 213.044167 
L 209.658053 213.044167 
L 209.658053 228.5325 
L 201.054553 228.5325 
" clip-path="url(#p3182b4f49a)" style="fill: none; stroke: #000000; stroke-linecap: round"/>
   </g>
   <g id="line2d_50">
    <path d="M 201.054553 220.788333 
L 194.143262 220.788333 
" clip-path="url(#p3182b4f49a)" style="fill: none; stroke: #000000; stroke-linecap: round"/>
   </g>
   <g id="line2d_51">
    <path d="M 209.658053 220.788333 
L 222.292933 220.788333 
" clip-path="url(#p3182b4f49a)" style="fill: none; stroke: #000000; stroke-linecap: round"/>
   </g>
   <g id="line2d_52">
    <path d="M 194.143262 224.660417 
L 194.143262 216.91625 
" clip-path="url(#p3182b4f49a)" style="fill: none; stroke: #000000; stroke-linecap: round"/>
   </g>
   <g id="line2d_53">
    <path d="M 222.292933 224.660417 
L 222.292933 216.91625 
" clip-path="url(#p3182b4f49a)" style="fill: none; stroke: #000000; stroke-linecap: round"/>
   </g>
   <g id="line2d_54"/>
   <g id="line2d_55">
    <path d="M 201.966645 197.555833 
L 201.966645 182.0675 
L 213.862819 182.0675 
L 213.862819 197.555833 
L 201.966645 197.555833 
" clip-path="url(#p3182b4f49a)" style="fill: none; stroke: #000000; stroke-linecap: round"/>
   </g>
   <g id="line2d_56">
    <path d="M 201.966645 189.811667 
L 196.71001 189.811667 
" clip-path="url(#p3182b4f49a)" style="fill: none; stroke: #000000; stroke-linecap: round"/>
   </g>
   <g id="line2d_57">
    <path d="M 213.862819 189.811667 
L 218.647211 189.811667 
" clip-path="url(#p3182b4f49a)" style="fill: none; stroke: #000000; stroke-linecap: round"/>
   </g>
   <g id="line2d_58">
    <path d="M 196.71001 193.68375 
L 196.71001 185.939583 
" clip-path="url(#p3182b4f49a)" style="fill: none; stroke: #000000; stroke-linecap: round"/>
   </g>
   <g id="line2d_59">
    <path d="M 218.647211 193.68375 
L 218.647211 185.939583 
" clip-path="url(#p3182b4f49a)" style="fill: none; stroke: #000000; stroke-linecap: round"/>
   </g>
   <g id="line2d_60">
    <defs>
     <path id="m1601a18ba3" d="M 0 3 
C 0.795609 3 1.55874 2.683901 2.12132 2.12132 
C 2.683901 1.55874 3 0.795609 3 0 
C 3 -0.795609 2.683901 -1.55874 2.12132 -2.12132 
C 1.55874 -2.683901 0.795609 -3 0 -3 
C -0.795609 -3 -1.55874 -2.683901 -2.12132 -2.12132 
C -2.683901 -1.55874 -3 -0.795609 -3 0 
C -3 0.795609 -2.683901 1.55874 -2.12132 2.12132 
C -1.55874 2.683901 -0.795609 3 0 3 
z
" style="stroke: #000000"/>
    </defs>
    <g clip-path="url(#p3182b4f49a)">
     <use xlink:href="#m1601a18ba3" x="234.204034" y="189.811667" style="fill-opacity: 0; stroke: #000000"/>
    </g>
   </g>
   <g id="line2d_61">
    <path d="M 233.020523 166.579167 
L 233.020523 151.090833 
L 248.15153 151.090833 
L 248.15153 166.579167 
L 233.020523 166.579167 
" clip-path="url(#p3182b4f49a)" style="fill: none; stroke: #000000; stroke-linecap: round"/>
   </g>
   <g id="line2d_62">
    <path d="M 233.020523 158.835 
L 214.385709 158.835 
" clip-path="url(#p3182b4f49a)" style="fill: none; stroke: #000000; stroke-linecap: round"/>
   </g>
   <g id="line2d_63">
    <path d="M 248.15153 158.835 
L 264.548797 158.835 
" clip-path="url(#p3182b4f49a)" style="fill: none; stroke: #000000; stroke-linecap: round"/>
   </g>
   <g id="line2d_64">
    <path d="M 214.385709 162.707083 
L 214.385709 154.962917 
" clip-path="url(#p3182b4f49a)" style="fill: none; stroke: #000000; stroke-linecap: round"/>
   </g>
   <g id="line2d_65">
    <path d="M 264.548797 162.707083 
L 264.548797 154.962917 
" clip-path="url(#p3182b4f49a)" style="fill: none; stroke: #000000; stroke-linecap: round"/>
   </g>
   <g id="line2d_66"/>
   <g id="line2d_67">
    <path d="M 269.651383 135.6025 
L 269.651383 120.114167 
L 296.39266 120.114167 
L 296.39266 135.6025 
L 269.651383 135.6025 
" clip-path="url(#p3182b4f49a)" style="fill: none; stroke: #000000; stroke-linecap: round"/>
   </g>
   <g id="line2d_68">
    <path d="M 269.651383 127.858333 
L 237.119696 127.858333 
" clip-path="url(#p3182b4f49a)" style="fill: none; stroke: #000000; stroke-linecap: round"/>
   </g>
   <g id="line2d_69">
    <path d="M 296.39266 127.858333 
L 309.408556 127.858333 
" clip-path="url(#p3182b4f49a)" style="fill: none; stroke: #000000; stroke-linecap: round"/>
   </g>
   <g id="line2d_70">
    <path d="M 237.119696 131.730417 
L 237.119696 123.98625 
" clip-path="url(#p3182b4f49a)" style="fill: none; stroke: #000000; stroke-linecap: round"/>
   </g>
   <g id="line2d_71">
    <path d="M 309.408556 131.730417 
L 309.408556 123.98625 
" clip-path="url(#p3182b4f49a)" style="fill: none; stroke: #000000; stroke-linecap: round"/>
   </g>
   <g id="line2d_72"/>
   <g id="line2d_73">
    <path d="M 402.900058 104.625833 
L 402.900058 89.1375 
L 424.067031 89.1375 
L 424.067031 104.625833 
L 402.900058 104.625833 
" clip-path="url(#p3182b4f49a)" style="fill: none; stroke: #000000; stroke-linecap: round"/>
   </g>
   <g id="line2d_74">
    <path d="M 402.900058 96.881667 
L 398.44113 96.881667 
" clip-path="url(#p3182b4f49a)" style="fill: none; stroke: #000000; stroke-linecap: round"/>
   </g>
   <g id="line2d_75">
    <path d="M 424.067031 96.881667 
L 453.502494 96.881667 
" clip-path="url(#p3182b4f49a)" style="fill: none; stroke: #000000; stroke-linecap: round"/>
   </g>
   <g id="line2d_76">
    <path d="M 398.44113 100.75375 
L 398.44113 93.009583 
" clip-path="url(#p3182b4f49a)" style="fill: none; stroke: #000000; stroke-linecap: round"/>
   </g>
   <g id="line2d_77">
    <path d="M 453.502494 100.75375 
L 453.502494 93.009583 
" clip-path="url(#p3182b4f49a)" style="fill: none; stroke: #000000; stroke-linecap: round"/>
   </g>
   <g id="line2d_78"/>
   <g id="line2d_79">
    <path d="M 609.762001 73.649167 
L 609.762001 58.160833 
L 661.213301 58.160833 
L 661.213301 73.649167 
L 609.762001 73.649167 
" clip-path="url(#p3182b4f49a)" style="fill: none; stroke: #000000; stroke-linecap: round"/>
   </g>
   <g id="line2d_80">
    <path d="M 609.762001 65.905 
L 539.243064 65.905 
" clip-path="url(#p3182b4f49a)" style="fill: none; stroke: #000000; stroke-linecap: round"/>
   </g>
   <g id="line2d_81">
    <path d="M 661.213301 65.905 
L 684.124576 65.905 
" clip-path="url(#p3182b4f49a)" style="fill: none; stroke: #000000; stroke-linecap: round"/>
   </g>
   <g id="line2d_82">
    <path d="M 539.243064 69.777083 
L 539.243064 62.032917 
" clip-path="url(#p3182b4f49a)" style="fill: none; stroke: #000000; stroke-linecap: round"/>
   </g>
   <g id="line2d_83">
    <path d="M 684.124576 69.777083 
L 684.124576 62.032917 
" clip-path="url(#p3182b4f49a)" style="fill: none; stroke: #000000; stroke-linecap: round"/>
   </g>
   <g id="line2d_84"/>
   <g id="line2d_85">
    <path d="M 766.170707 42.6725 
L 766.170707 27.184167 
L 796.126406 27.184167 
L 796.126406 42.6725 
L 766.170707 42.6725 
" clip-path="url(#p3182b4f49a)" style="fill: none; stroke: #000000; stroke-linecap: round"/>
   </g>
   <g id="line2d_86">
    <path d="M 766.170707 34.928333 
L 745.319932 34.928333 
" clip-path="url(#p3182b4f49a)" style="fill: none; stroke: #000000; stroke-linecap: round"/>
   </g>
   <g id="line2d_87">
    <path d="M 796.126406 34.928333 
L 812.138636 34.928333 
" clip-path="url(#p3182b4f49a)" style="fill: none; stroke: #000000; stroke-linecap: round"/>
   </g>
   <g id="line2d_88">
    <path d="M 745.319932 38.800417 
L 745.319932 31.05625 
" clip-path="url(#p3182b4f49a)" style="fill: none; stroke: #000000; stroke-linecap: round"/>
   </g>
   <g id="line2d_89">
    <path d="M 812.138636 38.800417 
L 812.138636 31.05625 
" clip-path="url(#p3182b4f49a)" style="fill: none; stroke: #000000; stroke-linecap: round"/>
   </g>
   <g id="line2d_90"/>
   <g id="line2d_91">
    <path d="M 165.010344 383.415833 
L 165.010344 367.9275 
" clip-path="url(#p3182b4f49a)" style="fill: none; stroke: #ff7f0e; stroke-linecap: round"/>
   </g>
   <g id="line2d_92">
    <path d="M 164.95581 352.439167 
L 164.95581 336.950833 
" clip-path="url(#p3182b4f49a)" style="fill: none; stroke: #ff7f0e; stroke-linecap: round"/>
   </g>
   <g id="line2d_93">
    <path d="M 166.677147 321.4625 
L 166.677147 305.974167 
" clip-path="url(#p3182b4f49a)" style="fill: none; stroke: #ff7f0e; stroke-linecap: round"/>
   </g>
   <g id="line2d_94">
    <path d="M 181.14783 290.485833 
L 181.14783 274.9975 
" clip-path="url(#p3182b4f49a)" style="fill: none; stroke: #ff7f0e; stroke-linecap: round"/>
   </g>
   <g id="line2d_95">
    <path d="M 181.062233 259.509167 
L 181.062233 244.020833 
" clip-path="url(#p3182b4f49a)" style="fill: none; stroke: #ff7f0e; stroke-linecap: round"/>
   </g>
   <g id="line2d_96">
    <path d="M 205.119536 228.5325 
L 205.119536 213.044167 
" clip-path="url(#p3182b4f49a)" style="fill: none; stroke: #ff7f0e; stroke-linecap: round"/>
   </g>
   <g id="line2d_97">
    <path d="M 208.455324 197.555833 
L 208.455324 182.0675 
" clip-path="url(#p3182b4f49a)" style="fill: none; stroke: #ff7f0e; stroke-linecap: round"/>
   </g>
   <g id="line2d_98">
    <path d="M 240.479765 166.579167 
L 240.479765 151.090833 
" clip-path="url(#p3182b4f49a)" style="fill: none; stroke: #ff7f0e; stroke-linecap: round"/>
   </g>
   <g id="line2d_99">
    <path d="M 283.331082 135.6025 
L 283.331082 120.114167 
" clip-path="url(#p3182b4f49a)" style="fill: none; stroke: #ff7f0e; stroke-linecap: round"/>
   </g>
   <g id="line2d_100">
    <path d="M 419.387498 104.625833 
L 419.387498 89.1375 
" clip-path="url(#p3182b4f49a)" style="fill: none; stroke: #ff7f0e; stroke-linecap: round"/>
   </g>
   <g id="line2d_101">
    <path d="M 638.505504 73.649167 
L 638.505504 58.160833 
" clip-path="url(#p3182b4f49a)" style="fill: none; stroke: #ff7f0e; stroke-linecap: round"/>
   </g>
   <g id="line2d_102">
    <path d="M 774.431674 42.6725 
L 774.431674 27.184167 
" clip-path="url(#p3182b4f49a)" style="fill: none; stroke: #ff7f0e; stroke-linecap: round"/>
   </g>
   <g id="patch_3">
    <path d="M 131.29 391.16 
L 131.29 19.44 
" style="fill: none; stroke: #cccccc; stroke-width: 0.8; stroke-linejoin: miter; stroke-linecap: square"/>
   </g>
   <g id="patch_4">
    <path d="M 131.29 391.16 
L 844.56 391.16 
" style="fill: none; stroke: #cccccc; stroke-width: 0.8; stroke-linejoin: miter; stroke-linecap: square"/>
   </g>
  </g>
 </g>
 <defs>
  <clipPath id="p3182b4f49a">
   <rect x="131.29" y="19.44" width="713.27" height="371.72"/>
  </clipPath>
 </defs>
</svg>
