<?xml version="1.0" encoding="utf-8" standalone="no"?>
<!DOCTYPE svg PUBLIC "-//W3C//DTD SVG 1.1//EN"
  "http://www.w3.org/Graphics/SVG/1.1/DTD/svg11.dtd">
<svg xmlns:xlink="http://www.w3.org/1999/xlink" width="576pt" height="576pt" viewBox="0 0 576 576" xmlns="http://www.w3.org/2000/svg" version="1.1">
 <metadata>
  <rdf:RDF xmlns:dc="http://purl.org/dc/elements/1.1/" xmlns:cc="http://creativecommons.org/ns#" xmlns:rdf="http://www.w3.org/1999/02/22-rdf-syntax-ns#">
   <cc:Work>
    <dc:type rdf:resource="http://purl.org/dc/dcmitype/StillImage"/>
    <dc:date>2023-07-11T11:50:51.481599</dc:date>
    <dc:format>image/svg+xml</dc:format>
    <dc:creator>
     <cc:Agent>
      <dc:title>Matplotlib v3.5.3, https://matplotlib.org/</dc:title>
     </cc:Agent>
    </dc:creator>
   </cc:Work>
  </rdf:RDF>
 </metadata>
 <defs>
  <style type="text/css">*{stroke-linejoin: round; stroke-linecap: butt}</style>
 </defs>
 <g id="figure_1">
  <g id="patch_1">
   <path d="M 0 576 
L 576 576 
L 576 0 
L 0 0 
z
" style="fill: #ffffff"/>
  </g>
  <g id="axes_1">
   <g id="patch_2">
    <path d="M 534.255 288 
C 534.255 257.539587 528.254963 227.375364 516.598268 199.233612 
C 504.941572 171.09186 487.854912 145.519866 466.316148 123.981102 
C 444.777384 102.442338 419.20539 85.355678 391.063638 73.698982 
C 362.921886 62.042287 332.757663 56.04225 302.29725 56.04225 
C 271.836837 56.04225 241.672614 62.042287 213.530862 73.698982 
C 185.38911 85.355678 159.817116 102.442338 138.278352 123.981102 
C 116.739588 145.519866 99.652928 171.09186 87.996232 199.233612 
C 76.339537 227.375364 70.3395 257.539587 70.3395 288 
C 70.3395 318.460413 76.339537 348.624636 87.996232 376.766388 
C 99.652928 404.90814 116.739588 430.480134 138.278352 452.018898 
C 159.817116 473.557662 185.38911 490.644322 213.530862 502.301018 
C 241.672614 513.957713 271.836837 519.95775 302.29725 519.95775 
C 332.757663 519.95775 362.921886 513.957713 391.063638 502.301018 
C 419.20539 490.644322 444.777384 473.557662 466.316148 452.018898 
C 487.854912 430.480134 504.941572 404.90814 516.598268 376.766388 
C 528.254963 348.624636 534.255 318.460413 534.255 288 
M 302.29725 288 
C 302.29725 288 302.29725 288 302.29725 288 
C 302.29725 288 302.29725 288 302.29725 288 
C 302.29725 288 302.29725 288 302.29725 288 
C 302.29725 288 302.29725 288 302.29725 288 
C 302.29725 288 302.29725 288 302.29725 288 
C 302.29725 288 302.29725 288 302.29725 288 
C 302.29725 288 302.29725 288 302.29725 288 
C 302.29725 288 302.29725 288 302.29725 288 
C 302.29725 288 302.29725 288 302.29725 288 
C 302.29725 288 302.29725 288 302.29725 288 
C 302.29725 288 302.29725 288 302.29725 288 
C 302.29725 288 302.29725 288 302.29725 288 
C 302.29725 288 302.29725 288 302.29725 288 
C 302.29725 288 302.29725 288 302.29725 288 
C 302.29725 288 302.29725 288 302.29725 288 
C 302.29725 288 302.29725 288 302.29725 288 
M 534.255 288 
z
" style="fill: #ffffff"/>
   </g>
   <g id="matplotlib.axis_1">
    <g id="xtick_1">
     <g id="line2d_1">
      <path d="M 302.29725 288 
L 534.255 288 
" clip-path="url(#p887ca421e4)" style="fill: none; stroke: #cccccc; stroke-linecap: round"/>
     </g>
     <g id="text_1">
      <!-- Jan -->
      <g style="fill: #262626" transform="translate(537.051406 292.394766)scale(0.17 -0.17)">
       <defs>
        <path id="ArialMT-4a" d="M 184 1300 
L 731 1375 
Q 753 850 928 656 
Q 1103 463 1413 463 
Q 1641 463 1806 567 
Q 1972 672 2034 851 
Q 2097 1031 2097 1425 
L 2097 4581 
L 2703 4581 
L 2703 1459 
Q 2703 884 2564 568 
Q 2425 253 2123 87 
Q 1822 -78 1416 -78 
Q 813 -78 492 269 
Q 172 616 184 1300 
z
" transform="scale(0.015625)"/>
        <path id="ArialMT-61" d="M 2588 409 
Q 2275 144 1986 34 
Q 1697 -75 1366 -75 
Q 819 -75 525 192 
Q 231 459 231 875 
Q 231 1119 342 1320 
Q 453 1522 633 1644 
Q 813 1766 1038 1828 
Q 1203 1872 1538 1913 
Q 2219 1994 2541 2106 
Q 2544 2222 2544 2253 
Q 2544 2597 2384 2738 
Q 2169 2928 1744 2928 
Q 1347 2928 1158 2789 
Q 969 2650 878 2297 
L 328 2372 
Q 403 2725 575 2942 
Q 747 3159 1072 3276 
Q 1397 3394 1825 3394 
Q 2250 3394 2515 3294 
Q 2781 3194 2906 3042 
Q 3031 2891 3081 2659 
Q 3109 2516 3109 2141 
L 3109 1391 
Q 3109 606 3145 398 
Q 3181 191 3288 0 
L 2700 0 
Q 2613 175 2588 409 
z
M 2541 1666 
Q 2234 1541 1622 1453 
Q 1275 1403 1131 1340 
Q 988 1278 909 1158 
Q 831 1038 831 891 
Q 831 666 1001 516 
Q 1172 366 1500 366 
Q 1825 366 2078 508 
Q 2331 650 2450 897 
Q 2541 1088 2541 1459 
L 2541 1666 
z
" transform="scale(0.015625)"/>
        <path id="ArialMT-6e" d="M 422 0 
L 422 3319 
L 928 3319 
L 928 2847 
Q 1294 3394 1984 3394 
Q 2284 3394 2536 3286 
Q 2788 3178 2913 3003 
Q 3038 2828 3088 2588 
Q 3119 2431 3119 2041 
L 3119 0 
L 2556 0 
L 2556 2019 
Q 2556 2363 2490 2533 
Q 2425 2703 2258 2804 
Q 2091 2906 1866 2906 
Q 1506 2906 1245 2678 
Q 984 2450 984 1813 
L 984 0 
L 422 0 
z
" transform="scale(0.015625)"/>
       </defs>
       <use xlink:href="#ArialMT-4a"/>
       <use xlink:href="#ArialMT-61" x="50"/>
       <use xlink:href="#ArialMT-6e" x="105.615234"/>
      </g>
     </g>
    </g>
    <g id="xtick_2">
     <g id="line2d_2">
      <path d="M 302.29725 288 
L 503.178554 172.021125 
" clip-path="url(#p887ca421e4)" style="fill: none; stroke: #cccccc; stroke-linecap: round"/>
     </g>
     <g id="text_2">
      <!-- Feb -->
      <g style="fill: #262626" transform="translate(502.822739 168.165891)scale(0.17 -0.17)">
       <defs>
        <path id="ArialMT-46" d="M 525 0 
L 525 4581 
L 3616 4581 
L 3616 4041 
L 1131 4041 
L 1131 2622 
L 3281 2622 
L 3281 2081 
L 1131 2081 
L 1131 0 
L 525 0 
z
" transform="scale(0.015625)"/>
        <path id="ArialMT-65" d="M 2694 1069 
L 3275 997 
Q 3138 488 2766 206 
Q 2394 -75 1816 -75 
Q 1088 -75 661 373 
Q 234 822 234 1631 
Q 234 2469 665 2931 
Q 1097 3394 1784 3394 
Q 2450 3394 2872 2941 
Q 3294 2488 3294 1666 
Q 3294 1616 3291 1516 
L 816 1516 
Q 847 969 1125 678 
Q 1403 388 1819 388 
Q 2128 388 2347 550 
Q 2566 713 2694 1069 
z
M 847 1978 
L 2700 1978 
Q 2663 2397 2488 2606 
Q 2219 2931 1791 2931 
Q 1403 2931 1139 2672 
Q 875 2413 847 1978 
z
" transform="scale(0.015625)"/>
        <path id="ArialMT-62" d="M 941 0 
L 419 0 
L 419 4581 
L 981 4581 
L 981 2947 
Q 1338 3394 1891 3394 
Q 2197 3394 2470 3270 
Q 2744 3147 2920 2923 
Q 3097 2700 3197 2384 
Q 3297 2069 3297 1709 
Q 3297 856 2875 390 
Q 2453 -75 1863 -75 
Q 1275 -75 941 416 
L 941 0 
z
M 934 1684 
Q 934 1088 1097 822 
Q 1363 388 1816 388 
Q 2184 388 2453 708 
Q 2722 1028 2722 1663 
Q 2722 2313 2464 2622 
Q 2206 2931 1841 2931 
Q 1472 2931 1203 2611 
Q 934 2291 934 1684 
z
" transform="scale(0.015625)"/>
       </defs>
       <use xlink:href="#ArialMT-46"/>
       <use xlink:href="#ArialMT-65" x="61.083984"/>
       <use xlink:href="#ArialMT-62" x="116.699219"/>
      </g>
     </g>
    </g>
    <g id="xtick_3">
     <g id="line2d_3">
      <path d="M 302.29725 288 
L 418.276125 87.118696 
" clip-path="url(#p887ca421e4)" style="fill: none; stroke: #cccccc; stroke-linecap: round"/>
     </g>
     <g id="text_3">
      <!-- Mar -->
      <g style="fill: #262626" transform="translate(411.888859 77.224042)scale(0.17 -0.17)">
       <defs>
        <path id="ArialMT-4d" d="M 475 0 
L 475 4581 
L 1388 4581 
L 2472 1338 
Q 2622 884 2691 659 
Q 2769 909 2934 1394 
L 4031 4581 
L 4847 4581 
L 4847 0 
L 4263 0 
L 4263 3834 
L 2931 0 
L 2384 0 
L 1059 3900 
L 1059 0 
L 475 0 
z
" transform="scale(0.015625)"/>
        <path id="ArialMT-72" d="M 416 0 
L 416 3319 
L 922 3319 
L 922 2816 
Q 1116 3169 1280 3281 
Q 1444 3394 1641 3394 
Q 1925 3394 2219 3213 
L 2025 2691 
Q 1819 2813 1613 2813 
Q 1428 2813 1281 2702 
Q 1134 2591 1072 2394 
Q 978 2094 978 1738 
L 978 0 
L 416 0 
z
" transform="scale(0.015625)"/>
       </defs>
       <use xlink:href="#ArialMT-4d"/>
       <use xlink:href="#ArialMT-61" x="83.300781"/>
       <use xlink:href="#ArialMT-72" x="138.916016"/>
      </g>
     </g>
    </g>
    <g id="xtick_4">
     <g id="line2d_4">
      <path d="M 302.29725 288 
L 302.29725 56.04225 
" clip-path="url(#p887ca421e4)" style="fill: none; stroke: #cccccc; stroke-linecap: round"/>
     </g>
     <g id="text_4">
      <!-- Apr -->
      <g style="fill: #262626" transform="translate(289.070453 43.937016)scale(0.17 -0.17)">
       <defs>
        <path id="ArialMT-41" d="M -9 0 
L 1750 4581 
L 2403 4581 
L 4278 0 
L 3588 0 
L 3053 1388 
L 1138 1388 
L 634 0 
L -9 0 
z
M 1313 1881 
L 2866 1881 
L 2388 3150 
Q 2169 3728 2063 4100 
Q 1975 3659 1816 3225 
L 1313 1881 
z
" transform="scale(0.015625)"/>
        <path id="ArialMT-70" d="M 422 -1272 
L 422 3319 
L 934 3319 
L 934 2888 
Q 1116 3141 1344 3267 
Q 1572 3394 1897 3394 
Q 2322 3394 2647 3175 
Q 2972 2956 3137 2557 
Q 3303 2159 3303 1684 
Q 3303 1175 3120 767 
Q 2938 359 2589 142 
Q 2241 -75 1856 -75 
Q 1575 -75 1351 44 
Q 1128 163 984 344 
L 984 -1272 
L 422 -1272 
z
M 931 1641 
Q 931 1000 1190 694 
Q 1450 388 1819 388 
Q 2194 388 2461 705 
Q 2728 1022 2728 1688 
Q 2728 2322 2467 2637 
Q 2206 2953 1844 2953 
Q 1484 2953 1207 2617 
Q 931 2281 931 1641 
z
" transform="scale(0.015625)"/>
       </defs>
       <use xlink:href="#ArialMT-41"/>
       <use xlink:href="#ArialMT-70" x="66.699219"/>
       <use xlink:href="#ArialMT-72" x="122.314453"/>
      </g>
     </g>
    </g>
    <g id="xtick_5">
     <g id="line2d_5">
      <path d="M 302.29725 288 
L 186.318375 87.118696 
" clip-path="url(#p887ca421e4)" style="fill: none; stroke: #cccccc; stroke-linecap: round"/>
     </g>
     <g id="text_5">
      <!-- May -->
      <g style="fill: #262626" transform="translate(162.011344 77.124433)scale(0.17 -0.17)">
       <defs>
        <path id="ArialMT-79" d="M 397 -1278 
L 334 -750 
Q 519 -800 656 -800 
Q 844 -800 956 -737 
Q 1069 -675 1141 -563 
Q 1194 -478 1313 -144 
Q 1328 -97 1363 -6 
L 103 3319 
L 709 3319 
L 1400 1397 
Q 1534 1031 1641 628 
Q 1738 1016 1872 1384 
L 2581 3319 
L 3144 3319 
L 1881 -56 
Q 1678 -603 1566 -809 
Q 1416 -1088 1222 -1217 
Q 1028 -1347 759 -1347 
Q 597 -1347 397 -1278 
z
" transform="scale(0.015625)"/>
       </defs>
       <use xlink:href="#ArialMT-4d"/>
       <use xlink:href="#ArialMT-61" x="83.300781"/>
       <use xlink:href="#ArialMT-79" x="138.916016"/>
      </g>
     </g>
    </g>
    <g id="xtick_6">
     <g id="line2d_6">
      <path d="M 302.29725 288 
L 101.415946 172.021125 
" clip-path="url(#p887ca421e4)" style="fill: none; stroke: #cccccc; stroke-linecap: round"/>
     </g>
     <g id="text_6">
      <!-- Jun -->
      <g style="fill: #262626" transform="translate(73.422933 168.165891)scale(0.17 -0.17)">
       <defs>
        <path id="ArialMT-75" d="M 2597 0 
L 2597 488 
Q 2209 -75 1544 -75 
Q 1250 -75 995 37 
Q 741 150 617 320 
Q 494 491 444 738 
Q 409 903 409 1263 
L 409 3319 
L 972 3319 
L 972 1478 
Q 972 1038 1006 884 
Q 1059 663 1231 536 
Q 1403 409 1656 409 
Q 1909 409 2131 539 
Q 2353 669 2445 892 
Q 2538 1116 2538 1541 
L 2538 3319 
L 3100 3319 
L 3100 0 
L 2597 0 
z
" transform="scale(0.015625)"/>
       </defs>
       <use xlink:href="#ArialMT-4a"/>
       <use xlink:href="#ArialMT-75" x="50"/>
       <use xlink:href="#ArialMT-6e" x="105.615234"/>
      </g>
     </g>
    </g>
    <g id="xtick_7">
     <g id="line2d_7">
      <path d="M 302.29725 288 
L 70.3395 288 
" clip-path="url(#p887ca421e4)" style="fill: none; stroke: #cccccc; stroke-linecap: round"/>
     </g>
     <g id="text_7">
      <!-- Jul -->
      <g style="fill: #262626" transform="translate(42.974109 292.394766)scale(0.17 -0.17)">
       <defs>
        <path id="ArialMT-6c" d="M 409 0 
L 409 4581 
L 972 4581 
L 972 0 
L 409 0 
z
" transform="scale(0.015625)"/>
       </defs>
       <use xlink:href="#ArialMT-4a"/>
       <use xlink:href="#ArialMT-75" x="50"/>
       <use xlink:href="#ArialMT-6c" x="105.615234"/>
      </g>
     </g>
    </g>
    <g id="xtick_8">
     <g id="line2d_8">
      <path d="M 302.29725 288 
L 101.415946 403.978875 
" clip-path="url(#p887ca421e4)" style="fill: none; stroke: #cccccc; stroke-linecap: round"/>
     </g>
     <g id="text_8">
      <!-- Aug -->
      <g style="fill: #262626" transform="translate(72.003167 416.524031)scale(0.17 -0.17)">
       <defs>
        <path id="ArialMT-67" d="M 319 -275 
L 866 -356 
Q 900 -609 1056 -725 
Q 1266 -881 1628 -881 
Q 2019 -881 2231 -725 
Q 2444 -569 2519 -288 
Q 2563 -116 2559 434 
Q 2191 0 1641 0 
Q 956 0 581 494 
Q 206 988 206 1678 
Q 206 2153 378 2554 
Q 550 2956 876 3175 
Q 1203 3394 1644 3394 
Q 2231 3394 2613 2919 
L 2613 3319 
L 3131 3319 
L 3131 450 
Q 3131 -325 2973 -648 
Q 2816 -972 2473 -1159 
Q 2131 -1347 1631 -1347 
Q 1038 -1347 672 -1080 
Q 306 -813 319 -275 
z
M 784 1719 
Q 784 1066 1043 766 
Q 1303 466 1694 466 
Q 2081 466 2343 764 
Q 2606 1063 2606 1700 
Q 2606 2309 2336 2618 
Q 2066 2928 1684 2928 
Q 1309 2928 1046 2623 
Q 784 2319 784 1719 
z
" transform="scale(0.015625)"/>
       </defs>
       <use xlink:href="#ArialMT-41"/>
       <use xlink:href="#ArialMT-75" x="66.699219"/>
       <use xlink:href="#ArialMT-67" x="122.314453"/>
      </g>
     </g>
    </g>
    <g id="xtick_9">
     <g id="line2d_9">
      <path d="M 302.29725 288 
L 186.318375 488.881304 
" clip-path="url(#p887ca421e4)" style="fill: none; stroke: #cccccc; stroke-linecap: round"/>
     </g>
     <g id="text_9">
      <!-- Sep -->
      <g style="fill: #262626" transform="translate(162.945016 507.669083)scale(0.17 -0.17)">
       <defs>
        <path id="ArialMT-53" d="M 288 1472 
L 859 1522 
Q 900 1178 1048 958 
Q 1197 738 1509 602 
Q 1822 466 2213 466 
Q 2559 466 2825 569 
Q 3091 672 3220 851 
Q 3350 1031 3350 1244 
Q 3350 1459 3225 1620 
Q 3100 1781 2813 1891 
Q 2628 1963 1997 2114 
Q 1366 2266 1113 2400 
Q 784 2572 623 2826 
Q 463 3081 463 3397 
Q 463 3744 659 4045 
Q 856 4347 1234 4503 
Q 1613 4659 2075 4659 
Q 2584 4659 2973 4495 
Q 3363 4331 3572 4012 
Q 3781 3694 3797 3291 
L 3216 3247 
Q 3169 3681 2898 3903 
Q 2628 4125 2100 4125 
Q 1550 4125 1298 3923 
Q 1047 3722 1047 3438 
Q 1047 3191 1225 3031 
Q 1400 2872 2139 2705 
Q 2878 2538 3153 2413 
Q 3553 2228 3743 1945 
Q 3934 1663 3934 1294 
Q 3934 928 3725 604 
Q 3516 281 3123 101 
Q 2731 -78 2241 -78 
Q 1619 -78 1198 103 
Q 778 284 539 648 
Q 300 1013 288 1472 
z
" transform="scale(0.015625)"/>
       </defs>
       <use xlink:href="#ArialMT-53"/>
       <use xlink:href="#ArialMT-65" x="66.699219"/>
       <use xlink:href="#ArialMT-70" x="122.314453"/>
      </g>
     </g>
    </g>
    <g id="xtick_10">
     <g id="line2d_10">
      <path d="M 302.29725 288 
L 302.29725 519.95775 
" clip-path="url(#p887ca421e4)" style="fill: none; stroke: #cccccc; stroke-linecap: round"/>
     </g>
     <g id="text_10">
      <!-- Oct -->
      <g style="fill: #262626" transform="translate(289.074437 540.852516)scale(0.17 -0.17)">
       <defs>
        <path id="ArialMT-4f" d="M 309 2231 
Q 309 3372 921 4017 
Q 1534 4663 2503 4663 
Q 3138 4663 3647 4359 
Q 4156 4056 4423 3514 
Q 4691 2972 4691 2284 
Q 4691 1588 4409 1038 
Q 4128 488 3612 205 
Q 3097 -78 2500 -78 
Q 1853 -78 1343 234 
Q 834 547 571 1087 
Q 309 1628 309 2231 
z
M 934 2222 
Q 934 1394 1379 917 
Q 1825 441 2497 441 
Q 3181 441 3623 922 
Q 4066 1403 4066 2288 
Q 4066 2847 3877 3264 
Q 3688 3681 3323 3911 
Q 2959 4141 2506 4141 
Q 1863 4141 1398 3698 
Q 934 3256 934 2222 
z
" transform="scale(0.015625)"/>
        <path id="ArialMT-63" d="M 2588 1216 
L 3141 1144 
Q 3050 572 2676 248 
Q 2303 -75 1759 -75 
Q 1078 -75 664 370 
Q 250 816 250 1647 
Q 250 2184 428 2587 
Q 606 2991 970 3192 
Q 1334 3394 1763 3394 
Q 2303 3394 2647 3120 
Q 2991 2847 3088 2344 
L 2541 2259 
Q 2463 2594 2264 2762 
Q 2066 2931 1784 2931 
Q 1359 2931 1093 2626 
Q 828 2322 828 1663 
Q 828 994 1084 691 
Q 1341 388 1753 388 
Q 2084 388 2306 591 
Q 2528 794 2588 1216 
z
" transform="scale(0.015625)"/>
        <path id="ArialMT-74" d="M 1650 503 
L 1731 6 
Q 1494 -44 1306 -44 
Q 1000 -44 831 53 
Q 663 150 594 308 
Q 525 466 525 972 
L 525 2881 
L 113 2881 
L 113 3319 
L 525 3319 
L 525 4141 
L 1084 4478 
L 1084 3319 
L 1650 3319 
L 1650 2881 
L 1084 2881 
L 1084 941 
Q 1084 700 1114 631 
Q 1144 563 1211 522 
Q 1278 481 1403 481 
Q 1497 481 1650 503 
z
" transform="scale(0.015625)"/>
       </defs>
       <use xlink:href="#ArialMT-4f"/>
       <use xlink:href="#ArialMT-63" x="77.783203"/>
       <use xlink:href="#ArialMT-74" x="127.783203"/>
      </g>
     </g>
    </g>
    <g id="xtick_11">
     <g id="line2d_11">
      <path d="M 302.29725 288 
L 418.276125 488.881304 
" clip-path="url(#p887ca421e4)" style="fill: none; stroke: #cccccc; stroke-linecap: round"/>
     </g>
     <g id="text_11">
      <!-- Nov -->
      <g style="fill: #262626" transform="translate(411.410734 507.565489)scale(0.17 -0.17)">
       <defs>
        <path id="ArialMT-4e" d="M 488 0 
L 488 4581 
L 1109 4581 
L 3516 984 
L 3516 4581 
L 4097 4581 
L 4097 0 
L 3475 0 
L 1069 3600 
L 1069 0 
L 488 0 
z
" transform="scale(0.015625)"/>
        <path id="ArialMT-6f" d="M 213 1659 
Q 213 2581 725 3025 
Q 1153 3394 1769 3394 
Q 2453 3394 2887 2945 
Q 3322 2497 3322 1706 
Q 3322 1066 3130 698 
Q 2938 331 2570 128 
Q 2203 -75 1769 -75 
Q 1072 -75 642 372 
Q 213 819 213 1659 
z
M 791 1659 
Q 791 1022 1069 705 
Q 1347 388 1769 388 
Q 2188 388 2466 706 
Q 2744 1025 2744 1678 
Q 2744 2294 2464 2611 
Q 2184 2928 1769 2928 
Q 1347 2928 1069 2612 
Q 791 2297 791 1659 
z
" transform="scale(0.015625)"/>
        <path id="ArialMT-76" d="M 1344 0 
L 81 3319 
L 675 3319 
L 1388 1331 
Q 1503 1009 1600 663 
Q 1675 925 1809 1294 
L 2547 3319 
L 3125 3319 
L 1869 0 
L 1344 0 
z
" transform="scale(0.015625)"/>
       </defs>
       <use xlink:href="#ArialMT-4e"/>
       <use xlink:href="#ArialMT-6f" x="72.216797"/>
       <use xlink:href="#ArialMT-76" x="127.832031"/>
      </g>
     </g>
    </g>
    <g id="xtick_12">
     <g id="line2d_12">
      <path d="M 302.29725 288 
L 503.178554 403.978875 
" clip-path="url(#p887ca421e4)" style="fill: none; stroke: #cccccc; stroke-linecap: round"/>
     </g>
     <g id="text_12">
      <!-- Dec -->
      <g style="fill: #262626" transform="translate(502.352583 416.623641)scale(0.17 -0.17)">
       <defs>
        <path id="ArialMT-44" d="M 494 0 
L 494 4581 
L 2072 4581 
Q 2606 4581 2888 4516 
Q 3281 4425 3559 4188 
Q 3922 3881 4101 3404 
Q 4281 2928 4281 2316 
Q 4281 1794 4159 1391 
Q 4038 988 3847 723 
Q 3656 459 3429 307 
Q 3203 156 2883 78 
Q 2563 0 2147 0 
L 494 0 
z
M 1100 541 
L 2078 541 
Q 2531 541 2789 625 
Q 3047 709 3200 863 
Q 3416 1078 3536 1442 
Q 3656 1806 3656 2325 
Q 3656 3044 3420 3430 
Q 3184 3816 2847 3947 
Q 2603 4041 2063 4041 
L 1100 4041 
L 1100 541 
z
" transform="scale(0.015625)"/>
       </defs>
       <use xlink:href="#ArialMT-44"/>
       <use xlink:href="#ArialMT-65" x="72.216797"/>
       <use xlink:href="#ArialMT-63" x="127.832031"/>
      </g>
     </g>
    </g>
   </g>
   <g id="matplotlib.axis_2">
    <g id="ytick_1">
     <g id="line2d_13">
      <path d="M 333.888588 288 
C 333.888588 283.851464 333.071417 279.743266 331.483841 275.910518 
C 329.896264 272.07777 327.569158 268.595009 324.635699 265.661551 
C 321.702241 262.728092 318.21948 260.400986 314.386732 258.813409 
C 310.553984 257.225833 306.445786 256.408662 302.29725 256.408662 
C 298.148714 256.408662 294.040516 257.225833 290.207768 258.813409 
C 286.37502 260.400986 282.892259 262.728092 279.958801 265.661551 
C 277.025342 268.595009 274.698236 272.07777 273.110659 275.910518 
C 271.523083 279.743266 270.705912 283.851464 270.705912 288 
C 270.705912 292.148536 271.523083 296.256734 273.110659 300.089482 
C 274.698236 303.92223 277.025342 307.404991 279.958801 310.338449 
C 282.892259 313.271908 286.37502 315.599014 290.207768 317.186591 
C 294.040516 318.774167 298.148714 319.591338 302.29725 319.591338 
C 306.445786 319.591338 310.553984 318.774167 314.386732 317.186591 
C 318.21948 315.599014 321.702241 313.271908 324.635699 310.338449 
C 327.569158 307.404991 329.896264 303.92223 331.483841 300.089482 
C 333.071417 296.256734 333.888588 292.148536 333.888588 288 
" clip-path="url(#p887ca421e4)" style="fill: none; stroke: #cccccc; stroke-linecap: round"/>
     </g>
     <g id="text_13">
      <!-- $\mathdefault{0.5}$ -->
      <g style="fill: #262626" transform="translate(331.483841 273.128018)scale(0.14 -0.14)">
       <defs>
        <path id="ArialMT-30" d="M 266 2259 
Q 266 3072 433 3567 
Q 600 4063 929 4331 
Q 1259 4600 1759 4600 
Q 2128 4600 2406 4451 
Q 2684 4303 2865 4023 
Q 3047 3744 3150 3342 
Q 3253 2941 3253 2259 
Q 3253 1453 3087 958 
Q 2922 463 2592 192 
Q 2263 -78 1759 -78 
Q 1097 -78 719 397 
Q 266 969 266 2259 
z
M 844 2259 
Q 844 1131 1108 757 
Q 1372 384 1759 384 
Q 2147 384 2411 759 
Q 2675 1134 2675 2259 
Q 2675 3391 2411 3762 
Q 2147 4134 1753 4134 
Q 1366 4134 1134 3806 
Q 844 3388 844 2259 
z
" transform="scale(0.015625)"/>
        <path id="ArialMT-2e" d="M 581 0 
L 581 641 
L 1222 641 
L 1222 0 
L 581 0 
z
" transform="scale(0.015625)"/>
        <path id="ArialMT-35" d="M 266 1200 
L 856 1250 
Q 922 819 1161 601 
Q 1400 384 1738 384 
Q 2144 384 2425 690 
Q 2706 997 2706 1503 
Q 2706 1984 2436 2262 
Q 2166 2541 1728 2541 
Q 1456 2541 1237 2417 
Q 1019 2294 894 2097 
L 366 2166 
L 809 4519 
L 3088 4519 
L 3088 3981 
L 1259 3981 
L 1013 2750 
Q 1425 3038 1878 3038 
Q 2478 3038 2890 2622 
Q 3303 2206 3303 1553 
Q 3303 931 2941 478 
Q 2500 -78 1738 -78 
Q 1113 -78 717 272 
Q 322 622 266 1200 
z
" transform="scale(0.015625)"/>
       </defs>
       <use xlink:href="#ArialMT-30" transform="translate(0 0.125)"/>
       <use xlink:href="#ArialMT-2e" transform="translate(55.615234 0.125)"/>
       <use xlink:href="#ArialMT-35" transform="translate(83.398438 0.125)"/>
      </g>
     </g>
    </g>
    <g id="ytick_2">
     <g id="line2d_14">
      <path d="M 365.479926 288 
C 365.479926 279.702927 363.845583 271.486533 360.670431 263.821037 
C 357.495279 256.155541 352.841065 249.190018 346.974149 243.323101 
C 341.107232 237.456185 334.141709 232.801971 326.476213 229.626819 
C 318.810717 226.451667 310.594323 224.817324 302.29725 224.817324 
C 294.000177 224.817324 285.783783 226.451667 278.118287 229.626819 
C 270.452791 232.801971 263.487268 237.456185 257.620351 243.323101 
C 251.753435 249.190018 247.099221 256.155541 243.924069 263.821037 
C 240.748917 271.486533 239.114574 279.702927 239.114574 288 
C 239.114574 296.297073 240.748917 304.513467 243.924069 312.178963 
C 247.099221 319.844459 251.753435 326.809982 257.620351 332.676899 
C 263.487268 338.543815 270.452791 343.198029 278.118287 346.373181 
C 285.783783 349.548333 294.000177 351.182676 302.29725 351.182676 
C 310.594323 351.182676 318.810717 349.548333 326.476213 346.373181 
C 334.141709 343.198029 341.107232 338.543815 346.974149 332.676899 
C 352.841065 326.809982 357.495279 319.844459 360.670431 312.178963 
C 363.845583 304.513467 365.479926 296.297073 365.479926 288 
" clip-path="url(#p887ca421e4)" style="fill: none; stroke: #cccccc; stroke-linecap: round"/>
     </g>
     <g id="text_14">
      <!-- $\mathdefault{1.0}$ -->
      <g style="fill: #262626" transform="translate(360.670431 261.038537)scale(0.14 -0.14)">
       <defs>
        <path id="ArialMT-31" d="M 2384 0 
L 1822 0 
L 1822 3584 
Q 1619 3391 1289 3197 
Q 959 3003 697 2906 
L 697 3450 
Q 1169 3672 1522 3987 
Q 1875 4303 2022 4600 
L 2384 4600 
L 2384 0 
z
" transform="scale(0.015625)"/>
       </defs>
       <use xlink:href="#ArialMT-31" transform="translate(0 0.125)"/>
       <use xlink:href="#ArialMT-2e" transform="translate(55.615234 0.125)"/>
       <use xlink:href="#ArialMT-30" transform="translate(83.398438 0.125)"/>
      </g>
     </g>
    </g>
    <g id="ytick_3">
     <g id="line2d_15">
      <path d="M 397.071264 288 
C 397.071264 275.554391 394.61975 263.229799 389.857022 251.731555 
C 385.094293 240.233311 378.112973 229.785027 369.312598 220.984652 
C 360.512223 212.184277 350.063939 205.202957 338.565695 200.440228 
C 327.067451 195.6775 314.742859 193.225986 302.29725 193.225986 
C 289.851641 193.225986 277.527049 195.6775 266.028805 200.440228 
C 254.530561 205.202957 244.082277 212.184277 235.281902 220.984652 
C 226.481527 229.785027 219.500207 240.233311 214.737478 251.731555 
C 209.97475 263.229799 207.523236 275.554391 207.523236 288 
C 207.523236 300.445609 209.97475 312.770201 214.737478 324.268445 
C 219.500207 335.766689 226.481527 346.214973 235.281902 355.015348 
C 244.082277 363.815723 254.530561 370.797043 266.028805 375.559772 
C 277.527049 380.3225 289.851641 382.774014 302.29725 382.774014 
C 314.742859 382.774014 327.067451 380.3225 338.565695 375.559772 
C 350.063939 370.797043 360.512223 363.815723 369.312598 355.015348 
C 378.112973 346.214973 385.094293 335.766689 389.857022 324.268445 
C 394.61975 312.770201 397.071264 300.445609 397.071264 288 
" clip-path="url(#p887ca421e4)" style="fill: none; stroke: #cccccc; stroke-linecap: round"/>
     </g>
     <g id="text_15">
      <!-- $\mathdefault{1.5}$ -->
      <g style="fill: #262626" transform="translate(389.857022 248.949055)scale(0.14 -0.14)">
       <use xlink:href="#ArialMT-31" transform="translate(0 0.125)"/>
       <use xlink:href="#ArialMT-2e" transform="translate(55.615234 0.125)"/>
       <use xlink:href="#ArialMT-35" transform="translate(83.398438 0.125)"/>
      </g>
     </g>
    </g>
    <g id="ytick_4">
     <g id="line2d_16">
      <path d="M 428.662602 288 
C 428.662602 271.405854 425.393917 254.973065 419.043612 239.642073 
C 412.693307 224.311082 403.38488 210.380036 391.651047 198.646203 
C 379.917214 186.91237 365.986168 177.603943 350.655177 171.253638 
C 335.324185 164.903333 318.891396 161.634648 302.29725 161.634648 
C 285.703104 161.634648 269.270315 164.903333 253.939323 171.253638 
C 238.608332 177.603943 224.677286 186.91237 212.943453 198.646203 
C 201.20962 210.380036 191.901193 224.311082 185.550888 239.642073 
C 179.200583 254.973065 175.931898 271.405854 175.931898 288 
C 175.931898 304.594146 179.200583 321.026935 185.550888 336.357927 
C 191.901193 351.688918 201.20962 365.619964 212.943453 377.353797 
C 224.677286 389.08763 238.608332 398.396057 253.939323 404.746362 
C 269.270315 411.096667 285.703104 414.365352 302.29725 414.365352 
C 318.891396 414.365352 335.324185 411.096667 350.655177 404.746362 
C 365.986168 398.396057 379.917214 389.08763 391.651047 377.353797 
C 403.38488 365.619964 412.693307 351.688918 419.043612 336.357927 
C 425.393917 321.026935 428.662602 304.594146 428.662602 288 
" clip-path="url(#p887ca421e4)" style="fill: none; stroke: #cccccc; stroke-linecap: round"/>
     </g>
     <g id="text_16">
      <!-- $\mathdefault{2.0}$ -->
      <g style="fill: #262626" transform="translate(419.043612 236.859573)scale(0.14 -0.14)">
       <defs>
        <path id="ArialMT-32" d="M 3222 541 
L 3222 0 
L 194 0 
Q 188 203 259 391 
Q 375 700 629 1000 
Q 884 1300 1366 1694 
Q 2113 2306 2375 2664 
Q 2638 3022 2638 3341 
Q 2638 3675 2398 3904 
Q 2159 4134 1775 4134 
Q 1369 4134 1125 3890 
Q 881 3647 878 3216 
L 300 3275 
Q 359 3922 746 4261 
Q 1134 4600 1788 4600 
Q 2447 4600 2831 4234 
Q 3216 3869 3216 3328 
Q 3216 3053 3103 2787 
Q 2991 2522 2730 2228 
Q 2469 1934 1863 1422 
Q 1356 997 1212 845 
Q 1069 694 975 541 
L 3222 541 
z
" transform="scale(0.015625)"/>
       </defs>
       <use xlink:href="#ArialMT-32" transform="translate(0 0.125)"/>
       <use xlink:href="#ArialMT-2e" transform="translate(55.615234 0.125)"/>
       <use xlink:href="#ArialMT-30" transform="translate(83.398438 0.125)"/>
      </g>
     </g>
    </g>
    <g id="ytick_5">
     <g id="line2d_17">
      <path d="M 460.25394 288 
C 460.25394 267.257318 456.168084 246.716332 448.230203 227.552592 
C 440.292322 208.388852 428.656788 190.975045 413.989496 176.307754 
C 399.322205 161.640462 381.908398 150.004928 362.744658 142.067047 
C 343.580918 134.129166 323.039932 130.04331 302.29725 130.04331 
C 281.554568 130.04331 261.013582 134.129166 241.849842 142.067047 
C 222.686102 150.004928 205.272295 161.640462 190.605004 176.307754 
C 175.937712 190.975045 164.302178 208.388852 156.364297 227.552592 
C 148.426416 246.716332 144.34056 267.257318 144.34056 288 
C 144.34056 308.742682 148.426416 329.283668 156.364297 348.447408 
C 164.302178 367.611148 175.937712 385.024955 190.605004 399.692246 
C 205.272295 414.359538 222.686102 425.995072 241.849842 433.932953 
C 261.013582 441.870834 281.554568 445.95669 302.29725 445.95669 
C 323.039932 445.95669 343.580918 441.870834 362.744658 433.932953 
C 381.908398 425.995072 399.322205 414.359538 413.989496 399.692246 
C 428.656788 385.024955 440.292322 367.611148 448.230203 348.447408 
C 456.168084 329.283668 460.25394 308.742682 460.25394 288 
" clip-path="url(#p887ca421e4)" style="fill: none; stroke: #cccccc; stroke-linecap: round"/>
     </g>
     <g id="text_17">
      <!-- $\mathdefault{2.5}$ -->
      <g style="fill: #262626" transform="translate(448.230203 224.770092)scale(0.14 -0.14)">
       <use xlink:href="#ArialMT-32" transform="translate(0 0.125)"/>
       <use xlink:href="#ArialMT-2e" transform="translate(55.615234 0.125)"/>
       <use xlink:href="#ArialMT-35" transform="translate(83.398438 0.125)"/>
      </g>
     </g>
    </g>
    <g id="ytick_6">
     <g id="line2d_18">
      <path d="M 491.845278 288 
C 491.845278 263.108781 486.94225 238.459598 477.416793 215.46311 
C 467.891336 192.466622 453.928695 171.570054 436.327946 153.969304 
C 418.727196 136.368555 397.830628 122.405914 374.83414 112.880457 
C 351.837652 103.355 327.188469 98.451972 302.29725 98.451972 
C 277.406031 98.451972 252.756848 103.355 229.76036 112.880457 
C 206.763872 122.405914 185.867304 136.368555 168.266554 153.969304 
C 150.665805 171.570054 136.703164 192.466622 127.177707 215.46311 
C 117.65225 238.459598 112.749222 263.108781 112.749222 288 
C 112.749222 312.891219 117.65225 337.540402 127.177707 360.53689 
C 136.703164 383.533378 150.665805 404.429946 168.266554 422.030696 
C 185.867304 439.631445 206.763872 453.594086 229.76036 463.119543 
C 252.756848 472.645 277.406031 477.548028 302.29725 477.548028 
C 327.188469 477.548028 351.837652 472.645 374.83414 463.119543 
C 397.830628 453.594086 418.727196 439.631445 436.327946 422.030696 
C 453.928695 404.429946 467.891336 383.533378 477.416793 360.53689 
C 486.94225 337.540402 491.845278 312.891219 491.845278 288 
" clip-path="url(#p887ca421e4)" style="fill: none; stroke: #cccccc; stroke-linecap: round"/>
     </g>
     <g id="text_18">
      <!-- $\mathdefault{3.0}$ -->
      <g style="fill: #262626" transform="translate(477.416793 212.68061)scale(0.14 -0.14)">
       <defs>
        <path id="ArialMT-33" d="M 269 1209 
L 831 1284 
Q 928 806 1161 595 
Q 1394 384 1728 384 
Q 2125 384 2398 659 
Q 2672 934 2672 1341 
Q 2672 1728 2419 1979 
Q 2166 2231 1775 2231 
Q 1616 2231 1378 2169 
L 1441 2663 
Q 1497 2656 1531 2656 
Q 1891 2656 2178 2843 
Q 2466 3031 2466 3422 
Q 2466 3731 2256 3934 
Q 2047 4138 1716 4138 
Q 1388 4138 1169 3931 
Q 950 3725 888 3313 
L 325 3413 
Q 428 3978 793 4289 
Q 1159 4600 1703 4600 
Q 2078 4600 2393 4439 
Q 2709 4278 2876 4000 
Q 3044 3722 3044 3409 
Q 3044 3113 2884 2869 
Q 2725 2625 2413 2481 
Q 2819 2388 3044 2092 
Q 3269 1797 3269 1353 
Q 3269 753 2831 336 
Q 2394 -81 1725 -81 
Q 1122 -81 723 278 
Q 325 638 269 1209 
z
" transform="scale(0.015625)"/>
       </defs>
       <use xlink:href="#ArialMT-33" transform="translate(0 0.125)"/>
       <use xlink:href="#ArialMT-2e" transform="translate(55.615234 0.125)"/>
       <use xlink:href="#ArialMT-30" transform="translate(83.398438 0.125)"/>
      </g>
     </g>
    </g>
    <g id="ytick_7">
     <g id="line2d_19">
      <path d="M 523.436616 288 
C 523.436616 258.960245 517.716417 230.202864 506.603384 203.373629 
C 495.49035 176.544393 479.200603 152.165063 458.666395 131.630855 
C 438.132187 111.096647 413.752857 94.8069 386.923621 83.693866 
C 360.094386 72.580833 331.337005 66.860634 302.29725 66.860634 
C 273.257495 66.860634 244.500114 72.580833 217.670879 83.693866 
C 190.841643 94.8069 166.462313 111.096647 145.928105 131.630855 
C 125.393897 152.165063 109.10415 176.544393 97.991116 203.373629 
C 86.878083 230.202864 81.157884 258.960245 81.157884 288 
C 81.157884 317.039755 86.878083 345.797136 97.991116 372.626371 
C 109.10415 399.455607 125.393897 423.834937 145.928105 444.369145 
C 166.462313 464.903353 190.841643 481.1931 217.670879 492.306134 
C 244.500114 503.419167 273.257495 509.139366 302.29725 509.139366 
C 331.337005 509.139366 360.094386 503.419167 386.923621 492.306134 
C 413.752857 481.1931 438.132187 464.903353 458.666395 444.369145 
C 479.200603 423.834937 495.49035 399.455607 506.603384 372.626371 
C 517.716417 345.797136 523.436616 317.039755 523.436616 288 
" clip-path="url(#p887ca421e4)" style="fill: none; stroke: #cccccc; stroke-linecap: round"/>
     </g>
     <g id="text_19">
      <!-- $\mathdefault{3.5}$ -->
      <g style="fill: #262626" transform="translate(506.603384 200.591129)scale(0.14 -0.14)">
       <use xlink:href="#ArialMT-33" transform="translate(0 0.125)"/>
       <use xlink:href="#ArialMT-2e" transform="translate(55.615234 0.125)"/>
       <use xlink:href="#ArialMT-35" transform="translate(83.398438 0.125)"/>
      </g>
     </g>
    </g>
    <g id="text_20">
     <!-- Total Solar Irradiance (W/m2) -->
     <g style="fill: #262626" transform="translate(20.58045 392.02125)rotate(-90)scale(0.16 -0.16)">
      <defs>
       <path id="ArialMT-54" d="M 1659 0 
L 1659 4041 
L 150 4041 
L 150 4581 
L 3781 4581 
L 3781 4041 
L 2266 4041 
L 2266 0 
L 1659 0 
z
" transform="scale(0.015625)"/>
       <path id="ArialMT-20" transform="scale(0.015625)"/>
       <path id="ArialMT-49" d="M 597 0 
L 597 4581 
L 1203 4581 
L 1203 0 
L 597 0 
z
" transform="scale(0.015625)"/>
       <path id="ArialMT-64" d="M 2575 0 
L 2575 419 
Q 2259 -75 1647 -75 
Q 1250 -75 917 144 
Q 584 363 401 755 
Q 219 1147 219 1656 
Q 219 2153 384 2558 
Q 550 2963 881 3178 
Q 1213 3394 1622 3394 
Q 1922 3394 2156 3267 
Q 2391 3141 2538 2938 
L 2538 4581 
L 3097 4581 
L 3097 0 
L 2575 0 
z
M 797 1656 
Q 797 1019 1065 703 
Q 1334 388 1700 388 
Q 2069 388 2326 689 
Q 2584 991 2584 1609 
Q 2584 2291 2321 2609 
Q 2059 2928 1675 2928 
Q 1300 2928 1048 2622 
Q 797 2316 797 1656 
z
" transform="scale(0.015625)"/>
       <path id="ArialMT-69" d="M 425 3934 
L 425 4581 
L 988 4581 
L 988 3934 
L 425 3934 
z
M 425 0 
L 425 3319 
L 988 3319 
L 988 0 
L 425 0 
z
" transform="scale(0.015625)"/>
       <path id="ArialMT-28" d="M 1497 -1347 
Q 1031 -759 709 28 
Q 388 816 388 1659 
Q 388 2403 628 3084 
Q 909 3875 1497 4659 
L 1900 4659 
Q 1522 4009 1400 3731 
Q 1209 3300 1100 2831 
Q 966 2247 966 1656 
Q 966 153 1900 -1347 
L 1497 -1347 
z
" transform="scale(0.015625)"/>
       <path id="ArialMT-57" d="M 1294 0 
L 78 4581 
L 700 4581 
L 1397 1578 
Q 1509 1106 1591 641 
Q 1766 1375 1797 1488 
L 2669 4581 
L 3400 4581 
L 4056 2263 
Q 4303 1400 4413 641 
Q 4500 1075 4641 1638 
L 5359 4581 
L 5969 4581 
L 4713 0 
L 4128 0 
L 3163 3491 
Q 3041 3928 3019 4028 
Q 2947 3713 2884 3491 
L 1913 0 
L 1294 0 
z
" transform="scale(0.015625)"/>
       <path id="ArialMT-2f" d="M 0 -78 
L 1328 4659 
L 1778 4659 
L 453 -78 
L 0 -78 
z
" transform="scale(0.015625)"/>
       <path id="ArialMT-6d" d="M 422 0 
L 422 3319 
L 925 3319 
L 925 2853 
Q 1081 3097 1340 3245 
Q 1600 3394 1931 3394 
Q 2300 3394 2536 3241 
Q 2772 3088 2869 2813 
Q 3263 3394 3894 3394 
Q 4388 3394 4653 3120 
Q 4919 2847 4919 2278 
L 4919 0 
L 4359 0 
L 4359 2091 
Q 4359 2428 4304 2576 
Q 4250 2725 4106 2815 
Q 3963 2906 3769 2906 
Q 3419 2906 3187 2673 
Q 2956 2441 2956 1928 
L 2956 0 
L 2394 0 
L 2394 2156 
Q 2394 2531 2256 2718 
Q 2119 2906 1806 2906 
Q 1569 2906 1367 2781 
Q 1166 2656 1075 2415 
Q 984 2175 984 1722 
L 984 0 
L 422 0 
z
" transform="scale(0.015625)"/>
       <path id="ArialMT-29" d="M 791 -1347 
L 388 -1347 
Q 1322 153 1322 1656 
Q 1322 2244 1188 2822 
Q 1081 3291 891 3722 
Q 769 4003 388 4659 
L 791 4659 
Q 1378 3875 1659 3084 
Q 1900 2403 1900 1659 
Q 1900 816 1576 28 
Q 1253 -759 791 -1347 
z
" transform="scale(0.015625)"/>
      </defs>
      <use xlink:href="#ArialMT-54"/>
      <use xlink:href="#ArialMT-6f" x="49.958984"/>
      <use xlink:href="#ArialMT-74" x="105.574219"/>
      <use xlink:href="#ArialMT-61" x="133.357422"/>
      <use xlink:href="#ArialMT-6c" x="188.972656"/>
      <use xlink:href="#ArialMT-20" x="211.189453"/>
      <use xlink:href="#ArialMT-53" x="238.972656"/>
      <use xlink:href="#ArialMT-6f" x="305.671875"/>
      <use xlink:href="#ArialMT-6c" x="361.287109"/>
      <use xlink:href="#ArialMT-61" x="383.503906"/>
      <use xlink:href="#ArialMT-72" x="439.119141"/>
      <use xlink:href="#ArialMT-20" x="472.419922"/>
      <use xlink:href="#ArialMT-49" x="500.203125"/>
      <use xlink:href="#ArialMT-72" x="527.986328"/>
      <use xlink:href="#ArialMT-72" x="561.287109"/>
      <use xlink:href="#ArialMT-61" x="594.587891"/>
      <use xlink:href="#ArialMT-64" x="650.203125"/>
      <use xlink:href="#ArialMT-69" x="705.818359"/>
      <use xlink:href="#ArialMT-61" x="728.035156"/>
      <use xlink:href="#ArialMT-6e" x="783.650391"/>
      <use xlink:href="#ArialMT-63" x="839.265625"/>
      <use xlink:href="#ArialMT-65" x="889.265625"/>
      <use xlink:href="#ArialMT-20" x="944.880859"/>
      <use xlink:href="#ArialMT-28" x="972.664062"/>
      <use xlink:href="#ArialMT-57" x="1005.964844"/>
      <use xlink:href="#ArialMT-2f" x="1100.349609"/>
      <use xlink:href="#ArialMT-6d" x="1128.132812"/>
      <use xlink:href="#ArialMT-32" x="1211.433594"/>
      <use xlink:href="#ArialMT-29" x="1267.048828"/>
     </g>
    </g>
    <g id="text_21">
     <!-- $\times\mathdefault{10^{5}}\mathdefault{}$ -->
     <g style="fill: #262626" transform="translate(70.3395 53.04225)scale(0.11 -0.11)">
      <defs>
       <path id="DejaVuSans-d7" d="M 4488 3438 
L 3059 2003 
L 4488 575 
L 4116 197 
L 2681 1631 
L 1247 197 
L 878 575 
L 2303 2003 
L 878 3438 
L 1247 3816 
L 2681 2381 
L 4116 3816 
L 4488 3438 
z
" transform="scale(0.015625)"/>
      </defs>
      <use xlink:href="#DejaVuSans-d7" transform="translate(0 0.879688)"/>
      <use xlink:href="#ArialMT-31" transform="translate(83.789062 0.879688)"/>
      <use xlink:href="#ArialMT-30" transform="translate(139.404297 0.879688)"/>
      <use xlink:href="#ArialMT-35" transform="translate(196.761875 70.573438)scale(0.7)"/>
     </g>
    </g>
   </g>
   <g id="patch_3">
    <path d="M 308.567651 288 
L 319.054185 278.325379 
L 337.270322 227.424862 
L 302.29725 143.201803 
L 216.570057 139.516147 
L 110.775725 177.424996 
L 93.003056 288 
L 190.033992 352.815222 
L 260.926048 359.657023 
L 302.29725 330.567773 
L 309.290576 300.112795 
L 306.623192 290.497584 
z
" clip-path="url(#p887ca421e4)" style="fill: #87ceeb; opacity: 0.5; stroke: #87ceeb; stroke-linejoin: miter"/>
   </g>
   <g id="patch_4">
    <path d="M 330.623616 288 
L 341.226389 265.524251 
L 342.04265 219.158947 
L 302.29725 206.15056 
L 247.053043 192.314227 
L 202.958944 230.647002 
L 174.642271 288 
L 204.286021 344.586809 
L 265.05301 352.508916 
L 302.29725 349.521386 
L 322.162054 322.406849 
L 326.436725 301.936932 
z
" clip-path="url(#p887ca421e4)" style="fill: #ffa500; opacity: 0.4; stroke: #ffa500; stroke-linejoin: miter"/>
   </g>
   <g id="patch_5">
    <path d="M 318.905871 288 
L 331.297157 271.256896 
L 332.412769 235.838391 
L 302.29725 208.01132 
L 261.420065 217.198639 
L 216.165273 238.27168 
L 219.931262 288 
L 243.6324 321.870167 
L 269.704235 344.452759 
L 302.29725 327.954858 
L 312.894762 306.355429 
L 314.668295 295.142426 
z
" clip-path="url(#p887ca421e4)" style="fill: #ff0000; opacity: 0.4; stroke: #ff0000; stroke-linejoin: miter"/>
   </g>
   <g id="patch_6">
    <path d="M 534.255 288 
C 534.255 257.539587 528.254963 227.375364 516.598268 199.233612 
C 504.941572 171.09186 487.854912 145.519866 466.316148 123.981102 
C 444.777384 102.442338 419.20539 85.355678 391.063638 73.698982 
C 362.921886 62.042287 332.757663 56.04225 302.29725 56.04225 
C 271.836837 56.04225 241.672614 62.042287 213.530862 73.698982 
C 185.38911 85.355678 159.817116 102.442338 138.278352 123.981102 
C 116.739588 145.519866 99.652928 171.09186 87.996232 199.233612 
C 76.339537 227.375364 70.3395 257.539587 70.3395 288 
C 70.3395 318.460413 76.339537 348.624636 87.996232 376.766388 
C 99.652928 404.90814 116.739588 430.480134 138.278352 452.018898 
C 159.817116 473.557662 185.38911 490.644322 213.530862 502.301018 
C 241.672614 513.957713 271.836837 519.95775 302.29725 519.95775 
C 332.757663 519.95775 362.921886 513.957713 391.063638 502.301018 
C 419.20539 490.644322 444.777384 473.557662 466.316148 452.018898 
C 487.854912 430.480134 504.941572 404.90814 516.598268 376.766388 
C 528.254963 348.624636 534.255 318.460413 534.255 288 
" style="fill: none; stroke: #262626; stroke-width: 1.25; stroke-linejoin: miter; stroke-linecap: square"/>
   </g>
   <g id="legend_1">
    <g id="patch_7">
     <path d="M 455.897187 111.521781 
L 526.555 111.521781 
Q 528.755 111.521781 528.755 109.321781 
L 528.755 63.74225 
Q 528.755 61.54225 526.555 61.54225 
L 455.897187 61.54225 
Q 453.697187 61.54225 453.697187 63.74225 
L 453.697187 109.321781 
Q 453.697187 111.521781 455.897187 111.521781 
z
" style="fill: #ffffff; opacity: 0.8; stroke: #cccccc; stroke-linejoin: miter"/>
    </g>
    <g id="patch_8">
     <path d="M 458.097187 73.815844 
L 480.097187 73.815844 
L 480.097187 66.115844 
L 458.097187 66.115844 
z
" style="fill: #87ceeb; opacity: 0.5; stroke: #87ceeb; stroke-linejoin: miter"/>
    </g>
    <g id="text_22">
     <!-- Tallin -->
     <g style="fill: #262626" transform="translate(488.897187 73.815844)scale(0.11 -0.11)">
      <use xlink:href="#ArialMT-54"/>
      <use xlink:href="#ArialMT-61" x="49.958984"/>
      <use xlink:href="#ArialMT-6c" x="105.574219"/>
      <use xlink:href="#ArialMT-6c" x="127.791016"/>
      <use xlink:href="#ArialMT-69" x="150.007812"/>
      <use xlink:href="#ArialMT-6e" x="172.224609"/>
     </g>
    </g>
    <g id="patch_9">
     <path d="M 458.097187 89.375687 
L 480.097187 89.375687 
L 480.097187 81.675687 
L 458.097187 81.675687 
z
" style="fill: #ffa500; opacity: 0.4; stroke: #ffa500; stroke-linejoin: miter"/>
    </g>
    <g id="text_23">
     <!-- Madrid -->
     <g style="fill: #262626" transform="translate(488.897187 89.375687)scale(0.11 -0.11)">
      <use xlink:href="#ArialMT-4d"/>
      <use xlink:href="#ArialMT-61" x="83.300781"/>
      <use xlink:href="#ArialMT-64" x="138.916016"/>
      <use xlink:href="#ArialMT-72" x="194.53125"/>
      <use xlink:href="#ArialMT-69" x="227.832031"/>
      <use xlink:href="#ArialMT-64" x="250.048828"/>
     </g>
    </g>
    <g id="patch_10">
     <path d="M 458.097187 104.935531 
L 480.097187 104.935531 
L 480.097187 97.235531 
L 458.097187 97.235531 
z
" style="fill: #ff0000; opacity: 0.4; stroke: #ff0000; stroke-linejoin: miter"/>
    </g>
    <g id="text_24">
     <!-- Munich -->
     <g style="fill: #262626" transform="translate(488.897187 104.935531)scale(0.11 -0.11)">
      <defs>
       <path id="ArialMT-68" d="M 422 0 
L 422 4581 
L 984 4581 
L 984 2938 
Q 1378 3394 1978 3394 
Q 2347 3394 2619 3248 
Q 2891 3103 3008 2847 
Q 3125 2591 3125 2103 
L 3125 0 
L 2563 0 
L 2563 2103 
Q 2563 2525 2380 2717 
Q 2197 2909 1863 2909 
Q 1613 2909 1392 2779 
Q 1172 2650 1078 2428 
Q 984 2206 984 1816 
L 984 0 
L 422 0 
z
" transform="scale(0.015625)"/>
      </defs>
      <use xlink:href="#ArialMT-4d"/>
      <use xlink:href="#ArialMT-75" x="83.300781"/>
      <use xlink:href="#ArialMT-6e" x="138.916016"/>
      <use xlink:href="#ArialMT-69" x="194.53125"/>
      <use xlink:href="#ArialMT-63" x="216.748047"/>
      <use xlink:href="#ArialMT-68" x="266.748047"/>
     </g>
    </g>
   </g>
  </g>
 </g>
 <defs>
  <clipPath id="p887ca421e4">
   <path d="M 534.255 288 
C 534.255 257.539587 528.254963 227.375364 516.598268 199.233612 
C 504.941572 171.09186 487.854912 145.519866 466.316148 123.981102 
C 444.777384 102.442338 419.20539 85.355678 391.063638 73.698982 
C 362.921886 62.042287 332.757663 56.04225 302.29725 56.04225 
C 271.836837 56.04225 241.672614 62.042287 213.530862 73.698982 
C 185.38911 85.355678 159.817116 102.442338 138.278352 123.981102 
C 116.739588 145.519866 99.652928 171.09186 87.996232 199.233612 
C 76.339537 227.375364 70.3395 257.539587 70.3395 288 
C 70.3395 318.460413 76.339537 348.624636 87.996232 376.766388 
C 99.652928 404.90814 116.739588 430.480134 138.278352 452.018898 
C 159.817116 473.557662 185.38911 490.644322 213.530862 502.301018 
C 241.672614 513.957713 271.836837 519.95775 302.29725 519.95775 
C 332.757663 519.95775 362.921886 513.957713 391.063638 502.301018 
C 419.20539 490.644322 444.777384 473.557662 466.316148 452.018898 
C 487.854912 430.480134 504.941572 404.90814 516.598268 376.766388 
C 528.254963 348.624636 534.255 318.460413 534.255 288 
M 302.29725 288 
C 302.29725 288 302.29725 288 302.29725 288 
C 302.29725 288 302.29725 288 302.29725 288 
C 302.29725 288 302.29725 288 302.29725 288 
C 302.29725 288 302.29725 288 302.29725 288 
C 302.29725 288 302.29725 288 302.29725 288 
C 302.29725 288 302.29725 288 302.29725 288 
C 302.29725 288 302.29725 288 302.29725 288 
C 302.29725 288 302.29725 288 302.29725 288 
C 302.29725 288 302.29725 288 302.29725 288 
C 302.29725 288 302.29725 288 302.29725 288 
C 302.29725 288 302.29725 288 302.29725 288 
C 302.29725 288 302.29725 288 302.29725 288 
C 302.29725 288 302.29725 288 302.29725 288 
C 302.29725 288 302.29725 288 302.29725 288 
C 302.29725 288 302.29725 288 302.29725 288 
C 302.29725 288 302.29725 288 302.29725 288 
M 534.255 288 
z
"/>
  </clipPath>
 </defs>
</svg>
