<?xml version="1.0" encoding="utf-8" standalone="no"?>
<!DOCTYPE svg PUBLIC "-//W3C//DTD SVG 1.1//EN"
  "http://www.w3.org/Graphics/SVG/1.1/DTD/svg11.dtd">
<svg xmlns:xlink="http://www.w3.org/1999/xlink" width="864pt" height="432pt" viewBox="0 0 864 432" xmlns="http://www.w3.org/2000/svg" version="1.1">
 <metadata>
  <rdf:RDF xmlns:dc="http://purl.org/dc/elements/1.1/" xmlns:cc="http://creativecommons.org/ns#" xmlns:rdf="http://www.w3.org/1999/02/22-rdf-syntax-ns#">
   <cc:Work>
    <dc:type rdf:resource="http://purl.org/dc/dcmitype/StillImage"/>
    <dc:date>2023-08-21T09:17:24.600724</dc:date>
    <dc:format>image/svg+xml</dc:format>
    <dc:creator>
     <cc:Agent>
      <dc:title>Matplotlib v3.5.3, https://matplotlib.org/</dc:title>
     </cc:Agent>
    </dc:creator>
   </cc:Work>
  </rdf:RDF>
 </metadata>
 <defs>
  <style type="text/css">*{stroke-linejoin: round; stroke-linecap: butt}</style>
 </defs>
 <g id="figure_1">
  <g id="patch_1">
   <path d="M 0 432 
L 864 432 
L 864 0 
L 0 0 
L 0 432 
z
" style="fill: none"/>
  </g>
  <g id="axes_1">
   <g id="patch_2">
    <path d="M 63.54 392.98 
L 832.545 392.98 
L 832.545 12.96 
L 63.54 12.96 
L 63.54 392.98 
z
" style="fill: none"/>
   </g>
   <g id="matplotlib.axis_1">
    <g id="xtick_1">
     <g id="line2d_1">
      <path d="M 63.54 392.98 
L 63.54 12.96 
" clip-path="url(#p70f2674e17)" style="fill: none; stroke-dasharray: 2.22,0.96; stroke-dashoffset: 0; stroke: #808080; stroke-opacity: 0.4; stroke-width: 0.6"/>
     </g>
     <g id="line2d_2">
      <defs>
       <path id="m9e977b7a0b" d="M 0 0 
L 0 6 
" style="stroke: #262626; stroke-width: 1.25"/>
      </defs>
      <g>
       <use xlink:href="#m9e977b7a0b" x="63.54" y="392.98" style="fill: #262626; stroke: #262626; stroke-width: 1.25"/>
      </g>
     </g>
     <g id="text_1">
      <!-- Jan. -->
      <g style="fill: #262626" transform="translate(46.53 415.364062)scale(0.18 -0.18)">
       <defs>
        <path id="ArialMT-4a" d="M 184 1300 
L 731 1375 
Q 753 850 928 656 
Q 1103 463 1413 463 
Q 1641 463 1806 567 
Q 1972 672 2034 851 
Q 2097 1031 2097 1425 
L 2097 4581 
L 2703 4581 
L 2703 1459 
Q 2703 884 2564 568 
Q 2425 253 2123 87 
Q 1822 -78 1416 -78 
Q 813 -78 492 269 
Q 172 616 184 1300 
z
" transform="scale(0.015625)"/>
        <path id="ArialMT-61" d="M 2588 409 
Q 2275 144 1986 34 
Q 1697 -75 1366 -75 
Q 819 -75 525 192 
Q 231 459 231 875 
Q 231 1119 342 1320 
Q 453 1522 633 1644 
Q 813 1766 1038 1828 
Q 1203 1872 1538 1913 
Q 2219 1994 2541 2106 
Q 2544 2222 2544 2253 
Q 2544 2597 2384 2738 
Q 2169 2928 1744 2928 
Q 1347 2928 1158 2789 
Q 969 2650 878 2297 
L 328 2372 
Q 403 2725 575 2942 
Q 747 3159 1072 3276 
Q 1397 3394 1825 3394 
Q 2250 3394 2515 3294 
Q 2781 3194 2906 3042 
Q 3031 2891 3081 2659 
Q 3109 2516 3109 2141 
L 3109 1391 
Q 3109 606 3145 398 
Q 3181 191 3288 0 
L 2700 0 
Q 2613 175 2588 409 
z
M 2541 1666 
Q 2234 1541 1622 1453 
Q 1275 1403 1131 1340 
Q 988 1278 909 1158 
Q 831 1038 831 891 
Q 831 666 1001 516 
Q 1172 366 1500 366 
Q 1825 366 2078 508 
Q 2331 650 2450 897 
Q 2541 1088 2541 1459 
L 2541 1666 
z
" transform="scale(0.015625)"/>
        <path id="ArialMT-6e" d="M 422 0 
L 422 3319 
L 928 3319 
L 928 2847 
Q 1294 3394 1984 3394 
Q 2284 3394 2536 3286 
Q 2788 3178 2913 3003 
Q 3038 2828 3088 2588 
Q 3119 2431 3119 2041 
L 3119 0 
L 2556 0 
L 2556 2019 
Q 2556 2363 2490 2533 
Q 2425 2703 2258 2804 
Q 2091 2906 1866 2906 
Q 1506 2906 1245 2678 
Q 984 2450 984 1813 
L 984 0 
L 422 0 
z
" transform="scale(0.015625)"/>
        <path id="ArialMT-2e" d="M 581 0 
L 581 641 
L 1222 641 
L 1222 0 
L 581 0 
z
" transform="scale(0.015625)"/>
       </defs>
       <use xlink:href="#ArialMT-4a"/>
       <use xlink:href="#ArialMT-61" x="50"/>
       <use xlink:href="#ArialMT-6e" x="105.615234"/>
       <use xlink:href="#ArialMT-2e" x="161.230469"/>
      </g>
     </g>
    </g>
    <g id="xtick_2">
     <g id="line2d_3">
      <path d="M 133.449545 392.98 
L 133.449545 12.96 
" clip-path="url(#p70f2674e17)" style="fill: none; stroke-dasharray: 2.22,0.96; stroke-dashoffset: 0; stroke: #808080; stroke-opacity: 0.4; stroke-width: 0.6"/>
     </g>
     <g id="line2d_4">
      <g>
       <use xlink:href="#m9e977b7a0b" x="133.449545" y="392.98" style="fill: #262626; stroke: #262626; stroke-width: 1.25"/>
      </g>
     </g>
     <g id="text_2">
      <!-- Feb. -->
      <g style="fill: #262626" transform="translate(115.442514 415.364062)scale(0.18 -0.18)">
       <defs>
        <path id="ArialMT-46" d="M 525 0 
L 525 4581 
L 3616 4581 
L 3616 4041 
L 1131 4041 
L 1131 2622 
L 3281 2622 
L 3281 2081 
L 1131 2081 
L 1131 0 
L 525 0 
z
" transform="scale(0.015625)"/>
        <path id="ArialMT-65" d="M 2694 1069 
L 3275 997 
Q 3138 488 2766 206 
Q 2394 -75 1816 -75 
Q 1088 -75 661 373 
Q 234 822 234 1631 
Q 234 2469 665 2931 
Q 1097 3394 1784 3394 
Q 2450 3394 2872 2941 
Q 3294 2488 3294 1666 
Q 3294 1616 3291 1516 
L 816 1516 
Q 847 969 1125 678 
Q 1403 388 1819 388 
Q 2128 388 2347 550 
Q 2566 713 2694 1069 
z
M 847 1978 
L 2700 1978 
Q 2663 2397 2488 2606 
Q 2219 2931 1791 2931 
Q 1403 2931 1139 2672 
Q 875 2413 847 1978 
z
" transform="scale(0.015625)"/>
        <path id="ArialMT-62" d="M 941 0 
L 419 0 
L 419 4581 
L 981 4581 
L 981 2947 
Q 1338 3394 1891 3394 
Q 2197 3394 2470 3270 
Q 2744 3147 2920 2923 
Q 3097 2700 3197 2384 
Q 3297 2069 3297 1709 
Q 3297 856 2875 390 
Q 2453 -75 1863 -75 
Q 1275 -75 941 416 
L 941 0 
z
M 934 1684 
Q 934 1088 1097 822 
Q 1363 388 1816 388 
Q 2184 388 2453 708 
Q 2722 1028 2722 1663 
Q 2722 2313 2464 2622 
Q 2206 2931 1841 2931 
Q 1472 2931 1203 2611 
Q 934 2291 934 1684 
z
" transform="scale(0.015625)"/>
       </defs>
       <use xlink:href="#ArialMT-46"/>
       <use xlink:href="#ArialMT-65" x="61.083984"/>
       <use xlink:href="#ArialMT-62" x="116.699219"/>
       <use xlink:href="#ArialMT-2e" x="172.314453"/>
      </g>
     </g>
    </g>
    <g id="xtick_3">
     <g id="line2d_5">
      <path d="M 203.359091 392.98 
L 203.359091 12.96 
" clip-path="url(#p70f2674e17)" style="fill: none; stroke-dasharray: 2.22,0.96; stroke-dashoffset: 0; stroke: #808080; stroke-opacity: 0.4; stroke-width: 0.6"/>
     </g>
     <g id="line2d_6">
      <g>
       <use xlink:href="#m9e977b7a0b" x="203.359091" y="392.98" style="fill: #262626; stroke: #262626; stroke-width: 1.25"/>
      </g>
     </g>
     <g id="text_3">
      <!-- Mar. -->
      <g style="fill: #262626" transform="translate(185.855497 415.364062)scale(0.18 -0.18)">
       <defs>
        <path id="ArialMT-4d" d="M 475 0 
L 475 4581 
L 1388 4581 
L 2472 1338 
Q 2622 884 2691 659 
Q 2769 909 2934 1394 
L 4031 4581 
L 4847 4581 
L 4847 0 
L 4263 0 
L 4263 3834 
L 2931 0 
L 2384 0 
L 1059 3900 
L 1059 0 
L 475 0 
z
" transform="scale(0.015625)"/>
        <path id="ArialMT-72" d="M 416 0 
L 416 3319 
L 922 3319 
L 922 2816 
Q 1116 3169 1280 3281 
Q 1444 3394 1641 3394 
Q 1925 3394 2219 3213 
L 2025 2691 
Q 1819 2813 1613 2813 
Q 1428 2813 1281 2702 
Q 1134 2591 1072 2394 
Q 978 2094 978 1738 
L 978 0 
L 416 0 
z
" transform="scale(0.015625)"/>
       </defs>
       <use xlink:href="#ArialMT-4d"/>
       <use xlink:href="#ArialMT-61" x="83.300781"/>
       <use xlink:href="#ArialMT-72" x="138.916016"/>
       <use xlink:href="#ArialMT-2e" x="166.716797"/>
      </g>
     </g>
    </g>
    <g id="xtick_4">
     <g id="line2d_7">
      <path d="M 273.268636 392.98 
L 273.268636 12.96 
" clip-path="url(#p70f2674e17)" style="fill: none; stroke-dasharray: 2.22,0.96; stroke-dashoffset: 0; stroke: #808080; stroke-opacity: 0.4; stroke-width: 0.6"/>
     </g>
     <g id="line2d_8">
      <g>
       <use xlink:href="#m9e977b7a0b" x="273.268636" y="392.98" style="fill: #262626; stroke: #262626; stroke-width: 1.25"/>
      </g>
     </g>
     <g id="text_4">
      <!-- Apr. -->
      <g style="fill: #262626" transform="translate(257.25848 415.364062)scale(0.18 -0.18)">
       <defs>
        <path id="ArialMT-41" d="M -9 0 
L 1750 4581 
L 2403 4581 
L 4278 0 
L 3588 0 
L 3053 1388 
L 1138 1388 
L 634 0 
L -9 0 
z
M 1313 1881 
L 2866 1881 
L 2388 3150 
Q 2169 3728 2063 4100 
Q 1975 3659 1816 3225 
L 1313 1881 
z
" transform="scale(0.015625)"/>
        <path id="ArialMT-70" d="M 422 -1272 
L 422 3319 
L 934 3319 
L 934 2888 
Q 1116 3141 1344 3267 
Q 1572 3394 1897 3394 
Q 2322 3394 2647 3175 
Q 2972 2956 3137 2557 
Q 3303 2159 3303 1684 
Q 3303 1175 3120 767 
Q 2938 359 2589 142 
Q 2241 -75 1856 -75 
Q 1575 -75 1351 44 
Q 1128 163 984 344 
L 984 -1272 
L 422 -1272 
z
M 931 1641 
Q 931 1000 1190 694 
Q 1450 388 1819 388 
Q 2194 388 2461 705 
Q 2728 1022 2728 1688 
Q 2728 2322 2467 2637 
Q 2206 2953 1844 2953 
Q 1484 2953 1207 2617 
Q 931 2281 931 1641 
z
" transform="scale(0.015625)"/>
       </defs>
       <use xlink:href="#ArialMT-41"/>
       <use xlink:href="#ArialMT-70" x="66.699219"/>
       <use xlink:href="#ArialMT-72" x="122.314453"/>
       <use xlink:href="#ArialMT-2e" x="150.115234"/>
      </g>
     </g>
    </g>
    <g id="xtick_5">
     <g id="line2d_9">
      <path d="M 343.178182 392.98 
L 343.178182 12.96 
" clip-path="url(#p70f2674e17)" style="fill: none; stroke-dasharray: 2.22,0.96; stroke-dashoffset: 0; stroke: #808080; stroke-opacity: 0.4; stroke-width: 0.6"/>
     </g>
     <g id="line2d_10">
      <g>
       <use xlink:href="#m9e977b7a0b" x="343.178182" y="392.98" style="fill: #262626; stroke: #262626; stroke-width: 1.25"/>
      </g>
     </g>
     <g id="text_5">
      <!-- May -->
      <g style="fill: #262626" transform="translate(326.176619 415.364062)scale(0.18 -0.18)">
       <defs>
        <path id="ArialMT-79" d="M 397 -1278 
L 334 -750 
Q 519 -800 656 -800 
Q 844 -800 956 -737 
Q 1069 -675 1141 -563 
Q 1194 -478 1313 -144 
Q 1328 -97 1363 -6 
L 103 3319 
L 709 3319 
L 1400 1397 
Q 1534 1031 1641 628 
Q 1738 1016 1872 1384 
L 2581 3319 
L 3144 3319 
L 1881 -56 
Q 1678 -603 1566 -809 
Q 1416 -1088 1222 -1217 
Q 1028 -1347 759 -1347 
Q 597 -1347 397 -1278 
z
" transform="scale(0.015625)"/>
       </defs>
       <use xlink:href="#ArialMT-4d"/>
       <use xlink:href="#ArialMT-61" x="83.300781"/>
       <use xlink:href="#ArialMT-79" x="138.916016"/>
      </g>
     </g>
    </g>
    <g id="xtick_6">
     <g id="line2d_11">
      <path d="M 413.087727 392.98 
L 413.087727 12.96 
" clip-path="url(#p70f2674e17)" style="fill: none; stroke-dasharray: 2.22,0.96; stroke-dashoffset: 0; stroke: #808080; stroke-opacity: 0.4; stroke-width: 0.6"/>
     </g>
     <g id="line2d_12">
      <g>
       <use xlink:href="#m9e977b7a0b" x="413.087727" y="392.98" style="fill: #262626; stroke: #262626; stroke-width: 1.25"/>
      </g>
     </g>
     <g id="text_6">
      <!-- June -->
      <g style="fill: #262626" transform="translate(393.573196 415.364062)scale(0.18 -0.18)">
       <defs>
        <path id="ArialMT-75" d="M 2597 0 
L 2597 488 
Q 2209 -75 1544 -75 
Q 1250 -75 995 37 
Q 741 150 617 320 
Q 494 491 444 738 
Q 409 903 409 1263 
L 409 3319 
L 972 3319 
L 972 1478 
Q 972 1038 1006 884 
Q 1059 663 1231 536 
Q 1403 409 1656 409 
Q 1909 409 2131 539 
Q 2353 669 2445 892 
Q 2538 1116 2538 1541 
L 2538 3319 
L 3100 3319 
L 3100 0 
L 2597 0 
z
" transform="scale(0.015625)"/>
       </defs>
       <use xlink:href="#ArialMT-4a"/>
       <use xlink:href="#ArialMT-75" x="50"/>
       <use xlink:href="#ArialMT-6e" x="105.615234"/>
       <use xlink:href="#ArialMT-65" x="161.230469"/>
      </g>
     </g>
    </g>
    <g id="xtick_7">
     <g id="line2d_13">
      <path d="M 482.997273 392.98 
L 482.997273 12.96 
" clip-path="url(#p70f2674e17)" style="fill: none; stroke-dasharray: 2.22,0.96; stroke-dashoffset: 0; stroke: #808080; stroke-opacity: 0.4; stroke-width: 0.6"/>
     </g>
     <g id="line2d_14">
      <g>
       <use xlink:href="#m9e977b7a0b" x="482.997273" y="392.98" style="fill: #262626; stroke: #262626; stroke-width: 1.25"/>
      </g>
     </g>
     <g id="text_7">
      <!-- July -->
      <g style="fill: #262626" transform="translate(466.992741 415.364062)scale(0.18 -0.18)">
       <defs>
        <path id="ArialMT-6c" d="M 409 0 
L 409 4581 
L 972 4581 
L 972 0 
L 409 0 
z
" transform="scale(0.015625)"/>
       </defs>
       <use xlink:href="#ArialMT-4a"/>
       <use xlink:href="#ArialMT-75" x="50"/>
       <use xlink:href="#ArialMT-6c" x="105.615234"/>
       <use xlink:href="#ArialMT-79" x="127.832031"/>
      </g>
     </g>
    </g>
    <g id="xtick_8">
     <g id="line2d_15">
      <path d="M 552.906818 392.98 
L 552.906818 12.96 
" clip-path="url(#p70f2674e17)" style="fill: none; stroke-dasharray: 2.22,0.96; stroke-dashoffset: 0; stroke: #808080; stroke-opacity: 0.4; stroke-width: 0.6"/>
     </g>
     <g id="line2d_16">
      <g>
       <use xlink:href="#m9e977b7a0b" x="552.906818" y="392.98" style="fill: #262626; stroke: #262626; stroke-width: 1.25"/>
      </g>
     </g>
     <g id="text_8">
      <!-- Aug. -->
      <g style="fill: #262626" transform="translate(534.393537 415.364062)scale(0.18 -0.18)">
       <defs>
        <path id="ArialMT-67" d="M 319 -275 
L 866 -356 
Q 900 -609 1056 -725 
Q 1266 -881 1628 -881 
Q 2019 -881 2231 -725 
Q 2444 -569 2519 -288 
Q 2563 -116 2559 434 
Q 2191 0 1641 0 
Q 956 0 581 494 
Q 206 988 206 1678 
Q 206 2153 378 2554 
Q 550 2956 876 3175 
Q 1203 3394 1644 3394 
Q 2231 3394 2613 2919 
L 2613 3319 
L 3131 3319 
L 3131 450 
Q 3131 -325 2973 -648 
Q 2816 -972 2473 -1159 
Q 2131 -1347 1631 -1347 
Q 1038 -1347 672 -1080 
Q 306 -813 319 -275 
z
M 784 1719 
Q 784 1066 1043 766 
Q 1303 466 1694 466 
Q 2081 466 2343 764 
Q 2606 1063 2606 1700 
Q 2606 2309 2336 2618 
Q 2066 2928 1684 2928 
Q 1309 2928 1046 2623 
Q 784 2319 784 1719 
z
" transform="scale(0.015625)"/>
       </defs>
       <use xlink:href="#ArialMT-41"/>
       <use xlink:href="#ArialMT-75" x="66.699219"/>
       <use xlink:href="#ArialMT-67" x="122.314453"/>
       <use xlink:href="#ArialMT-2e" x="177.929688"/>
      </g>
     </g>
    </g>
    <g id="xtick_9">
     <g id="line2d_17">
      <path d="M 622.816364 392.98 
L 622.816364 12.96 
" clip-path="url(#p70f2674e17)" style="fill: none; stroke-dasharray: 2.22,0.96; stroke-dashoffset: 0; stroke: #808080; stroke-opacity: 0.4; stroke-width: 0.6"/>
     </g>
     <g id="line2d_18">
      <g>
       <use xlink:href="#m9e977b7a0b" x="622.816364" y="392.98" style="fill: #262626; stroke: #262626; stroke-width: 1.25"/>
      </g>
     </g>
     <g id="text_9">
      <!-- Sept. -->
      <g style="fill: #262626" transform="translate(601.80277 415.583438)scale(0.18 -0.18)">
       <defs>
        <path id="ArialMT-53" d="M 288 1472 
L 859 1522 
Q 900 1178 1048 958 
Q 1197 738 1509 602 
Q 1822 466 2213 466 
Q 2559 466 2825 569 
Q 3091 672 3220 851 
Q 3350 1031 3350 1244 
Q 3350 1459 3225 1620 
Q 3100 1781 2813 1891 
Q 2628 1963 1997 2114 
Q 1366 2266 1113 2400 
Q 784 2572 623 2826 
Q 463 3081 463 3397 
Q 463 3744 659 4045 
Q 856 4347 1234 4503 
Q 1613 4659 2075 4659 
Q 2584 4659 2973 4495 
Q 3363 4331 3572 4012 
Q 3781 3694 3797 3291 
L 3216 3247 
Q 3169 3681 2898 3903 
Q 2628 4125 2100 4125 
Q 1550 4125 1298 3923 
Q 1047 3722 1047 3438 
Q 1047 3191 1225 3031 
Q 1400 2872 2139 2705 
Q 2878 2538 3153 2413 
Q 3553 2228 3743 1945 
Q 3934 1663 3934 1294 
Q 3934 928 3725 604 
Q 3516 281 3123 101 
Q 2731 -78 2241 -78 
Q 1619 -78 1198 103 
Q 778 284 539 648 
Q 300 1013 288 1472 
z
" transform="scale(0.015625)"/>
        <path id="ArialMT-74" d="M 1650 503 
L 1731 6 
Q 1494 -44 1306 -44 
Q 1000 -44 831 53 
Q 663 150 594 308 
Q 525 466 525 972 
L 525 2881 
L 113 2881 
L 113 3319 
L 525 3319 
L 525 4141 
L 1084 4478 
L 1084 3319 
L 1650 3319 
L 1650 2881 
L 1084 2881 
L 1084 941 
Q 1084 700 1114 631 
Q 1144 563 1211 522 
Q 1278 481 1403 481 
Q 1497 481 1650 503 
z
" transform="scale(0.015625)"/>
       </defs>
       <use xlink:href="#ArialMT-53"/>
       <use xlink:href="#ArialMT-65" x="66.699219"/>
       <use xlink:href="#ArialMT-70" x="122.314453"/>
       <use xlink:href="#ArialMT-74" x="177.929688"/>
       <use xlink:href="#ArialMT-2e" x="205.712891"/>
      </g>
     </g>
    </g>
    <g id="xtick_10">
     <g id="line2d_19">
      <path d="M 692.725909 392.98 
L 692.725909 12.96 
" clip-path="url(#p70f2674e17)" style="fill: none; stroke-dasharray: 2.22,0.96; stroke-dashoffset: 0; stroke: #808080; stroke-opacity: 0.4; stroke-width: 0.6"/>
     </g>
     <g id="line2d_20">
      <g>
       <use xlink:href="#m9e977b7a0b" x="692.725909" y="392.98" style="fill: #262626; stroke: #262626; stroke-width: 1.25"/>
      </g>
     </g>
     <g id="text_10">
      <!-- Oct. -->
      <g style="fill: #262626" transform="translate(676.224972 415.364062)scale(0.18 -0.18)">
       <defs>
        <path id="ArialMT-4f" d="M 309 2231 
Q 309 3372 921 4017 
Q 1534 4663 2503 4663 
Q 3138 4663 3647 4359 
Q 4156 4056 4423 3514 
Q 4691 2972 4691 2284 
Q 4691 1588 4409 1038 
Q 4128 488 3612 205 
Q 3097 -78 2500 -78 
Q 1853 -78 1343 234 
Q 834 547 571 1087 
Q 309 1628 309 2231 
z
M 934 2222 
Q 934 1394 1379 917 
Q 1825 441 2497 441 
Q 3181 441 3623 922 
Q 4066 1403 4066 2288 
Q 4066 2847 3877 3264 
Q 3688 3681 3323 3911 
Q 2959 4141 2506 4141 
Q 1863 4141 1398 3698 
Q 934 3256 934 2222 
z
" transform="scale(0.015625)"/>
        <path id="ArialMT-63" d="M 2588 1216 
L 3141 1144 
Q 3050 572 2676 248 
Q 2303 -75 1759 -75 
Q 1078 -75 664 370 
Q 250 816 250 1647 
Q 250 2184 428 2587 
Q 606 2991 970 3192 
Q 1334 3394 1763 3394 
Q 2303 3394 2647 3120 
Q 2991 2847 3088 2344 
L 2541 2259 
Q 2463 2594 2264 2762 
Q 2066 2931 1784 2931 
Q 1359 2931 1093 2626 
Q 828 2322 828 1663 
Q 828 994 1084 691 
Q 1341 388 1753 388 
Q 2084 388 2306 591 
Q 2528 794 2588 1216 
z
" transform="scale(0.015625)"/>
       </defs>
       <use xlink:href="#ArialMT-4f"/>
       <use xlink:href="#ArialMT-63" x="77.783203"/>
       <use xlink:href="#ArialMT-74" x="127.783203"/>
       <use xlink:href="#ArialMT-2e" x="155.566406"/>
      </g>
     </g>
    </g>
    <g id="xtick_11">
     <g id="line2d_21">
      <path d="M 762.635455 392.98 
L 762.635455 12.96 
" clip-path="url(#p70f2674e17)" style="fill: none; stroke-dasharray: 2.22,0.96; stroke-dashoffset: 0; stroke: #808080; stroke-opacity: 0.4; stroke-width: 0.6"/>
     </g>
     <g id="line2d_22">
      <g>
       <use xlink:href="#m9e977b7a0b" x="762.635455" y="392.98" style="fill: #262626; stroke: #262626; stroke-width: 1.25"/>
      </g>
     </g>
     <g id="text_11">
      <!-- Nov. -->
      <g style="fill: #262626" transform="translate(744.794361 415.364062)scale(0.18 -0.18)">
       <defs>
        <path id="ArialMT-4e" d="M 488 0 
L 488 4581 
L 1109 4581 
L 3516 984 
L 3516 4581 
L 4097 4581 
L 4097 0 
L 3475 0 
L 1069 3600 
L 1069 0 
L 488 0 
z
" transform="scale(0.015625)"/>
        <path id="ArialMT-6f" d="M 213 1659 
Q 213 2581 725 3025 
Q 1153 3394 1769 3394 
Q 2453 3394 2887 2945 
Q 3322 2497 3322 1706 
Q 3322 1066 3130 698 
Q 2938 331 2570 128 
Q 2203 -75 1769 -75 
Q 1072 -75 642 372 
Q 213 819 213 1659 
z
M 791 1659 
Q 791 1022 1069 705 
Q 1347 388 1769 388 
Q 2188 388 2466 706 
Q 2744 1025 2744 1678 
Q 2744 2294 2464 2611 
Q 2184 2928 1769 2928 
Q 1347 2928 1069 2612 
Q 791 2297 791 1659 
z
" transform="scale(0.015625)"/>
        <path id="ArialMT-76" d="M 1344 0 
L 81 3319 
L 675 3319 
L 1388 1331 
Q 1503 1009 1600 663 
Q 1675 925 1809 1294 
L 2547 3319 
L 3125 3319 
L 1869 0 
L 1344 0 
z
" transform="scale(0.015625)"/>
       </defs>
       <use xlink:href="#ArialMT-4e"/>
       <use xlink:href="#ArialMT-6f" x="72.216797"/>
       <use xlink:href="#ArialMT-76" x="127.832031"/>
       <use xlink:href="#ArialMT-2e" x="170.457031"/>
      </g>
     </g>
    </g>
    <g id="xtick_12">
     <g id="line2d_23">
      <path d="M 832.545 392.98 
L 832.545 12.96 
" clip-path="url(#p70f2674e17)" style="fill: none; stroke-dasharray: 2.22,0.96; stroke-dashoffset: 0; stroke: #808080; stroke-opacity: 0.4; stroke-width: 0.6"/>
     </g>
     <g id="line2d_24">
      <g>
       <use xlink:href="#m9e977b7a0b" x="832.545" y="392.98" style="fill: #262626; stroke: #262626; stroke-width: 1.25"/>
      </g>
     </g>
     <g id="text_12">
      <!-- Dec. -->
      <g style="fill: #262626" transform="translate(814.040156 415.364062)scale(0.18 -0.18)">
       <defs>
        <path id="ArialMT-44" d="M 494 0 
L 494 4581 
L 2072 4581 
Q 2606 4581 2888 4516 
Q 3281 4425 3559 4188 
Q 3922 3881 4101 3404 
Q 4281 2928 4281 2316 
Q 4281 1794 4159 1391 
Q 4038 988 3847 723 
Q 3656 459 3429 307 
Q 3203 156 2883 78 
Q 2563 0 2147 0 
L 494 0 
z
M 1100 541 
L 2078 541 
Q 2531 541 2789 625 
Q 3047 709 3200 863 
Q 3416 1078 3536 1442 
Q 3656 1806 3656 2325 
Q 3656 3044 3420 3430 
Q 3184 3816 2847 3947 
Q 2603 4041 2063 4041 
L 1100 4041 
L 1100 541 
z
" transform="scale(0.015625)"/>
       </defs>
       <use xlink:href="#ArialMT-44"/>
       <use xlink:href="#ArialMT-65" x="72.216797"/>
       <use xlink:href="#ArialMT-63" x="127.832031"/>
       <use xlink:href="#ArialMT-2e" x="177.832031"/>
      </g>
     </g>
    </g>
   </g>
   <g id="matplotlib.axis_2">
    <g id="ytick_1">
     <g id="line2d_25">
      <path d="M 63.54 392.98 
L 832.545 392.98 
" clip-path="url(#p70f2674e17)" style="fill: none; stroke-dasharray: 2.22,0.96; stroke-dashoffset: 0; stroke: #808080; stroke-opacity: 0.4; stroke-width: 0.6"/>
     </g>
     <g id="line2d_26">
      <defs>
       <path id="mb595b4d742" d="M 0 0 
L -6 0 
" style="stroke: #262626; stroke-width: 1.25"/>
      </defs>
      <g>
       <use xlink:href="#mb595b4d742" x="63.54" y="392.98" style="fill: #262626; stroke: #262626; stroke-width: 1.25"/>
      </g>
     </g>
     <g id="text_13">
      <!-- 0 -->
      <g style="fill: #262626" transform="translate(47.922969 396.916797)scale(0.11 -0.11)">
       <defs>
        <path id="ArialMT-30" d="M 266 2259 
Q 266 3072 433 3567 
Q 600 4063 929 4331 
Q 1259 4600 1759 4600 
Q 2128 4600 2406 4451 
Q 2684 4303 2865 4023 
Q 3047 3744 3150 3342 
Q 3253 2941 3253 2259 
Q 3253 1453 3087 958 
Q 2922 463 2592 192 
Q 2263 -78 1759 -78 
Q 1097 -78 719 397 
Q 266 969 266 2259 
z
M 844 2259 
Q 844 1131 1108 757 
Q 1372 384 1759 384 
Q 2147 384 2411 759 
Q 2675 1134 2675 2259 
Q 2675 3391 2411 3762 
Q 2147 4134 1753 4134 
Q 1366 4134 1134 3806 
Q 844 3388 844 2259 
z
" transform="scale(0.015625)"/>
       </defs>
       <use xlink:href="#ArialMT-30"/>
      </g>
     </g>
    </g>
    <g id="ytick_2">
     <g id="line2d_27">
      <path d="M 63.54 342.977368 
L 832.545 342.977368 
" clip-path="url(#p70f2674e17)" style="fill: none; stroke-dasharray: 2.22,0.96; stroke-dashoffset: 0; stroke: #808080; stroke-opacity: 0.4; stroke-width: 0.6"/>
     </g>
     <g id="line2d_28">
      <g>
       <use xlink:href="#mb595b4d742" x="63.54" y="342.977368" style="fill: #262626; stroke: #262626; stroke-width: 1.25"/>
      </g>
     </g>
     <g id="text_14">
      <!-- 50 -->
      <g style="fill: #262626" transform="translate(41.805938 346.914165)scale(0.11 -0.11)">
       <defs>
        <path id="ArialMT-35" d="M 266 1200 
L 856 1250 
Q 922 819 1161 601 
Q 1400 384 1738 384 
Q 2144 384 2425 690 
Q 2706 997 2706 1503 
Q 2706 1984 2436 2262 
Q 2166 2541 1728 2541 
Q 1456 2541 1237 2417 
Q 1019 2294 894 2097 
L 366 2166 
L 809 4519 
L 3088 4519 
L 3088 3981 
L 1259 3981 
L 1013 2750 
Q 1425 3038 1878 3038 
Q 2478 3038 2890 2622 
Q 3303 2206 3303 1553 
Q 3303 931 2941 478 
Q 2500 -78 1738 -78 
Q 1113 -78 717 272 
Q 322 622 266 1200 
z
" transform="scale(0.015625)"/>
       </defs>
       <use xlink:href="#ArialMT-35"/>
       <use xlink:href="#ArialMT-30" x="55.615234"/>
      </g>
     </g>
    </g>
    <g id="ytick_3">
     <g id="line2d_29">
      <path d="M 63.54 292.974737 
L 832.545 292.974737 
" clip-path="url(#p70f2674e17)" style="fill: none; stroke-dasharray: 2.22,0.96; stroke-dashoffset: 0; stroke: #808080; stroke-opacity: 0.4; stroke-width: 0.6"/>
     </g>
     <g id="line2d_30">
      <g>
       <use xlink:href="#mb595b4d742" x="63.54" y="292.974737" style="fill: #262626; stroke: #262626; stroke-width: 1.25"/>
      </g>
     </g>
     <g id="text_15">
      <!-- 100 -->
      <g style="fill: #262626" transform="translate(35.688906 296.911534)scale(0.11 -0.11)">
       <defs>
        <path id="ArialMT-31" d="M 2384 0 
L 1822 0 
L 1822 3584 
Q 1619 3391 1289 3197 
Q 959 3003 697 2906 
L 697 3450 
Q 1169 3672 1522 3987 
Q 1875 4303 2022 4600 
L 2384 4600 
L 2384 0 
z
" transform="scale(0.015625)"/>
       </defs>
       <use xlink:href="#ArialMT-31"/>
       <use xlink:href="#ArialMT-30" x="55.615234"/>
       <use xlink:href="#ArialMT-30" x="111.230469"/>
      </g>
     </g>
    </g>
    <g id="ytick_4">
     <g id="line2d_31">
      <path d="M 63.54 242.972105 
L 832.545 242.972105 
" clip-path="url(#p70f2674e17)" style="fill: none; stroke-dasharray: 2.22,0.96; stroke-dashoffset: 0; stroke: #808080; stroke-opacity: 0.4; stroke-width: 0.6"/>
     </g>
     <g id="line2d_32">
      <g>
       <use xlink:href="#mb595b4d742" x="63.54" y="242.972105" style="fill: #262626; stroke: #262626; stroke-width: 1.25"/>
      </g>
     </g>
     <g id="text_16">
      <!-- 150 -->
      <g style="fill: #262626" transform="translate(35.688906 246.908902)scale(0.11 -0.11)">
       <use xlink:href="#ArialMT-31"/>
       <use xlink:href="#ArialMT-35" x="55.615234"/>
       <use xlink:href="#ArialMT-30" x="111.230469"/>
      </g>
     </g>
    </g>
    <g id="ytick_5">
     <g id="line2d_33">
      <path d="M 63.54 192.969474 
L 832.545 192.969474 
" clip-path="url(#p70f2674e17)" style="fill: none; stroke-dasharray: 2.22,0.96; stroke-dashoffset: 0; stroke: #808080; stroke-opacity: 0.4; stroke-width: 0.6"/>
     </g>
     <g id="line2d_34">
      <g>
       <use xlink:href="#mb595b4d742" x="63.54" y="192.969474" style="fill: #262626; stroke: #262626; stroke-width: 1.25"/>
      </g>
     </g>
     <g id="text_17">
      <!-- 200 -->
      <g style="fill: #262626" transform="translate(35.688906 196.906271)scale(0.11 -0.11)">
       <defs>
        <path id="ArialMT-32" d="M 3222 541 
L 3222 0 
L 194 0 
Q 188 203 259 391 
Q 375 700 629 1000 
Q 884 1300 1366 1694 
Q 2113 2306 2375 2664 
Q 2638 3022 2638 3341 
Q 2638 3675 2398 3904 
Q 2159 4134 1775 4134 
Q 1369 4134 1125 3890 
Q 881 3647 878 3216 
L 300 3275 
Q 359 3922 746 4261 
Q 1134 4600 1788 4600 
Q 2447 4600 2831 4234 
Q 3216 3869 3216 3328 
Q 3216 3053 3103 2787 
Q 2991 2522 2730 2228 
Q 2469 1934 1863 1422 
Q 1356 997 1212 845 
Q 1069 694 975 541 
L 3222 541 
z
" transform="scale(0.015625)"/>
       </defs>
       <use xlink:href="#ArialMT-32"/>
       <use xlink:href="#ArialMT-30" x="55.615234"/>
       <use xlink:href="#ArialMT-30" x="111.230469"/>
      </g>
     </g>
    </g>
    <g id="ytick_6">
     <g id="line2d_35">
      <path d="M 63.54 142.966842 
L 832.545 142.966842 
" clip-path="url(#p70f2674e17)" style="fill: none; stroke-dasharray: 2.22,0.96; stroke-dashoffset: 0; stroke: #808080; stroke-opacity: 0.4; stroke-width: 0.6"/>
     </g>
     <g id="line2d_36">
      <g>
       <use xlink:href="#mb595b4d742" x="63.54" y="142.966842" style="fill: #262626; stroke: #262626; stroke-width: 1.25"/>
      </g>
     </g>
     <g id="text_18">
      <!-- 250 -->
      <g style="fill: #262626" transform="translate(35.688906 146.903639)scale(0.11 -0.11)">
       <use xlink:href="#ArialMT-32"/>
       <use xlink:href="#ArialMT-35" x="55.615234"/>
       <use xlink:href="#ArialMT-30" x="111.230469"/>
      </g>
     </g>
    </g>
    <g id="ytick_7">
     <g id="line2d_37">
      <path d="M 63.54 92.964211 
L 832.545 92.964211 
" clip-path="url(#p70f2674e17)" style="fill: none; stroke-dasharray: 2.22,0.96; stroke-dashoffset: 0; stroke: #808080; stroke-opacity: 0.4; stroke-width: 0.6"/>
     </g>
     <g id="line2d_38">
      <g>
       <use xlink:href="#mb595b4d742" x="63.54" y="92.964211" style="fill: #262626; stroke: #262626; stroke-width: 1.25"/>
      </g>
     </g>
     <g id="text_19">
      <!-- 300 -->
      <g style="fill: #262626" transform="translate(35.688906 96.901007)scale(0.11 -0.11)">
       <defs>
        <path id="ArialMT-33" d="M 269 1209 
L 831 1284 
Q 928 806 1161 595 
Q 1394 384 1728 384 
Q 2125 384 2398 659 
Q 2672 934 2672 1341 
Q 2672 1728 2419 1979 
Q 2166 2231 1775 2231 
Q 1616 2231 1378 2169 
L 1441 2663 
Q 1497 2656 1531 2656 
Q 1891 2656 2178 2843 
Q 2466 3031 2466 3422 
Q 2466 3731 2256 3934 
Q 2047 4138 1716 4138 
Q 1388 4138 1169 3931 
Q 950 3725 888 3313 
L 325 3413 
Q 428 3978 793 4289 
Q 1159 4600 1703 4600 
Q 2078 4600 2393 4439 
Q 2709 4278 2876 4000 
Q 3044 3722 3044 3409 
Q 3044 3113 2884 2869 
Q 2725 2625 2413 2481 
Q 2819 2388 3044 2092 
Q 3269 1797 3269 1353 
Q 3269 753 2831 336 
Q 2394 -81 1725 -81 
Q 1122 -81 723 278 
Q 325 638 269 1209 
z
" transform="scale(0.015625)"/>
       </defs>
       <use xlink:href="#ArialMT-33"/>
       <use xlink:href="#ArialMT-30" x="55.615234"/>
       <use xlink:href="#ArialMT-30" x="111.230469"/>
      </g>
     </g>
    </g>
    <g id="ytick_8">
     <g id="line2d_39">
      <path d="M 63.54 42.961579 
L 832.545 42.961579 
" clip-path="url(#p70f2674e17)" style="fill: none; stroke-dasharray: 2.22,0.96; stroke-dashoffset: 0; stroke: #808080; stroke-opacity: 0.4; stroke-width: 0.6"/>
     </g>
     <g id="line2d_40">
      <g>
       <use xlink:href="#mb595b4d742" x="63.54" y="42.961579" style="fill: #262626; stroke: #262626; stroke-width: 1.25"/>
      </g>
     </g>
     <g id="text_20">
      <!-- 350 -->
      <g style="fill: #262626" transform="translate(35.688906 46.898376)scale(0.11 -0.11)">
       <use xlink:href="#ArialMT-33"/>
       <use xlink:href="#ArialMT-35" x="55.615234"/>
       <use xlink:href="#ArialMT-30" x="111.230469"/>
      </g>
     </g>
    </g>
    <g id="text_21">
     <!-- Total Sun Hours -->
     <g style="fill: #262626" transform="translate(27.713906 274.109063)rotate(-90)scale(0.2 -0.2)">
      <defs>
       <path id="ArialMT-54" d="M 1659 0 
L 1659 4041 
L 150 4041 
L 150 4581 
L 3781 4581 
L 3781 4041 
L 2266 4041 
L 2266 0 
L 1659 0 
z
" transform="scale(0.015625)"/>
       <path id="ArialMT-20" transform="scale(0.015625)"/>
       <path id="ArialMT-48" d="M 513 0 
L 513 4581 
L 1119 4581 
L 1119 2700 
L 3500 2700 
L 3500 4581 
L 4106 4581 
L 4106 0 
L 3500 0 
L 3500 2159 
L 1119 2159 
L 1119 0 
L 513 0 
z
" transform="scale(0.015625)"/>
       <path id="ArialMT-73" d="M 197 991 
L 753 1078 
Q 800 744 1014 566 
Q 1228 388 1613 388 
Q 2000 388 2187 545 
Q 2375 703 2375 916 
Q 2375 1106 2209 1216 
Q 2094 1291 1634 1406 
Q 1016 1563 777 1677 
Q 538 1791 414 1992 
Q 291 2194 291 2438 
Q 291 2659 392 2848 
Q 494 3038 669 3163 
Q 800 3259 1026 3326 
Q 1253 3394 1513 3394 
Q 1903 3394 2198 3281 
Q 2494 3169 2634 2976 
Q 2775 2784 2828 2463 
L 2278 2388 
Q 2241 2644 2061 2787 
Q 1881 2931 1553 2931 
Q 1166 2931 1000 2803 
Q 834 2675 834 2503 
Q 834 2394 903 2306 
Q 972 2216 1119 2156 
Q 1203 2125 1616 2013 
Q 2213 1853 2448 1751 
Q 2684 1650 2818 1456 
Q 2953 1263 2953 975 
Q 2953 694 2789 445 
Q 2625 197 2315 61 
Q 2006 -75 1616 -75 
Q 969 -75 630 194 
Q 291 463 197 991 
z
" transform="scale(0.015625)"/>
      </defs>
      <use xlink:href="#ArialMT-54"/>
      <use xlink:href="#ArialMT-6f" x="49.958984"/>
      <use xlink:href="#ArialMT-74" x="105.574219"/>
      <use xlink:href="#ArialMT-61" x="133.357422"/>
      <use xlink:href="#ArialMT-6c" x="188.972656"/>
      <use xlink:href="#ArialMT-20" x="211.189453"/>
      <use xlink:href="#ArialMT-53" x="238.972656"/>
      <use xlink:href="#ArialMT-75" x="305.671875"/>
      <use xlink:href="#ArialMT-6e" x="361.287109"/>
      <use xlink:href="#ArialMT-20" x="416.902344"/>
      <use xlink:href="#ArialMT-48" x="444.685547"/>
      <use xlink:href="#ArialMT-6f" x="516.902344"/>
      <use xlink:href="#ArialMT-75" x="572.517578"/>
      <use xlink:href="#ArialMT-72" x="628.132812"/>
      <use xlink:href="#ArialMT-73" x="661.433594"/>
     </g>
    </g>
   </g>
   <g id="PathCollection_1">
    <defs>
     <path id="m0e2b2266d4" d="M 0 -5 
L -5 5 
L 5 5 
z
" style="stroke: #0000cd; stroke-opacity: 0.8"/>
    </defs>
    <g clip-path="url(#p70f2674e17)">
     <use xlink:href="#m0e2b2266d4" x="63.54" y="244.972211" style="fill: #0000cd; fill-opacity: 0.8; stroke: #0000cd; stroke-opacity: 0.8"/>
     <use xlink:href="#m0e2b2266d4" x="133.449545" y="235.971737" style="fill: #0000cd; fill-opacity: 0.8; stroke: #0000cd; stroke-opacity: 0.8"/>
     <use xlink:href="#m0e2b2266d4" x="203.359091" y="178.968737" style="fill: #0000cd; fill-opacity: 0.8; stroke: #0000cd; stroke-opacity: 0.8"/>
     <use xlink:href="#m0e2b2266d4" x="273.268636" y="161.967842" style="fill: #0000cd; fill-opacity: 0.8; stroke: #0000cd; stroke-opacity: 0.8"/>
     <use xlink:href="#m0e2b2266d4" x="343.178182" y="120.965684" style="fill: #0000cd; fill-opacity: 0.8; stroke: #0000cd; stroke-opacity: 0.8"/>
     <use xlink:href="#m0e2b2266d4" x="413.087727" y="82.963684" style="fill: #0000cd; fill-opacity: 0.8; stroke: #0000cd; stroke-opacity: 0.8"/>
     <use xlink:href="#m0e2b2266d4" x="482.997273" y="33.961105" style="fill: #0000cd; fill-opacity: 0.8; stroke: #0000cd; stroke-opacity: 0.8"/>
     <use xlink:href="#m0e2b2266d4" x="552.906818" y="57.962368" style="fill: #0000cd; fill-opacity: 0.8; stroke: #0000cd; stroke-opacity: 0.8"/>
     <use xlink:href="#m0e2b2266d4" x="622.816364" y="131.966263" style="fill: #0000cd; fill-opacity: 0.8; stroke: #0000cd; stroke-opacity: 0.8"/>
     <use xlink:href="#m0e2b2266d4" x="692.725909" y="194.969579" style="fill: #0000cd; fill-opacity: 0.8; stroke: #0000cd; stroke-opacity: 0.8"/>
     <use xlink:href="#m0e2b2266d4" x="762.635455" y="235.971737" style="fill: #0000cd; fill-opacity: 0.8; stroke: #0000cd; stroke-opacity: 0.8"/>
     <use xlink:href="#m0e2b2266d4" x="832.545" y="268.973474" style="fill: #0000cd; fill-opacity: 0.8; stroke: #0000cd; stroke-opacity: 0.8"/>
    </g>
   </g>
   <g id="PathCollection_2">
    <defs>
     <path id="ma9407d748a" d="M 0 5 
C 1.326016 5 2.597899 4.473168 3.535534 3.535534 
C 4.473168 2.597899 5 1.326016 5 0 
C 5 -1.326016 4.473168 -2.597899 3.535534 -3.535534 
C 2.597899 -4.473168 1.326016 -5 0 -5 
C -1.326016 -5 -2.597899 -4.473168 -3.535534 -3.535534 
C -4.473168 -2.597899 -5 -1.326016 -5 0 
C -5 1.326016 -4.473168 2.597899 -3.535534 3.535534 
C -2.597899 4.473168 -1.326016 5 0 5 
z
" style="stroke: #ff8c00"/>
    </defs>
    <g clip-path="url(#p70f2674e17)">
     <use xlink:href="#ma9407d748a" x="63.54" y="362.978421" style="fill: #ff8c00; stroke: #ff8c00"/>
     <use xlink:href="#ma9407d748a" x="133.449545" y="333.976895" style="fill: #ff8c00; stroke: #ff8c00"/>
     <use xlink:href="#ma9407d748a" x="203.359091" y="244.972211" style="fill: #ff8c00; stroke: #ff8c00"/>
     <use xlink:href="#ma9407d748a" x="273.268636" y="175.968579" style="fill: #ff8c00; stroke: #ff8c00"/>
     <use xlink:href="#ma9407d748a" x="343.178182" y="86.963895" style="fill: #ff8c00; stroke: #ff8c00"/>
     <use xlink:href="#ma9407d748a" x="413.087727" y="98.964526" style="fill: #ff8c00; stroke: #ff8c00"/>
     <use xlink:href="#ma9407d748a" x="482.997273" y="80.963579" style="fill: #ff8c00; stroke: #ff8c00"/>
     <use xlink:href="#ma9407d748a" x="552.906818" y="136.966526" style="fill: #ff8c00; stroke: #ff8c00"/>
     <use xlink:href="#ma9407d748a" x="622.816364" y="230.971474" style="fill: #ff8c00; stroke: #ff8c00"/>
     <use xlink:href="#ma9407d748a" x="692.725909" y="304.975368" style="fill: #ff8c00; stroke: #ff8c00"/>
     <use xlink:href="#ma9407d748a" x="762.635455" y="363.978474" style="fill: #ff8c00; stroke: #ff8c00"/>
     <use xlink:href="#ma9407d748a" x="832.545" y="371.978895" style="fill: #ff8c00; stroke: #ff8c00"/>
    </g>
   </g>
   <g id="PathCollection_3">
    <defs>
     <path id="m7ca7aa2b9c" d="M -5 5 
L 5 5 
L 5 -5 
L -5 -5 
z
" style="stroke: #8b0000; stroke-opacity: 0.8"/>
    </defs>
    <g clip-path="url(#p70f2674e17)">
     <use xlink:href="#m7ca7aa2b9c" x="63.54" y="330.976737" style="fill: #8b0000; fill-opacity: 0.8; stroke: #8b0000; stroke-opacity: 0.8"/>
     <use xlink:href="#m7ca7aa2b9c" x="133.449545" y="314.975895" style="fill: #8b0000; fill-opacity: 0.8; stroke: #8b0000; stroke-opacity: 0.8"/>
     <use xlink:href="#m7ca7aa2b9c" x="203.359091" y="277.973947" style="fill: #8b0000; fill-opacity: 0.8; stroke: #8b0000; stroke-opacity: 0.8"/>
     <use xlink:href="#m7ca7aa2b9c" x="273.268636" y="223.971105" style="fill: #8b0000; fill-opacity: 0.8; stroke: #8b0000; stroke-opacity: 0.8"/>
     <use xlink:href="#m7ca7aa2b9c" x="343.178182" y="193.969526" style="fill: #8b0000; fill-opacity: 0.8; stroke: #8b0000; stroke-opacity: 0.8"/>
     <use xlink:href="#m7ca7aa2b9c" x="413.087727" y="188.969263" style="fill: #8b0000; fill-opacity: 0.8; stroke: #8b0000; stroke-opacity: 0.8"/>
     <use xlink:href="#m7ca7aa2b9c" x="482.997273" y="180.968842" style="fill: #8b0000; fill-opacity: 0.8; stroke: #8b0000; stroke-opacity: 0.8"/>
     <use xlink:href="#m7ca7aa2b9c" x="552.906818" y="187.969211" style="fill: #8b0000; fill-opacity: 0.8; stroke: #8b0000; stroke-opacity: 0.8"/>
     <use xlink:href="#m7ca7aa2b9c" x="622.816364" y="243.972158" style="fill: #8b0000; fill-opacity: 0.8; stroke: #8b0000; stroke-opacity: 0.8"/>
     <use xlink:href="#m7ca7aa2b9c" x="692.725909" y="275.973842" style="fill: #8b0000; fill-opacity: 0.8; stroke: #8b0000; stroke-opacity: 0.8"/>
     <use xlink:href="#m7ca7aa2b9c" x="762.635455" y="319.976158" style="fill: #8b0000; fill-opacity: 0.8; stroke: #8b0000; stroke-opacity: 0.8"/>
     <use xlink:href="#m7ca7aa2b9c" x="832.545" y="340.977263" style="fill: #8b0000; fill-opacity: 0.8; stroke: #8b0000; stroke-opacity: 0.8"/>
    </g>
   </g>
   <g id="PathCollection_4">
    <defs>
     <path id="mcd4d80ba34" d="M 0 -5 
L -1.12257 -1.545085 
L -4.755283 -1.545085 
L -1.816356 0.59017 
L -2.938926 4.045085 
L -0 1.90983 
L 2.938926 4.045085 
L 1.816356 0.59017 
L 4.755283 -1.545085 
L 1.12257 -1.545085 
z
" style="stroke: #008080; stroke-opacity: 0.8"/>
    </defs>
    <g clip-path="url(#p70f2674e17)">
     <use xlink:href="#mcd4d80ba34" x="63.54" y="336.977053" style="fill: #008080; fill-opacity: 0.8; stroke: #008080; stroke-opacity: 0.8"/>
     <use xlink:href="#mcd4d80ba34" x="133.449545" y="309.975632" style="fill: #008080; fill-opacity: 0.8; stroke: #008080; stroke-opacity: 0.8"/>
     <use xlink:href="#mcd4d80ba34" x="203.359091" y="240.972" style="fill: #008080; fill-opacity: 0.8; stroke: #008080; stroke-opacity: 0.8"/>
     <use xlink:href="#mcd4d80ba34" x="273.268636" y="166.968105" style="fill: #008080; fill-opacity: 0.8; stroke: #008080; stroke-opacity: 0.8"/>
     <use xlink:href="#mcd4d80ba34" x="343.178182" y="121.965737" style="fill: #008080; fill-opacity: 0.8; stroke: #008080; stroke-opacity: 0.8"/>
     <use xlink:href="#mcd4d80ba34" x="413.087727" y="132.966316" style="fill: #008080; fill-opacity: 0.8; stroke: #008080; stroke-opacity: 0.8"/>
     <use xlink:href="#mcd4d80ba34" x="482.997273" y="146.967053" style="fill: #008080; fill-opacity: 0.8; stroke: #008080; stroke-opacity: 0.8"/>
     <use xlink:href="#mcd4d80ba34" x="552.906818" y="161.967842" style="fill: #008080; fill-opacity: 0.8; stroke: #008080; stroke-opacity: 0.8"/>
     <use xlink:href="#mcd4d80ba34" x="622.816364" y="217.970789" style="fill: #008080; fill-opacity: 0.8; stroke: #008080; stroke-opacity: 0.8"/>
     <use xlink:href="#mcd4d80ba34" x="692.725909" y="285.974368" style="fill: #008080; fill-opacity: 0.8; stroke: #008080; stroke-opacity: 0.8"/>
     <use xlink:href="#mcd4d80ba34" x="762.635455" y="332.976842" style="fill: #008080; fill-opacity: 0.8; stroke: #008080; stroke-opacity: 0.8"/>
     <use xlink:href="#mcd4d80ba34" x="832.545" y="347.977632" style="fill: #008080; fill-opacity: 0.8; stroke: #008080; stroke-opacity: 0.8"/>
    </g>
   </g>
   <g id="PathCollection_5">
    <defs>
     <path id="mc59ae4b6e3" d="M 0 -5 
L -4.755283 -1.545085 
L -2.938926 4.045085 
L 2.938926 4.045085 
L 4.755283 -1.545085 
z
" style="stroke: #f4a460; stroke-opacity: 0.8"/>
    </defs>
    <g clip-path="url(#p70f2674e17)">
     <use xlink:href="#mc59ae4b6e3" x="63.54" y="317.976053" style="fill: #f4a460; fill-opacity: 0.8; stroke: #f4a460; stroke-opacity: 0.8"/>
     <use xlink:href="#mc59ae4b6e3" x="133.449545" y="297.975" style="fill: #f4a460; fill-opacity: 0.8; stroke: #f4a460; stroke-opacity: 0.8"/>
     <use xlink:href="#mc59ae4b6e3" x="203.359091" y="247.972368" style="fill: #f4a460; fill-opacity: 0.8; stroke: #f4a460; stroke-opacity: 0.8"/>
     <use xlink:href="#mc59ae4b6e3" x="273.268636" y="207.970263" style="fill: #f4a460; fill-opacity: 0.8; stroke: #f4a460; stroke-opacity: 0.8"/>
     <use xlink:href="#mc59ae4b6e3" x="343.178182" y="177.968684" style="fill: #f4a460; fill-opacity: 0.8; stroke: #f4a460; stroke-opacity: 0.8"/>
     <use xlink:href="#mc59ae4b6e3" x="413.087727" y="167.968158" style="fill: #f4a460; fill-opacity: 0.8; stroke: #f4a460; stroke-opacity: 0.8"/>
     <use xlink:href="#mc59ae4b6e3" x="482.997273" y="147.967105" style="fill: #f4a460; fill-opacity: 0.8; stroke: #f4a460; stroke-opacity: 0.8"/>
     <use xlink:href="#mc59ae4b6e3" x="552.906818" y="157.967632" style="fill: #f4a460; fill-opacity: 0.8; stroke: #f4a460; stroke-opacity: 0.8"/>
     <use xlink:href="#mc59ae4b6e3" x="622.816364" y="222.971053" style="fill: #f4a460; fill-opacity: 0.8; stroke: #f4a460; stroke-opacity: 0.8"/>
     <use xlink:href="#mc59ae4b6e3" x="692.725909" y="267.973421" style="fill: #f4a460; fill-opacity: 0.8; stroke: #f4a460; stroke-opacity: 0.8"/>
     <use xlink:href="#mc59ae4b6e3" x="762.635455" y="322.976316" style="fill: #f4a460; fill-opacity: 0.8; stroke: #f4a460; stroke-opacity: 0.8"/>
     <use xlink:href="#mc59ae4b6e3" x="832.545" y="327.976579" style="fill: #f4a460; fill-opacity: 0.8; stroke: #f4a460; stroke-opacity: 0.8"/>
    </g>
   </g>
   <g id="line2d_41">
    <path d="M 63.54 244.972211 
L 67.385025 248.041701 
L 71.23005 250.569947 
L 75.075075 252.580035 
L 78.9201 254.095053 
L 82.765125 255.138087 
L 86.61015 255.732223 
L 90.455175 255.900549 
L 94.3002 255.666151 
L 98.145225 255.052116 
L 101.99025 254.08153 
L 105.835275 252.777482 
L 109.6803 251.163056 
L 113.525325 249.26134 
L 117.37035 247.095421 
L 121.215375 244.688386 
L 125.0604 242.063321 
L 128.905425 239.243313 
L 132.75045 236.251448 
L 140.4405 229.844498 
L 148.13055 223.027164 
L 175.045725 198.601241 
L 182.735775 192.222768 
L 186.5808 189.249026 
L 190.425825 186.449729 
L 194.27085 183.847963 
L 198.115875 181.466817 
L 201.9609 179.329375 
L 205.805925 177.454222 
L 209.65095 175.82853 
L 213.495975 174.426097 
L 217.341 173.220671 
L 221.186025 172.185998 
L 225.03105 171.295828 
L 232.7211 169.843987 
L 244.256175 168.093689 
L 251.946225 166.905525 
L 259.636275 165.455303 
L 263.4813 164.56629 
L 267.326325 163.533007 
L 271.17135 162.3292 
L 275.016375 160.931395 
L 278.8614 159.34221 
L 282.706425 157.578562 
L 286.55145 155.657513 
L 294.2415 151.41146 
L 301.93155 146.740548 
L 309.6216 141.781278 
L 332.69175 126.538289 
L 340.3818 121.790562 
L 348.07185 117.413819 
L 355.7619 113.359982 
L 367.296975 107.629049 
L 382.677075 100.026161 
L 390.367125 95.977736 
L 398.057175 91.608555 
L 405.747225 86.801544 
L 409.59225 84.197265 
L 413.437275 81.44076 
L 421.127325 75.520962 
L 428.817375 69.238949 
L 444.197475 56.461474 
L 451.887525 50.402613 
L 455.73255 47.551158 
L 459.577575 44.854736 
L 463.4226 42.340635 
L 467.267625 40.036143 
L 471.11265 37.968546 
L 474.957675 36.165133 
L 478.8027 34.653191 
L 482.647725 33.459433 
L 486.49275 32.594059 
L 490.337775 32.048672 
L 494.1828 31.813886 
L 498.027825 31.880312 
L 501.87285 32.238564 
L 505.717875 32.879254 
L 509.5629 33.792993 
L 513.407925 34.970395 
L 517.25295 36.402072 
L 521.097975 38.078636 
L 524.943 39.9907 
L 528.788025 42.128876 
L 532.63305 44.483777 
L 536.478075 47.046015 
L 540.3231 49.806203 
L 544.168125 52.754953 
L 548.01315 55.882877 
L 551.858175 59.180559 
L 559.548225 66.239769 
L 567.238275 73.830887 
L 574.928325 81.849542 
L 582.618375 90.191368 
L 594.15345 103.081742 
L 613.378575 124.702988 
L 621.068625 133.095173 
L 628.758675 141.209269 
L 636.448725 149.032308 
L 644.138775 156.562311 
L 651.828825 163.797301 
L 659.518875 170.735302 
L 667.208925 177.374336 
L 674.898975 183.712425 
L 682.589025 189.747593 
L 690.279075 195.477864 
L 697.969125 200.906679 
L 705.659175 206.053993 
L 713.349225 210.942903 
L 721.039275 215.596504 
L 728.729325 220.037894 
L 736.419375 224.290168 
L 747.95445 230.364511 
L 759.489525 236.143259 
L 774.869625 243.523173 
L 824.85495 267.068828 
L 828.699975 268.973474 
L 828.699975 268.973474 
" clip-path="url(#p70f2674e17)" style="fill: none; stroke: #0000cd; stroke-opacity: 0.8; stroke-width: 2; stroke-linecap: round"/>
   </g>
   <g id="line2d_42">
    <path d="M 63.54 362.978421 
L 67.385025 365.141672 
L 71.23005 366.746453 
L 75.075075 367.814711 
L 78.9201 368.368397 
L 82.765125 368.42946 
L 86.61015 368.019849 
L 90.455175 367.161513 
L 94.3002 365.876402 
L 98.145225 364.186465 
L 101.99025 362.11365 
L 105.835275 359.679908 
L 109.6803 356.907188 
L 113.525325 353.817438 
L 117.37035 350.432608 
L 121.215375 346.774648 
L 125.0604 342.865506 
L 128.905425 338.727132 
L 132.75045 334.381474 
L 140.4405 325.156108 
L 148.13055 315.365001 
L 155.8206 305.183746 
L 182.735775 269.012087 
L 190.425825 259.248146 
L 198.115875 250.059826 
L 201.9609 245.736396 
L 205.805925 241.618099 
L 209.65095 237.690035 
L 217.341 230.290072 
L 225.03105 223.307185 
L 244.256175 206.169387 
L 251.946225 198.839924 
L 255.79125 194.95886 
L 259.636275 190.895344 
L 263.4813 186.620705 
L 267.326325 182.106271 
L 271.17135 177.32337 
L 275.016375 172.248514 
L 278.8614 166.906938 
L 286.55145 155.631609 
L 309.6216 120.826731 
L 313.466625 115.431279 
L 317.31165 110.290849 
L 321.156675 105.457643 
L 325.0017 100.983862 
L 328.846725 96.921707 
L 332.69175 93.323381 
L 336.536775 90.241084 
L 340.3818 87.727019 
L 344.226825 85.828675 
L 348.07185 84.53227 
L 351.916875 83.781174 
L 355.7619 83.517876 
L 359.606925 83.684869 
L 363.45195 84.224641 
L 367.296975 85.079684 
L 371.142 86.192488 
L 374.987025 87.505543 
L 382.677075 90.502369 
L 390.367125 93.610085 
L 394.21215 95.061753 
L 398.057175 96.368614 
L 401.9022 97.47316 
L 405.747225 98.31788 
L 409.59225 98.845265 
L 413.437275 99.00058 
L 417.2823 98.781103 
L 421.127325 98.230307 
L 424.97235 97.393269 
L 428.817375 96.315066 
L 432.6624 95.040776 
L 440.35245 92.084247 
L 455.73255 85.801565 
L 459.577575 84.416842 
L 463.4226 83.196655 
L 467.267625 82.186079 
L 471.11265 81.430194 
L 474.957675 80.974076 
L 478.8027 80.862804 
L 482.647725 81.140477 
L 486.49275 81.823059 
L 490.337775 82.894837 
L 494.1828 84.338404 
L 498.027825 86.136358 
L 501.87285 88.271293 
L 505.717875 90.725805 
L 509.5629 93.482489 
L 513.407925 96.52394 
L 517.25295 99.832754 
L 521.097975 103.391526 
L 524.943 107.182852 
L 528.788025 111.189327 
L 532.63305 115.393546 
L 540.3231 124.325599 
L 548.01315 133.839775 
L 555.7032 143.799144 
L 563.39325 154.092189 
L 574.928325 169.947962 
L 601.8435 207.215083 
L 609.53355 217.502406 
L 617.2236 227.454381 
L 624.91365 236.981768 
L 632.6037 246.077262 
L 640.29375 254.79086 
L 647.9838 263.173732 
L 655.67385 271.277051 
L 667.208925 283.019804 
L 678.744 294.421402 
L 701.81415 316.811563 
L 713.349225 327.716795 
L 721.039275 334.732714 
L 728.729325 341.465204 
L 736.419375 347.845656 
L 744.109425 353.805462 
L 751.799475 359.276014 
L 755.6445 361.806381 
L 759.489525 364.188706 
L 763.33455 366.414414 
L 767.179575 368.474928 
L 771.0246 370.361674 
L 774.869625 372.066074 
L 778.71465 373.579553 
L 782.559675 374.893536 
L 786.4047 375.999445 
L 790.249725 376.888705 
L 794.09475 377.55274 
L 797.939775 377.982974 
L 801.7848 378.170831 
L 805.629825 378.107735 
L 809.47485 377.78511 
L 813.319875 377.194381 
L 817.1649 376.326971 
L 821.009925 375.174303 
L 824.85495 373.727803 
L 828.699975 371.978895 
L 828.699975 371.978895 
" clip-path="url(#p70f2674e17)" style="fill: none; stroke: #ff8c00; stroke-opacity: 0.8; stroke-width: 2; stroke-linecap: round"/>
   </g>
   <g id="line2d_43">
    <path d="M 63.54 330.976737 
L 71.23005 329.990576 
L 78.9201 328.83542 
L 86.61015 327.500371 
L 94.3002 325.974532 
L 101.99025 324.247004 
L 109.6803 322.306889 
L 117.37035 320.143291 
L 125.0604 317.745309 
L 132.75045 315.102047 
L 140.4405 312.202607 
L 148.13055 309.036091 
L 155.8206 305.591601 
L 163.51065 301.858238 
L 171.2007 297.825105 
L 178.89075 293.481304 
L 186.5808 288.815937 
L 194.27085 283.818106 
L 201.9609 278.476913 
L 209.65095 272.793709 
L 217.341 266.834284 
L 228.876075 257.567347 
L 248.1012 241.972645 
L 255.79125 235.935847 
L 263.4813 230.144333 
L 271.17135 224.685022 
L 278.8614 219.635033 
L 286.55145 215.012201 
L 294.2415 210.81219 
L 301.93155 207.030625 
L 309.6216 203.663131 
L 317.31165 200.705331 
L 325.0017 198.152851 
L 332.69175 196.001314 
L 340.3818 194.246347 
L 348.07185 192.878375 
L 355.7619 191.851581 
L 363.45195 191.104711 
L 371.142 190.576455 
L 382.677075 190.059855 
L 409.59225 189.068521 
L 417.2823 188.570885 
L 428.817375 187.558532 
L 440.35245 186.294633 
L 455.73255 184.350025 
L 490.337775 179.801469 
L 498.027825 179.046089 
L 505.717875 178.592198 
L 509.5629 178.514814 
L 513.407925 178.556605 
L 517.25295 178.732173 
L 521.097975 179.056119 
L 524.943 179.543043 
L 528.788025 180.207546 
L 532.63305 181.064231 
L 536.478075 182.127697 
L 540.3231 183.412545 
L 544.168125 184.933378 
L 548.01315 186.704795 
L 551.858175 188.741066 
L 555.7032 191.040302 
L 559.548225 193.577505 
L 563.39325 196.325903 
L 567.238275 199.258721 
L 574.928325 205.570523 
L 582.618375 212.298723 
L 601.8435 229.535344 
L 609.53355 236.034193 
L 613.378575 239.091709 
L 617.2236 241.985587 
L 621.068625 244.689208 
L 624.91365 247.190898 
L 628.758675 249.506268 
L 632.6037 251.653831 
L 636.448725 253.6521 
L 644.138775 257.274812 
L 651.828825 260.522512 
L 663.3639 265.0149 
L 674.898975 269.496614 
L 682.589025 272.72534 
L 690.279075 276.319562 
L 697.969125 280.376739 
L 705.659175 284.839859 
L 713.349225 289.622548 
L 724.8843 297.206833 
L 751.799475 315.306467 
L 759.489525 320.19273 
L 767.179575 324.793948 
L 774.869625 329.023749 
L 778.71465 330.972375 
L 782.559675 332.795757 
L 786.4047 334.483097 
L 790.249725 336.0236 
L 794.09475 337.406468 
L 797.939775 338.620904 
L 801.7848 339.656112 
L 805.629825 340.501296 
L 809.47485 341.145658 
L 813.319875 341.578402 
L 817.1649 341.788731 
L 821.009925 341.765849 
L 824.85495 341.498959 
L 828.699975 340.977263 
L 828.699975 340.977263 
" clip-path="url(#p70f2674e17)" style="fill: none; stroke: #8b0000; stroke-opacity: 0.8; stroke-width: 2; stroke-linecap: round"/>
   </g>
   <g id="line2d_44">
    <path d="M 63.54 336.977053 
L 67.385025 337.241701 
L 71.23005 337.26537 
L 75.075075 337.054651 
L 78.9201 336.616135 
L 82.765125 335.956411 
L 86.61015 335.082072 
L 90.455175 333.999708 
L 94.3002 332.71591 
L 98.145225 331.237268 
L 101.99025 329.570373 
L 105.835275 327.721816 
L 109.6803 325.698187 
L 113.525325 323.506078 
L 117.37035 321.152079 
L 121.215375 318.642782 
L 125.0604 315.984776 
L 132.75045 310.249001 
L 140.4405 303.997483 
L 148.13055 297.282947 
L 155.8206 290.158119 
L 163.51065 282.675726 
L 171.2007 274.888492 
L 178.89075 266.849145 
L 190.425825 254.43275 
L 205.805925 237.487083 
L 232.7211 207.780434 
L 244.256175 195.354366 
L 255.79125 183.288689 
L 263.4813 175.505695 
L 271.17135 167.973735 
L 278.8614 160.733578 
L 286.55145 153.852746 
L 294.2415 147.408773 
L 301.93155 141.479207 
L 305.776575 138.731561 
L 309.6216 136.141598 
L 313.466625 133.719012 
L 317.31165 131.473495 
L 321.156675 129.414742 
L 325.0017 127.552447 
L 328.846725 125.896303 
L 332.69175 124.456003 
L 336.536775 123.241242 
L 340.3818 122.261714 
L 344.226825 121.526009 
L 348.07185 121.028396 
L 351.916875 120.753125 
L 355.7619 120.684242 
L 359.606925 120.805791 
L 363.45195 121.101817 
L 367.296975 121.556365 
L 371.142 122.153479 
L 378.83205 123.711589 
L 386.5221 125.648504 
L 394.21215 127.836584 
L 417.2823 134.641478 
L 424.97235 136.669335 
L 432.6624 138.542312 
L 444.197475 141.068641 
L 455.73255 143.265168 
L 467.267625 145.143101 
L 478.8027 146.713648 
L 490.337775 148.017229 
L 505.717875 149.77703 
L 513.407925 150.886867 
L 521.097975 152.280853 
L 528.788025 154.057131 
L 532.63305 155.119299 
L 536.478075 156.313844 
L 540.3231 157.653034 
L 544.168125 159.149136 
L 548.01315 160.814418 
L 551.858175 162.660979 
L 555.7032 164.692629 
L 559.548225 166.90133 
L 563.39325 169.278134 
L 567.238275 171.814089 
L 571.0833 174.500246 
L 578.77335 180.28737 
L 586.4634 186.567908 
L 594.15345 193.270264 
L 601.8435 200.322842 
L 609.53355 207.654043 
L 621.068625 219.016658 
L 640.29375 238.408666 
L 659.518875 257.712081 
L 671.05395 268.946941 
L 678.744 276.194535 
L 686.43405 283.193597 
L 694.1241 289.898576 
L 701.81415 296.284413 
L 709.5042 302.342209 
L 717.19425 308.063502 
L 724.8843 313.43983 
L 732.57435 318.46273 
L 740.2644 323.123741 
L 747.95445 327.414401 
L 755.6445 331.326247 
L 763.33455 334.850817 
L 771.0246 337.97965 
L 778.71465 340.704284 
L 786.4047 343.016256 
L 794.09475 344.907105 
L 801.7848 346.368368 
L 809.47485 347.391583 
L 813.319875 347.736279 
L 817.1649 347.968289 
L 821.009925 348.086556 
L 824.85495 348.090023 
L 828.699975 347.977632 
L 828.699975 347.977632 
" clip-path="url(#p70f2674e17)" style="fill: none; stroke: #008080; stroke-opacity: 0.8; stroke-width: 2; stroke-linecap: round"/>
   </g>
   <g id="line2d_45">
    <path d="M 63.54 317.976053 
L 67.385025 318.54311 
L 71.23005 318.866837 
L 75.075075 318.956106 
L 78.9201 318.819793 
L 82.765125 318.46677 
L 86.61015 317.905912 
L 90.455175 317.146092 
L 94.3002 316.196184 
L 98.145225 315.065062 
L 101.99025 313.7616 
L 105.835275 312.294672 
L 109.6803 310.67315 
L 113.525325 308.90591 
L 117.37035 307.001825 
L 125.0604 302.818616 
L 132.75045 298.194512 
L 140.4405 293.200505 
L 148.13055 287.907585 
L 159.665625 279.563034 
L 178.89075 265.166585 
L 190.425825 256.625843 
L 198.115875 251.120383 
L 205.805925 245.847279 
L 213.495975 240.833603 
L 221.186025 236.052196 
L 228.876075 231.472401 
L 240.41115 224.913673 
L 251.946225 218.636136 
L 271.17135 208.517429 
L 290.396475 198.594516 
L 301.93155 192.949787 
L 309.6216 189.422951 
L 317.31165 186.145406 
L 325.0017 183.168784 
L 332.69175 180.544718 
L 340.3818 178.324839 
L 348.07185 176.547414 
L 355.7619 175.157486 
L 363.45195 174.060404 
L 374.987025 172.756493 
L 394.21215 170.704547 
L 401.9022 169.649704 
L 409.59225 168.318911 
L 417.2823 166.631145 
L 424.97235 164.616608 
L 432.6624 162.359292 
L 444.197475 158.702605 
L 459.577575 153.764487 
L 467.267625 151.458396 
L 474.957675 149.373406 
L 482.647725 147.593855 
L 490.337775 146.203294 
L 494.1828 145.679501 
L 498.027825 145.283654 
L 501.87285 145.025968 
L 505.717875 144.916661 
L 509.5629 144.965948 
L 513.407925 145.184045 
L 517.25295 145.581169 
L 521.097975 146.167534 
L 524.943 146.953359 
L 528.788025 147.948857 
L 532.63305 149.164247 
L 536.478075 150.609743 
L 540.3231 152.295561 
L 544.168125 154.231918 
L 548.01315 156.42903 
L 551.858175 158.896822 
L 555.7032 161.631047 
L 559.548225 164.607192 
L 563.39325 167.799186 
L 567.238275 171.180958 
L 574.928325 178.409549 
L 582.618375 186.084396 
L 605.688525 209.700768 
L 613.378575 217.074935 
L 617.2236 220.551331 
L 621.068625 223.852657 
L 624.91365 226.967556 
L 628.758675 229.911263 
L 636.448725 235.357345 
L 644.138775 240.335396 
L 651.828825 244.989914 
L 678.744 260.819044 
L 686.43405 265.805786 
L 694.1241 271.254409 
L 701.81415 277.155679 
L 709.5042 283.386497 
L 721.039275 293.074588 
L 736.419375 305.967704 
L 744.109425 312.119907 
L 751.799475 317.907622 
L 755.6445 320.625363 
L 759.489525 323.204662 
L 763.33455 325.629745 
L 767.179575 327.884838 
L 771.0246 329.954169 
L 774.869625 331.821963 
L 778.71465 333.472447 
L 782.559675 334.889847 
L 786.4047 336.058391 
L 790.249725 336.962304 
L 794.09475 337.585813 
L 797.939775 337.913144 
L 801.7848 337.928524 
L 805.629825 337.61618 
L 809.47485 336.960337 
L 813.319875 335.945223 
L 817.1649 334.555063 
L 821.009925 332.774085 
L 824.85495 330.586515 
L 828.699975 327.976579 
L 828.699975 327.976579 
" clip-path="url(#p70f2674e17)" style="fill: none; stroke: #f4a460; stroke-opacity: 0.8; stroke-width: 2; stroke-linecap: round"/>
   </g>
   <g id="patch_3">
    <path d="M 63.54 392.98 
L 63.54 12.96 
" style="fill: none; stroke: #262626; stroke-width: 1.25; stroke-linejoin: miter; stroke-linecap: square"/>
   </g>
   <g id="patch_4">
    <path d="M 63.54 392.98 
L 832.545 392.98 
" style="fill: none; stroke: #262626; stroke-width: 1.25; stroke-linejoin: miter; stroke-linecap: square"/>
   </g>
   <g id="legend_1">
    <g id="patch_5">
     <path d="M 726.647656 99.822188 
L 824.845 99.822188 
Q 827.045 99.822188 827.045 97.622188 
L 827.045 20.66 
Q 827.045 18.46 824.845 18.46 
L 726.647656 18.46 
Q 724.447656 18.46 724.447656 20.66 
L 724.447656 97.622188 
Q 724.447656 99.822188 726.647656 99.822188 
z
" style="fill: #ffffff; opacity: 0.8; stroke: #cccccc; stroke-linejoin: miter"/>
    </g>
    <g id="PathCollection_6">
     <g>
      <use xlink:href="#m0e2b2266d4" x="739.847656" y="27.846094" style="fill: #0000cd; fill-opacity: 0.8; stroke: #0000cd; stroke-opacity: 0.8"/>
     </g>
    </g>
    <g id="text_22">
     <!-- Madrid -->
     <g style="fill: #262626" transform="translate(759.647656 30.733594)scale(0.11 -0.11)">
      <defs>
       <path id="ArialMT-64" d="M 2575 0 
L 2575 419 
Q 2259 -75 1647 -75 
Q 1250 -75 917 144 
Q 584 363 401 755 
Q 219 1147 219 1656 
Q 219 2153 384 2558 
Q 550 2963 881 3178 
Q 1213 3394 1622 3394 
Q 1922 3394 2156 3267 
Q 2391 3141 2538 2938 
L 2538 4581 
L 3097 4581 
L 3097 0 
L 2575 0 
z
M 797 1656 
Q 797 1019 1065 703 
Q 1334 388 1700 388 
Q 2069 388 2326 689 
Q 2584 991 2584 1609 
Q 2584 2291 2321 2609 
Q 2059 2928 1675 2928 
Q 1300 2928 1048 2622 
Q 797 2316 797 1656 
z
" transform="scale(0.015625)"/>
       <path id="ArialMT-69" d="M 425 3934 
L 425 4581 
L 988 4581 
L 988 3934 
L 425 3934 
z
M 425 0 
L 425 3319 
L 988 3319 
L 988 0 
L 425 0 
z
" transform="scale(0.015625)"/>
      </defs>
      <use xlink:href="#ArialMT-4d"/>
      <use xlink:href="#ArialMT-61" x="83.300781"/>
      <use xlink:href="#ArialMT-64" x="138.916016"/>
      <use xlink:href="#ArialMT-72" x="194.53125"/>
      <use xlink:href="#ArialMT-69" x="227.832031"/>
      <use xlink:href="#ArialMT-64" x="250.048828"/>
     </g>
    </g>
    <g id="PathCollection_7">
     <g>
      <use xlink:href="#ma9407d748a" x="739.847656" y="43.405938" style="fill: #ff8c00; stroke: #ff8c00"/>
     </g>
    </g>
    <g id="text_23">
     <!-- Tallinn -->
     <g style="fill: #262626" transform="translate(759.647656 46.293438)scale(0.11 -0.11)">
      <use xlink:href="#ArialMT-54"/>
      <use xlink:href="#ArialMT-61" x="49.958984"/>
      <use xlink:href="#ArialMT-6c" x="105.574219"/>
      <use xlink:href="#ArialMT-6c" x="127.791016"/>
      <use xlink:href="#ArialMT-69" x="150.007812"/>
      <use xlink:href="#ArialMT-6e" x="172.224609"/>
      <use xlink:href="#ArialMT-6e" x="227.839844"/>
     </g>
    </g>
    <g id="PathCollection_8">
     <g>
      <use xlink:href="#m7ca7aa2b9c" x="739.847656" y="58.965781" style="fill: #8b0000; fill-opacity: 0.8; stroke: #8b0000; stroke-opacity: 0.8"/>
     </g>
    </g>
    <g id="text_24">
     <!-- London -->
     <g style="fill: #262626" transform="translate(759.647656 61.853281)scale(0.11 -0.11)">
      <defs>
       <path id="ArialMT-4c" d="M 469 0 
L 469 4581 
L 1075 4581 
L 1075 541 
L 3331 541 
L 3331 0 
L 469 0 
z
" transform="scale(0.015625)"/>
      </defs>
      <use xlink:href="#ArialMT-4c"/>
      <use xlink:href="#ArialMT-6f" x="55.615234"/>
      <use xlink:href="#ArialMT-6e" x="111.230469"/>
      <use xlink:href="#ArialMT-64" x="166.845703"/>
      <use xlink:href="#ArialMT-6f" x="222.460938"/>
      <use xlink:href="#ArialMT-6e" x="278.076172"/>
     </g>
    </g>
    <g id="PathCollection_9">
     <g>
      <use xlink:href="#mcd4d80ba34" x="739.847656" y="74.659688" style="fill: #008080; fill-opacity: 0.8; stroke: #008080; stroke-opacity: 0.8"/>
     </g>
    </g>
    <g id="text_25">
     <!-- Copenhagen -->
     <g style="fill: #262626" transform="translate(759.647656 77.547188)scale(0.11 -0.11)">
      <defs>
       <path id="ArialMT-43" d="M 3763 1606 
L 4369 1453 
Q 4178 706 3683 314 
Q 3188 -78 2472 -78 
Q 1731 -78 1267 223 
Q 803 525 561 1097 
Q 319 1669 319 2325 
Q 319 3041 592 3573 
Q 866 4106 1370 4382 
Q 1875 4659 2481 4659 
Q 3169 4659 3637 4309 
Q 4106 3959 4291 3325 
L 3694 3184 
Q 3534 3684 3231 3912 
Q 2928 4141 2469 4141 
Q 1941 4141 1586 3887 
Q 1231 3634 1087 3207 
Q 944 2781 944 2328 
Q 944 1744 1114 1308 
Q 1284 872 1643 656 
Q 2003 441 2422 441 
Q 2931 441 3284 734 
Q 3638 1028 3763 1606 
z
" transform="scale(0.015625)"/>
       <path id="ArialMT-68" d="M 422 0 
L 422 4581 
L 984 4581 
L 984 2938 
Q 1378 3394 1978 3394 
Q 2347 3394 2619 3248 
Q 2891 3103 3008 2847 
Q 3125 2591 3125 2103 
L 3125 0 
L 2563 0 
L 2563 2103 
Q 2563 2525 2380 2717 
Q 2197 2909 1863 2909 
Q 1613 2909 1392 2779 
Q 1172 2650 1078 2428 
Q 984 2206 984 1816 
L 984 0 
L 422 0 
z
" transform="scale(0.015625)"/>
      </defs>
      <use xlink:href="#ArialMT-43"/>
      <use xlink:href="#ArialMT-6f" x="72.216797"/>
      <use xlink:href="#ArialMT-70" x="127.832031"/>
      <use xlink:href="#ArialMT-65" x="183.447266"/>
      <use xlink:href="#ArialMT-6e" x="239.0625"/>
      <use xlink:href="#ArialMT-68" x="294.677734"/>
      <use xlink:href="#ArialMT-61" x="350.292969"/>
      <use xlink:href="#ArialMT-67" x="405.908203"/>
      <use xlink:href="#ArialMT-65" x="461.523438"/>
      <use xlink:href="#ArialMT-6e" x="517.138672"/>
     </g>
    </g>
    <g id="PathCollection_10">
     <g>
      <use xlink:href="#mc59ae4b6e3" x="739.847656" y="90.348438" style="fill: #f4a460; fill-opacity: 0.8; stroke: #f4a460; stroke-opacity: 0.8"/>
     </g>
    </g>
    <g id="text_26">
     <!-- Munich -->
     <g style="fill: #262626" transform="translate(759.647656 93.235938)scale(0.11 -0.11)">
      <use xlink:href="#ArialMT-4d"/>
      <use xlink:href="#ArialMT-75" x="83.300781"/>
      <use xlink:href="#ArialMT-6e" x="138.916016"/>
      <use xlink:href="#ArialMT-69" x="194.53125"/>
      <use xlink:href="#ArialMT-63" x="216.748047"/>
      <use xlink:href="#ArialMT-68" x="266.748047"/>
     </g>
    </g>
   </g>
  </g>
 </g>
 <defs>
  <clipPath id="p70f2674e17">
   <rect x="63.54" y="12.96" width="769.005" height="380.02"/>
  </clipPath>
 </defs>
</svg>
