<?xml version="1.0" encoding="utf-8" standalone="no"?>
<!DOCTYPE svg PUBLIC "-//W3C//DTD SVG 1.1//EN"
  "http://www.w3.org/Graphics/SVG/1.1/DTD/svg11.dtd">
<svg xmlns:xlink="http://www.w3.org/1999/xlink" width="576pt" height="288pt" viewBox="0 0 576 288" xmlns="http://www.w3.org/2000/svg" version="1.1">
 <metadata>
  <rdf:RDF xmlns:dc="http://purl.org/dc/elements/1.1/" xmlns:cc="http://creativecommons.org/ns#" xmlns:rdf="http://www.w3.org/1999/02/22-rdf-syntax-ns#">
   <cc:Work>
    <dc:type rdf:resource="http://purl.org/dc/dcmitype/StillImage"/>
    <dc:date>2023-08-21T09:17:22.991685</dc:date>
    <dc:format>image/svg+xml</dc:format>
    <dc:creator>
     <cc:Agent>
      <dc:title>Matplotlib v3.5.3, https://matplotlib.org/</dc:title>
     </cc:Agent>
    </dc:creator>
   </cc:Work>
  </rdf:RDF>
 </metadata>
 <defs>
  <style type="text/css">*{stroke-linejoin: round; stroke-linecap: butt}</style>
 </defs>
 <g id="figure_1">
  <g id="patch_1">
   <path d="M 0 288 
L 576 288 
L 576 0 
L 0 0 
L 0 288 
z
" style="fill: none"/>
  </g>
  <g id="axes_1">
   <g id="patch_2">
    <path d="M 62.84 226.801533 
L 542.420766 226.801533 
L 542.420766 12.96 
L 62.84 12.96 
L 62.84 226.801533 
z
" style="fill: none"/>
   </g>
   <g id="matplotlib.axis_1">
    <g id="xtick_1">
     <g id="line2d_1">
      <path d="M 83.691338 226.801533 
L 83.691338 12.96 
" clip-path="url(#p5050d470bf)" style="fill: none; stroke-dasharray: 2.22,0.96; stroke-dashoffset: 0; stroke: #808080; stroke-opacity: 0.4; stroke-width: 0.6"/>
     </g>
     <g id="text_1">
      <!-- 01:00 -->
      <g style="fill: #262626" transform="translate(72.253112 271.631303)rotate(-45)scale(0.18 -0.18)">
       <defs>
        <path id="TimesNewRomanPSMT-30" d="M 231 2094 
Q 231 2819 450 3342 
Q 669 3866 1031 4122 
Q 1313 4325 1613 4325 
Q 2100 4325 2488 3828 
Q 2972 3213 2972 2159 
Q 2972 1422 2759 906 
Q 2547 391 2217 158 
Q 1888 -75 1581 -75 
Q 975 -75 572 641 
Q 231 1244 231 2094 
z
M 844 2016 
Q 844 1141 1059 588 
Q 1238 122 1591 122 
Q 1759 122 1940 273 
Q 2122 425 2216 781 
Q 2359 1319 2359 2297 
Q 2359 3022 2209 3506 
Q 2097 3866 1919 4016 
Q 1791 4119 1609 4119 
Q 1397 4119 1231 3928 
Q 1006 3669 925 3112 
Q 844 2556 844 2016 
z
" transform="scale(0.015625)"/>
        <path id="TimesNewRomanPSMT-31" d="M 750 3822 
L 1781 4325 
L 1884 4325 
L 1884 747 
Q 1884 391 1914 303 
Q 1944 216 2037 169 
Q 2131 122 2419 116 
L 2419 0 
L 825 0 
L 825 116 
Q 1125 122 1212 167 
Q 1300 213 1334 289 
Q 1369 366 1369 747 
L 1369 3034 
Q 1369 3497 1338 3628 
Q 1316 3728 1258 3775 
Q 1200 3822 1119 3822 
Q 1003 3822 797 3725 
L 750 3822 
z
" transform="scale(0.015625)"/>
        <path id="TimesNewRomanPSMT-3a" d="M 903 2950 
Q 1047 2950 1148 2848 
Q 1250 2747 1250 2603 
Q 1250 2459 1148 2357 
Q 1047 2256 903 2256 
Q 759 2256 657 2357 
Q 556 2459 556 2603 
Q 556 2747 657 2848 
Q 759 2950 903 2950 
z
M 897 609 
Q 1044 609 1145 506 
Q 1247 403 1247 259 
Q 1247 116 1144 14 
Q 1041 -88 897 -88 
Q 753 -88 651 14 
Q 550 116 550 259 
Q 550 403 651 506 
Q 753 609 897 609 
z
" transform="scale(0.015625)"/>
       </defs>
       <use xlink:href="#TimesNewRomanPSMT-30"/>
       <use xlink:href="#TimesNewRomanPSMT-31" x="50"/>
       <use xlink:href="#TimesNewRomanPSMT-3a" x="100"/>
       <use xlink:href="#TimesNewRomanPSMT-30" x="127.783203"/>
       <use xlink:href="#TimesNewRomanPSMT-30" x="177.783203"/>
      </g>
     </g>
    </g>
    <g id="xtick_2">
     <g id="line2d_2">
      <path d="M 125.394013 226.801533 
L 125.394013 12.96 
" clip-path="url(#p5050d470bf)" style="fill: none; stroke-dasharray: 2.22,0.96; stroke-dashoffset: 0; stroke: #808080; stroke-opacity: 0.4; stroke-width: 0.6"/>
     </g>
     <g id="text_2">
      <!-- 03:00 -->
      <g style="fill: #262626" transform="translate(113.955787 271.631303)rotate(-45)scale(0.18 -0.18)">
       <defs>
        <path id="TimesNewRomanPSMT-33" d="M 325 3431 
Q 506 3859 782 4092 
Q 1059 4325 1472 4325 
Q 1981 4325 2253 3994 
Q 2459 3747 2459 3466 
Q 2459 3003 1878 2509 
Q 2269 2356 2469 2072 
Q 2669 1788 2669 1403 
Q 2669 853 2319 450 
Q 1863 -75 997 -75 
Q 569 -75 414 31 
Q 259 138 259 259 
Q 259 350 332 419 
Q 406 488 509 488 
Q 588 488 669 463 
Q 722 447 909 348 
Q 1097 250 1169 231 
Q 1284 197 1416 197 
Q 1734 197 1970 444 
Q 2206 691 2206 1028 
Q 2206 1275 2097 1509 
Q 2016 1684 1919 1775 
Q 1784 1900 1550 2001 
Q 1316 2103 1072 2103 
L 972 2103 
L 972 2197 
Q 1219 2228 1467 2375 
Q 1716 2522 1828 2728 
Q 1941 2934 1941 3181 
Q 1941 3503 1739 3701 
Q 1538 3900 1238 3900 
Q 753 3900 428 3381 
L 325 3431 
z
" transform="scale(0.015625)"/>
       </defs>
       <use xlink:href="#TimesNewRomanPSMT-30"/>
       <use xlink:href="#TimesNewRomanPSMT-33" x="50"/>
       <use xlink:href="#TimesNewRomanPSMT-3a" x="100"/>
       <use xlink:href="#TimesNewRomanPSMT-30" x="127.783203"/>
       <use xlink:href="#TimesNewRomanPSMT-30" x="177.783203"/>
      </g>
     </g>
    </g>
    <g id="xtick_3">
     <g id="line2d_3">
      <path d="M 167.096688 226.801533 
L 167.096688 12.96 
" clip-path="url(#p5050d470bf)" style="fill: none; stroke-dasharray: 2.22,0.96; stroke-dashoffset: 0; stroke: #808080; stroke-opacity: 0.4; stroke-width: 0.6"/>
     </g>
     <g id="text_3">
      <!-- 05:00 -->
      <g style="fill: #262626" transform="translate(155.658463 271.631303)rotate(-45)scale(0.18 -0.18)">
       <defs>
        <path id="TimesNewRomanPSMT-35" d="M 2778 4238 
L 2534 3706 
L 1259 3706 
L 981 3138 
Q 1809 3016 2294 2522 
Q 2709 2097 2709 1522 
Q 2709 1188 2573 903 
Q 2438 619 2231 419 
Q 2025 219 1772 97 
Q 1413 -75 1034 -75 
Q 653 -75 479 54 
Q 306 184 306 341 
Q 306 428 378 495 
Q 450 563 559 563 
Q 641 563 702 538 
Q 763 513 909 409 
Q 1144 247 1384 247 
Q 1750 247 2026 523 
Q 2303 800 2303 1197 
Q 2303 1581 2056 1914 
Q 1809 2247 1375 2428 
Q 1034 2569 447 2591 
L 1259 4238 
L 2778 4238 
z
" transform="scale(0.015625)"/>
       </defs>
       <use xlink:href="#TimesNewRomanPSMT-30"/>
       <use xlink:href="#TimesNewRomanPSMT-35" x="50"/>
       <use xlink:href="#TimesNewRomanPSMT-3a" x="100"/>
       <use xlink:href="#TimesNewRomanPSMT-30" x="127.783203"/>
       <use xlink:href="#TimesNewRomanPSMT-30" x="177.783203"/>
      </g>
     </g>
    </g>
    <g id="xtick_4">
     <g id="line2d_4">
      <path d="M 208.799364 226.801533 
L 208.799364 12.96 
" clip-path="url(#p5050d470bf)" style="fill: none; stroke-dasharray: 2.22,0.96; stroke-dashoffset: 0; stroke: #808080; stroke-opacity: 0.4; stroke-width: 0.6"/>
     </g>
     <g id="text_4">
      <!-- 07:00 -->
      <g style="fill: #262626" transform="translate(197.361138 271.631303)rotate(-45)scale(0.18 -0.18)">
       <defs>
        <path id="TimesNewRomanPSMT-37" d="M 644 4238 
L 2916 4238 
L 2916 4119 
L 1503 -88 
L 1153 -88 
L 2419 3728 
L 1253 3728 
Q 900 3728 750 3644 
Q 488 3500 328 3200 
L 238 3234 
L 644 4238 
z
" transform="scale(0.015625)"/>
       </defs>
       <use xlink:href="#TimesNewRomanPSMT-30"/>
       <use xlink:href="#TimesNewRomanPSMT-37" x="50"/>
       <use xlink:href="#TimesNewRomanPSMT-3a" x="100"/>
       <use xlink:href="#TimesNewRomanPSMT-30" x="127.783203"/>
       <use xlink:href="#TimesNewRomanPSMT-30" x="177.783203"/>
      </g>
     </g>
    </g>
    <g id="xtick_5">
     <g id="line2d_5">
      <path d="M 250.502039 226.801533 
L 250.502039 12.96 
" clip-path="url(#p5050d470bf)" style="fill: none; stroke-dasharray: 2.22,0.96; stroke-dashoffset: 0; stroke: #808080; stroke-opacity: 0.4; stroke-width: 0.6"/>
     </g>
     <g id="text_5">
      <!-- 09:00 -->
      <g style="fill: #262626" transform="translate(239.063813 271.631303)rotate(-45)scale(0.18 -0.18)">
       <defs>
        <path id="TimesNewRomanPSMT-39" d="M 338 -88 
L 338 28 
Q 744 34 1094 217 
Q 1444 400 1770 856 
Q 2097 1313 2225 1859 
Q 1734 1544 1338 1544 
Q 891 1544 572 1889 
Q 253 2234 253 2806 
Q 253 3363 572 3797 
Q 956 4325 1575 4325 
Q 2097 4325 2469 3894 
Q 2925 3359 2925 2575 
Q 2925 1869 2578 1258 
Q 2231 647 1613 244 
Q 1109 -88 516 -88 
L 338 -88 
z
M 2275 2091 
Q 2331 2497 2331 2741 
Q 2331 3044 2228 3395 
Q 2125 3747 1936 3934 
Q 1747 4122 1506 4122 
Q 1228 4122 1018 3872 
Q 809 3622 809 3128 
Q 809 2469 1088 2097 
Q 1291 1828 1588 1828 
Q 1731 1828 1928 1897 
Q 2125 1966 2275 2091 
z
" transform="scale(0.015625)"/>
       </defs>
       <use xlink:href="#TimesNewRomanPSMT-30"/>
       <use xlink:href="#TimesNewRomanPSMT-39" x="50"/>
       <use xlink:href="#TimesNewRomanPSMT-3a" x="100"/>
       <use xlink:href="#TimesNewRomanPSMT-30" x="127.783203"/>
       <use xlink:href="#TimesNewRomanPSMT-30" x="177.783203"/>
      </g>
     </g>
    </g>
    <g id="xtick_6">
     <g id="line2d_6">
      <path d="M 292.204714 226.801533 
L 292.204714 12.96 
" clip-path="url(#p5050d470bf)" style="fill: none; stroke-dasharray: 2.22,0.96; stroke-dashoffset: 0; stroke: #808080; stroke-opacity: 0.4; stroke-width: 0.6"/>
     </g>
     <g id="text_6">
      <!-- 11:00 -->
      <g style="fill: #262626" transform="translate(281.005137 271.154006)rotate(-45)scale(0.18 -0.18)">
       <use xlink:href="#TimesNewRomanPSMT-31"/>
       <use xlink:href="#TimesNewRomanPSMT-31" x="46.25"/>
       <use xlink:href="#TimesNewRomanPSMT-3a" x="96.25"/>
       <use xlink:href="#TimesNewRomanPSMT-30" x="124.033203"/>
       <use xlink:href="#TimesNewRomanPSMT-30" x="174.033203"/>
      </g>
     </g>
    </g>
    <g id="xtick_7">
     <g id="line2d_7">
      <path d="M 333.90739 226.801533 
L 333.90739 12.96 
" clip-path="url(#p5050d470bf)" style="fill: none; stroke-dasharray: 2.22,0.96; stroke-dashoffset: 0; stroke: #808080; stroke-opacity: 0.4; stroke-width: 0.6"/>
     </g>
     <g id="text_7">
      <!-- 13:00 -->
      <g style="fill: #262626" transform="translate(322.469164 271.631303)rotate(-45)scale(0.18 -0.18)">
       <use xlink:href="#TimesNewRomanPSMT-31"/>
       <use xlink:href="#TimesNewRomanPSMT-33" x="50"/>
       <use xlink:href="#TimesNewRomanPSMT-3a" x="100"/>
       <use xlink:href="#TimesNewRomanPSMT-30" x="127.783203"/>
       <use xlink:href="#TimesNewRomanPSMT-30" x="177.783203"/>
      </g>
     </g>
    </g>
    <g id="xtick_8">
     <g id="line2d_8">
      <path d="M 375.610065 226.801533 
L 375.610065 12.96 
" clip-path="url(#p5050d470bf)" style="fill: none; stroke-dasharray: 2.22,0.96; stroke-dashoffset: 0; stroke: #808080; stroke-opacity: 0.4; stroke-width: 0.6"/>
     </g>
     <g id="text_8">
      <!-- 15:00 -->
      <g style="fill: #262626" transform="translate(364.171839 271.631303)rotate(-45)scale(0.18 -0.18)">
       <use xlink:href="#TimesNewRomanPSMT-31"/>
       <use xlink:href="#TimesNewRomanPSMT-35" x="50"/>
       <use xlink:href="#TimesNewRomanPSMT-3a" x="100"/>
       <use xlink:href="#TimesNewRomanPSMT-30" x="127.783203"/>
       <use xlink:href="#TimesNewRomanPSMT-30" x="177.783203"/>
      </g>
     </g>
    </g>
    <g id="xtick_9">
     <g id="line2d_9">
      <path d="M 417.31274 226.801533 
L 417.31274 12.96 
" clip-path="url(#p5050d470bf)" style="fill: none; stroke-dasharray: 2.22,0.96; stroke-dashoffset: 0; stroke: #808080; stroke-opacity: 0.4; stroke-width: 0.6"/>
     </g>
     <g id="text_9">
      <!-- 17:00 -->
      <g style="fill: #262626" transform="translate(405.874515 271.631303)rotate(-45)scale(0.18 -0.18)">
       <use xlink:href="#TimesNewRomanPSMT-31"/>
       <use xlink:href="#TimesNewRomanPSMT-37" x="50"/>
       <use xlink:href="#TimesNewRomanPSMT-3a" x="100"/>
       <use xlink:href="#TimesNewRomanPSMT-30" x="127.783203"/>
       <use xlink:href="#TimesNewRomanPSMT-30" x="177.783203"/>
      </g>
     </g>
    </g>
    <g id="xtick_10">
     <g id="line2d_10">
      <path d="M 459.015416 226.801533 
L 459.015416 12.96 
" clip-path="url(#p5050d470bf)" style="fill: none; stroke-dasharray: 2.22,0.96; stroke-dashoffset: 0; stroke: #808080; stroke-opacity: 0.4; stroke-width: 0.6"/>
     </g>
     <g id="text_10">
      <!-- 19:00 -->
      <g style="fill: #262626" transform="translate(447.57719 271.631303)rotate(-45)scale(0.18 -0.18)">
       <use xlink:href="#TimesNewRomanPSMT-31"/>
       <use xlink:href="#TimesNewRomanPSMT-39" x="50"/>
       <use xlink:href="#TimesNewRomanPSMT-3a" x="100"/>
       <use xlink:href="#TimesNewRomanPSMT-30" x="127.783203"/>
       <use xlink:href="#TimesNewRomanPSMT-30" x="177.783203"/>
      </g>
     </g>
    </g>
    <g id="xtick_11">
     <g id="line2d_11">
      <path d="M 500.718091 226.801533 
L 500.718091 12.96 
" clip-path="url(#p5050d470bf)" style="fill: none; stroke-dasharray: 2.22,0.96; stroke-dashoffset: 0; stroke: #808080; stroke-opacity: 0.4; stroke-width: 0.6"/>
     </g>
     <g id="text_11">
      <!-- 21:00 -->
      <g style="fill: #262626" transform="translate(489.279865 271.631303)rotate(-45)scale(0.18 -0.18)">
       <defs>
        <path id="TimesNewRomanPSMT-32" d="M 2934 816 
L 2638 0 
L 138 0 
L 138 116 
Q 1241 1122 1691 1759 
Q 2141 2397 2141 2925 
Q 2141 3328 1894 3587 
Q 1647 3847 1303 3847 
Q 991 3847 742 3664 
Q 494 3481 375 3128 
L 259 3128 
Q 338 3706 661 4015 
Q 984 4325 1469 4325 
Q 1984 4325 2329 3994 
Q 2675 3663 2675 3213 
Q 2675 2891 2525 2569 
Q 2294 2063 1775 1497 
Q 997 647 803 472 
L 1909 472 
Q 2247 472 2383 497 
Q 2519 522 2628 598 
Q 2738 675 2819 816 
L 2934 816 
z
" transform="scale(0.015625)"/>
       </defs>
       <use xlink:href="#TimesNewRomanPSMT-32"/>
       <use xlink:href="#TimesNewRomanPSMT-31" x="50"/>
       <use xlink:href="#TimesNewRomanPSMT-3a" x="100"/>
       <use xlink:href="#TimesNewRomanPSMT-30" x="127.783203"/>
       <use xlink:href="#TimesNewRomanPSMT-30" x="177.783203"/>
      </g>
     </g>
    </g>
    <g id="xtick_12">
     <g id="line2d_12">
      <path d="M 542.420766 226.801533 
L 542.420766 12.96 
" clip-path="url(#p5050d470bf)" style="fill: none; stroke-dasharray: 2.22,0.96; stroke-dashoffset: 0; stroke: #808080; stroke-opacity: 0.4; stroke-width: 0.6"/>
     </g>
     <g id="text_12">
      <!-- 23:00 -->
      <g style="fill: #262626" transform="translate(530.982541 271.631303)rotate(-45)scale(0.18 -0.18)">
       <use xlink:href="#TimesNewRomanPSMT-32"/>
       <use xlink:href="#TimesNewRomanPSMT-33" x="50"/>
       <use xlink:href="#TimesNewRomanPSMT-3a" x="100"/>
       <use xlink:href="#TimesNewRomanPSMT-30" x="127.783203"/>
       <use xlink:href="#TimesNewRomanPSMT-30" x="177.783203"/>
      </g>
     </g>
    </g>
   </g>
   <g id="matplotlib.axis_2">
    <g id="ytick_1">
     <g id="line2d_13">
      <path d="M 62.84 219.1718 
L 542.420766 219.1718 
" clip-path="url(#p5050d470bf)" style="fill: none; stroke-dasharray: 2.22,0.96; stroke-dashoffset: 0; stroke: #808080; stroke-opacity: 0.4; stroke-width: 0.6"/>
     </g>
     <g id="text_13">
      <!-- 12 -->
      <g style="fill: #262626" transform="translate(37.84 225.421175)scale(0.18 -0.18)">
       <use xlink:href="#TimesNewRomanPSMT-31"/>
       <use xlink:href="#TimesNewRomanPSMT-32" x="50"/>
      </g>
     </g>
    </g>
    <g id="ytick_2">
     <g id="line2d_14">
      <path d="M 62.84 177.365049 
L 542.420766 177.365049 
" clip-path="url(#p5050d470bf)" style="fill: none; stroke-dasharray: 2.22,0.96; stroke-dashoffset: 0; stroke: #808080; stroke-opacity: 0.4; stroke-width: 0.6"/>
     </g>
     <g id="text_14">
      <!-- 14 -->
      <g style="fill: #262626" transform="translate(37.84 183.614424)scale(0.18 -0.18)">
       <defs>
        <path id="TimesNewRomanPSMT-34" d="M 2978 1563 
L 2978 1119 
L 2409 1119 
L 2409 0 
L 1894 0 
L 1894 1119 
L 100 1119 
L 100 1519 
L 2066 4325 
L 2409 4325 
L 2409 1563 
L 2978 1563 
z
M 1894 1563 
L 1894 3666 
L 406 1563 
L 1894 1563 
z
" transform="scale(0.015625)"/>
       </defs>
       <use xlink:href="#TimesNewRomanPSMT-31"/>
       <use xlink:href="#TimesNewRomanPSMT-34" x="50"/>
      </g>
     </g>
    </g>
    <g id="ytick_3">
     <g id="line2d_15">
      <path d="M 62.84 135.558298 
L 542.420766 135.558298 
" clip-path="url(#p5050d470bf)" style="fill: none; stroke-dasharray: 2.22,0.96; stroke-dashoffset: 0; stroke: #808080; stroke-opacity: 0.4; stroke-width: 0.6"/>
     </g>
     <g id="text_15">
      <!-- 16 -->
      <g style="fill: #262626" transform="translate(37.84 141.807673)scale(0.18 -0.18)">
       <defs>
        <path id="TimesNewRomanPSMT-36" d="M 2869 4325 
L 2869 4209 
Q 2456 4169 2195 4045 
Q 1934 3922 1679 3669 
Q 1425 3416 1258 3105 
Q 1091 2794 978 2366 
Q 1428 2675 1881 2675 
Q 2316 2675 2634 2325 
Q 2953 1975 2953 1425 
Q 2953 894 2631 456 
Q 2244 -75 1606 -75 
Q 1172 -75 869 213 
Q 275 772 275 1663 
Q 275 2231 503 2743 
Q 731 3256 1154 3653 
Q 1578 4050 1965 4187 
Q 2353 4325 2688 4325 
L 2869 4325 
z
M 925 2138 
Q 869 1716 869 1456 
Q 869 1156 980 804 
Q 1091 453 1309 247 
Q 1469 100 1697 100 
Q 1969 100 2183 356 
Q 2397 613 2397 1088 
Q 2397 1622 2184 2012 
Q 1972 2403 1581 2403 
Q 1463 2403 1327 2353 
Q 1191 2303 925 2138 
z
" transform="scale(0.015625)"/>
       </defs>
       <use xlink:href="#TimesNewRomanPSMT-31"/>
       <use xlink:href="#TimesNewRomanPSMT-36" x="50"/>
      </g>
     </g>
    </g>
    <g id="ytick_4">
     <g id="line2d_16">
      <path d="M 62.84 93.751547 
L 542.420766 93.751547 
" clip-path="url(#p5050d470bf)" style="fill: none; stroke-dasharray: 2.22,0.96; stroke-dashoffset: 0; stroke: #808080; stroke-opacity: 0.4; stroke-width: 0.6"/>
     </g>
     <g id="text_16">
      <!-- 18 -->
      <g style="fill: #262626" transform="translate(37.84 100.000922)scale(0.18 -0.18)">
       <defs>
        <path id="TimesNewRomanPSMT-38" d="M 1228 2134 
Q 725 2547 579 2797 
Q 434 3047 434 3316 
Q 434 3728 753 4026 
Q 1072 4325 1600 4325 
Q 2113 4325 2425 4047 
Q 2738 3769 2738 3413 
Q 2738 3175 2569 2928 
Q 2400 2681 1866 2347 
Q 2416 1922 2594 1678 
Q 2831 1359 2831 1006 
Q 2831 559 2490 242 
Q 2150 -75 1597 -75 
Q 994 -75 656 303 
Q 388 606 388 966 
Q 388 1247 577 1523 
Q 766 1800 1228 2134 
z
M 1719 2469 
Q 2094 2806 2194 3001 
Q 2294 3197 2294 3444 
Q 2294 3772 2109 3958 
Q 1925 4144 1606 4144 
Q 1288 4144 1088 3959 
Q 888 3775 888 3528 
Q 888 3366 970 3203 
Q 1053 3041 1206 2894 
L 1719 2469 
z
M 1375 2016 
Q 1116 1797 991 1539 
Q 866 1281 866 981 
Q 866 578 1086 336 
Q 1306 94 1647 94 
Q 1984 94 2187 284 
Q 2391 475 2391 747 
Q 2391 972 2272 1150 
Q 2050 1481 1375 2016 
z
" transform="scale(0.015625)"/>
       </defs>
       <use xlink:href="#TimesNewRomanPSMT-31"/>
       <use xlink:href="#TimesNewRomanPSMT-38" x="50"/>
      </g>
     </g>
    </g>
    <g id="ytick_5">
     <g id="line2d_17">
      <path d="M 62.84 51.944796 
L 542.420766 51.944796 
" clip-path="url(#p5050d470bf)" style="fill: none; stroke-dasharray: 2.22,0.96; stroke-dashoffset: 0; stroke: #808080; stroke-opacity: 0.4; stroke-width: 0.6"/>
     </g>
     <g id="text_17">
      <!-- 20 -->
      <g style="fill: #262626" transform="translate(37.84 58.194171)scale(0.18 -0.18)">
       <use xlink:href="#TimesNewRomanPSMT-32"/>
       <use xlink:href="#TimesNewRomanPSMT-30" x="50"/>
      </g>
     </g>
    </g>
    <g id="text_18">
     <!-- Temperature ($^\circ$C) -->
     <g style="fill: #262626" transform="translate(29.88 186.840766)rotate(-90)scale(0.18 -0.18)">
      <defs>
       <path id="TimesNewRomanPSMT-54" d="M 3703 4238 
L 3750 3244 
L 3631 3244 
Q 3597 3506 3538 3619 
Q 3441 3800 3280 3886 
Q 3119 3972 2856 3972 
L 2259 3972 
L 2259 734 
Q 2259 344 2344 247 
Q 2463 116 2709 116 
L 2856 116 
L 2856 0 
L 1059 0 
L 1059 116 
L 1209 116 
Q 1478 116 1591 278 
Q 1659 378 1659 734 
L 1659 3972 
L 1150 3972 
Q 853 3972 728 3928 
Q 566 3869 450 3700 
Q 334 3531 313 3244 
L 194 3244 
L 244 4238 
L 3703 4238 
z
" transform="scale(0.015625)"/>
       <path id="TimesNewRomanPSMT-65" d="M 681 1784 
Q 678 1147 991 784 
Q 1303 422 1725 422 
Q 2006 422 2214 576 
Q 2422 731 2563 1106 
L 2659 1044 
Q 2594 616 2278 264 
Q 1963 -88 1488 -88 
Q 972 -88 605 314 
Q 238 716 238 1394 
Q 238 2128 614 2539 
Q 991 2950 1559 2950 
Q 2041 2950 2350 2633 
Q 2659 2316 2659 1784 
L 681 1784 
z
M 681 1966 
L 2006 1966 
Q 1991 2241 1941 2353 
Q 1863 2528 1708 2628 
Q 1553 2728 1384 2728 
Q 1125 2728 920 2526 
Q 716 2325 681 1966 
z
" transform="scale(0.015625)"/>
       <path id="TimesNewRomanPSMT-6d" d="M 1050 2338 
Q 1363 2650 1419 2697 
Q 1559 2816 1721 2881 
Q 1884 2947 2044 2947 
Q 2313 2947 2506 2790 
Q 2700 2634 2766 2338 
Q 3088 2713 3309 2830 
Q 3531 2947 3766 2947 
Q 3994 2947 4170 2830 
Q 4347 2713 4450 2447 
Q 4519 2266 4519 1878 
L 4519 647 
Q 4519 378 4559 278 
Q 4591 209 4675 161 
Q 4759 113 4950 113 
L 4950 0 
L 3538 0 
L 3538 113 
L 3597 113 
Q 3781 113 3884 184 
Q 3956 234 3988 344 
Q 4000 397 4000 647 
L 4000 1878 
Q 4000 2228 3916 2372 
Q 3794 2572 3525 2572 
Q 3359 2572 3192 2489 
Q 3025 2406 2788 2181 
L 2781 2147 
L 2788 2013 
L 2788 647 
Q 2788 353 2820 281 
Q 2853 209 2943 161 
Q 3034 113 3253 113 
L 3253 0 
L 1806 0 
L 1806 113 
Q 2044 113 2133 169 
Q 2222 225 2256 338 
Q 2272 391 2272 647 
L 2272 1878 
Q 2272 2228 2169 2381 
Q 2031 2581 1784 2581 
Q 1616 2581 1450 2491 
Q 1191 2353 1050 2181 
L 1050 647 
Q 1050 366 1089 281 
Q 1128 197 1204 155 
Q 1281 113 1516 113 
L 1516 0 
L 100 0 
L 100 113 
Q 297 113 375 155 
Q 453 197 493 289 
Q 534 381 534 647 
L 534 1741 
Q 534 2213 506 2350 
Q 484 2453 437 2492 
Q 391 2531 309 2531 
Q 222 2531 100 2484 
L 53 2597 
L 916 2947 
L 1050 2947 
L 1050 2338 
z
" transform="scale(0.015625)"/>
       <path id="TimesNewRomanPSMT-70" d="M -6 2578 
L 875 2934 
L 994 2934 
L 994 2266 
Q 1216 2644 1439 2795 
Q 1663 2947 1909 2947 
Q 2341 2947 2628 2609 
Q 2981 2197 2981 1534 
Q 2981 794 2556 309 
Q 2206 -88 1675 -88 
Q 1444 -88 1275 -22 
Q 1150 25 994 166 
L 994 -706 
Q 994 -1000 1030 -1079 
Q 1066 -1159 1155 -1206 
Q 1244 -1253 1478 -1253 
L 1478 -1369 
L -22 -1369 
L -22 -1253 
L 56 -1253 
Q 228 -1256 350 -1188 
Q 409 -1153 442 -1076 
Q 475 -1000 475 -688 
L 475 2019 
Q 475 2297 450 2372 
Q 425 2447 370 2484 
Q 316 2522 222 2522 
Q 147 2522 31 2478 
L -6 2578 
z
M 994 2081 
L 994 1013 
Q 994 666 1022 556 
Q 1066 375 1236 237 
Q 1406 100 1666 100 
Q 1978 100 2172 344 
Q 2425 663 2425 1241 
Q 2425 1897 2138 2250 
Q 1938 2494 1663 2494 
Q 1513 2494 1366 2419 
Q 1253 2363 994 2081 
z
" transform="scale(0.015625)"/>
       <path id="TimesNewRomanPSMT-72" d="M 1038 2947 
L 1038 2303 
Q 1397 2947 1775 2947 
Q 1947 2947 2059 2842 
Q 2172 2738 2172 2600 
Q 2172 2478 2090 2393 
Q 2009 2309 1897 2309 
Q 1788 2309 1652 2417 
Q 1516 2525 1450 2525 
Q 1394 2525 1328 2463 
Q 1188 2334 1038 2041 
L 1038 669 
Q 1038 431 1097 309 
Q 1138 225 1241 169 
Q 1344 113 1538 113 
L 1538 0 
L 72 0 
L 72 113 
Q 291 113 397 181 
Q 475 231 506 341 
Q 522 394 522 644 
L 522 1753 
Q 522 2253 501 2348 
Q 481 2444 426 2487 
Q 372 2531 291 2531 
Q 194 2531 72 2484 
L 41 2597 
L 906 2947 
L 1038 2947 
z
" transform="scale(0.015625)"/>
       <path id="TimesNewRomanPSMT-61" d="M 1822 413 
Q 1381 72 1269 19 
Q 1100 -59 909 -59 
Q 613 -59 420 144 
Q 228 347 228 678 
Q 228 888 322 1041 
Q 450 1253 767 1440 
Q 1084 1628 1822 1897 
L 1822 2009 
Q 1822 2438 1686 2597 
Q 1550 2756 1291 2756 
Q 1094 2756 978 2650 
Q 859 2544 859 2406 
L 866 2225 
Q 866 2081 792 2003 
Q 719 1925 600 1925 
Q 484 1925 411 2006 
Q 338 2088 338 2228 
Q 338 2497 613 2722 
Q 888 2947 1384 2947 
Q 1766 2947 2009 2819 
Q 2194 2722 2281 2516 
Q 2338 2381 2338 1966 
L 2338 994 
Q 2338 584 2353 492 
Q 2369 400 2405 369 
Q 2441 338 2488 338 
Q 2538 338 2575 359 
Q 2641 400 2828 588 
L 2828 413 
Q 2478 -56 2159 -56 
Q 2006 -56 1915 50 
Q 1825 156 1822 413 
z
M 1822 616 
L 1822 1706 
Q 1350 1519 1213 1441 
Q 966 1303 859 1153 
Q 753 1003 753 825 
Q 753 600 887 451 
Q 1022 303 1197 303 
Q 1434 303 1822 616 
z
" transform="scale(0.015625)"/>
       <path id="TimesNewRomanPSMT-74" d="M 1031 3803 
L 1031 2863 
L 1700 2863 
L 1700 2644 
L 1031 2644 
L 1031 788 
Q 1031 509 1111 412 
Q 1191 316 1316 316 
Q 1419 316 1516 380 
Q 1613 444 1666 569 
L 1788 569 
Q 1678 263 1478 108 
Q 1278 -47 1066 -47 
Q 922 -47 784 33 
Q 647 113 581 261 
Q 516 409 516 719 
L 516 2644 
L 63 2644 
L 63 2747 
Q 234 2816 414 2980 
Q 594 3144 734 3369 
Q 806 3488 934 3803 
L 1031 3803 
z
" transform="scale(0.015625)"/>
       <path id="TimesNewRomanPSMT-75" d="M 2709 2863 
L 2709 1128 
Q 2709 631 2732 520 
Q 2756 409 2807 365 
Q 2859 322 2928 322 
Q 3025 322 3147 375 
L 3191 266 
L 2334 -88 
L 2194 -88 
L 2194 519 
Q 1825 119 1631 15 
Q 1438 -88 1222 -88 
Q 981 -88 804 51 
Q 628 191 559 409 
Q 491 628 491 1028 
L 491 2306 
Q 491 2509 447 2587 
Q 403 2666 317 2708 
Q 231 2750 6 2747 
L 6 2863 
L 1009 2863 
L 1009 947 
Q 1009 547 1148 422 
Q 1288 297 1484 297 
Q 1619 297 1789 381 
Q 1959 466 2194 703 
L 2194 2325 
Q 2194 2569 2105 2655 
Q 2016 2741 1734 2747 
L 1734 2863 
L 2709 2863 
z
" transform="scale(0.015625)"/>
       <path id="TimesNewRomanPSMT-20" transform="scale(0.015625)"/>
       <path id="TimesNewRomanPSMT-28" d="M 1988 -1253 
L 1988 -1369 
Q 1516 -1131 1200 -813 
Q 750 -359 506 256 
Q 263 872 263 1534 
Q 263 2503 741 3301 
Q 1219 4100 1988 4444 
L 1988 4313 
Q 1603 4100 1356 3731 
Q 1109 3363 987 2797 
Q 866 2231 866 1616 
Q 866 947 969 400 
Q 1050 -31 1165 -292 
Q 1281 -553 1476 -793 
Q 1672 -1034 1988 -1253 
z
" transform="scale(0.015625)"/>
       <path id="DejaVuSans-2218" d="M 2003 2603 
Q 1753 2603 1581 2429 
Q 1409 2256 1409 2006 
Q 1409 1759 1581 1589 
Q 1753 1419 2003 1419 
Q 2253 1419 2425 1589 
Q 2597 1759 2597 2006 
Q 2597 2253 2423 2428 
Q 2250 2603 2003 2603 
z
M 2003 3006 
Q 2203 3006 2387 2929 
Q 2572 2853 2706 2709 
Q 2850 2569 2922 2390 
Q 2994 2212 2994 2006 
Q 2994 1594 2705 1308 
Q 2416 1022 1997 1022 
Q 1575 1022 1294 1303 
Q 1013 1584 1013 2006 
Q 1013 2425 1300 2715 
Q 1588 3006 2003 3006 
z
" transform="scale(0.015625)"/>
       <path id="TimesNewRomanPSMT-43" d="M 3853 4334 
L 3950 2894 
L 3853 2894 
Q 3659 3541 3300 3825 
Q 2941 4109 2438 4109 
Q 2016 4109 1675 3895 
Q 1334 3681 1139 3212 
Q 944 2744 944 2047 
Q 944 1472 1128 1050 
Q 1313 628 1683 403 
Q 2053 178 2528 178 
Q 2941 178 3256 354 
Q 3572 531 3950 1056 
L 4047 994 
Q 3728 428 3303 165 
Q 2878 -97 2294 -97 
Q 1241 -97 663 684 
Q 231 1266 231 2053 
Q 231 2688 515 3219 
Q 800 3750 1298 4042 
Q 1797 4334 2388 4334 
Q 2847 4334 3294 4109 
Q 3425 4041 3481 4041 
Q 3566 4041 3628 4100 
Q 3709 4184 3744 4334 
L 3853 4334 
z
" transform="scale(0.015625)"/>
       <path id="TimesNewRomanPSMT-29" d="M 144 4313 
L 144 4444 
Q 619 4209 934 3891 
Q 1381 3434 1625 2820 
Q 1869 2206 1869 1541 
Q 1869 572 1392 -226 
Q 916 -1025 144 -1369 
L 144 -1253 
Q 528 -1038 776 -670 
Q 1025 -303 1145 264 
Q 1266 831 1266 1447 
Q 1266 2113 1163 2663 
Q 1084 3094 967 3353 
Q 850 3613 656 3853 
Q 463 4094 144 4313 
z
" transform="scale(0.015625)"/>
      </defs>
      <use xlink:href="#TimesNewRomanPSMT-54" transform="translate(0 0.840625)"/>
      <use xlink:href="#TimesNewRomanPSMT-65" transform="translate(61.083984 0.840625)"/>
      <use xlink:href="#TimesNewRomanPSMT-6d" transform="translate(105.46875 0.840625)"/>
      <use xlink:href="#TimesNewRomanPSMT-70" transform="translate(183.251953 0.840625)"/>
      <use xlink:href="#TimesNewRomanPSMT-65" transform="translate(233.251953 0.840625)"/>
      <use xlink:href="#TimesNewRomanPSMT-72" transform="translate(277.636719 0.840625)"/>
      <use xlink:href="#TimesNewRomanPSMT-61" transform="translate(310.9375 0.840625)"/>
      <use xlink:href="#TimesNewRomanPSMT-74" transform="translate(355.322266 0.840625)"/>
      <use xlink:href="#TimesNewRomanPSMT-75" transform="translate(383.105469 0.840625)"/>
      <use xlink:href="#TimesNewRomanPSMT-72" transform="translate(433.105469 0.840625)"/>
      <use xlink:href="#TimesNewRomanPSMT-65" transform="translate(466.40625 0.840625)"/>
      <use xlink:href="#TimesNewRomanPSMT-20" transform="translate(510.791016 0.840625)"/>
      <use xlink:href="#TimesNewRomanPSMT-28" transform="translate(535.791016 0.840625)"/>
      <use xlink:href="#DejaVuSans-2218" transform="translate(583.686523 39.121875)scale(0.7)"/>
      <use xlink:href="#TimesNewRomanPSMT-43" transform="translate(643.876953 0.840625)"/>
      <use xlink:href="#TimesNewRomanPSMT-29" transform="translate(710.576172 0.840625)"/>
     </g>
    </g>
   </g>
   <g id="line2d_18">
    <path d="M 62.84 166.913361 
L 83.691338 169.003699 
L 104.542675 166.913361 
L 125.394013 162.732686 
L 146.245351 162.732686 
L 167.096688 158.552011 
L 187.948026 150.190661 
L 208.799364 127.196948 
L 229.650701 100.022559 
L 250.502039 77.028846 
L 271.353377 62.396483 
L 292.204714 54.035133 
L 313.056052 51.944796 
L 333.90739 58.215808 
L 354.758727 70.757834 
L 375.610065 83.299859 
L 396.461403 93.751547 
L 417.31274 104.203235 
L 438.164078 118.835597 
L 459.015416 141.829311 
L 479.866753 169.003699 
L 500.718091 189.907075 
L 521.569429 202.4491 
L 542.420766 208.720113 
" clip-path="url(#p5050d470bf)" style="fill: none; stroke: #000000; stroke-opacity: 0.15; stroke-width: 1.5; stroke-linecap: round"/>
   </g>
   <g id="line2d_19">
    <path d="M 62.84 156.461674 
L 83.691338 158.552011 
L 104.542675 158.552011 
L 125.394013 158.552011 
L 146.245351 158.552011 
L 167.096688 158.552011 
L 187.948026 152.280998 
L 208.799364 133.46796 
L 229.650701 106.293572 
L 250.502039 83.299859 
L 271.353377 60.306146 
L 292.204714 41.493108 
L 313.056052 31.04142 
L 333.90739 33.131757 
L 354.758727 47.76412 
L 375.610065 62.396483 
L 396.461403 77.028846 
L 417.31274 95.841884 
L 438.164078 114.654922 
L 459.015416 139.738973 
L 479.866753 164.823024 
L 500.718091 183.636062 
L 521.569429 198.268425 
L 542.420766 206.629775 
" clip-path="url(#p5050d470bf)" style="fill: none; stroke: #000000; stroke-opacity: 0.15; stroke-width: 1.5; stroke-linecap: round"/>
   </g>
   <g id="line2d_20">
    <path d="M 62.84 156.461674 
L 83.691338 158.552011 
L 104.542675 162.732686 
L 125.394013 164.823024 
L 146.245351 162.732686 
L 167.096688 160.642349 
L 187.948026 150.190661 
L 208.799364 127.196948 
L 229.650701 97.932222 
L 250.502039 74.938509 
L 271.353377 62.396483 
L 292.204714 58.215808 
L 313.056052 56.125471 
L 333.90739 56.125471 
L 354.758727 58.215808 
L 375.610065 64.486821 
L 396.461403 77.028846 
L 417.31274 95.841884 
L 438.164078 116.74526 
L 459.015416 143.919648 
L 479.866753 175.274712 
L 500.718091 198.268425 
L 521.569429 208.720113 
L 542.420766 212.900788 
" clip-path="url(#p5050d470bf)" style="fill: none; stroke: #000000; stroke-opacity: 0.15; stroke-width: 1.5; stroke-linecap: round"/>
   </g>
   <g id="line2d_21">
    <path d="M 62.84 156.461674 
L 83.691338 156.461674 
L 104.542675 158.552011 
L 125.394013 158.552011 
L 146.245351 158.552011 
L 167.096688 156.461674 
L 187.948026 148.100323 
L 208.799364 129.287285 
L 229.650701 106.293572 
L 250.502039 83.299859 
L 271.353377 68.667496 
L 292.204714 56.125471 
L 313.056052 49.854458 
L 333.90739 51.944796 
L 354.758727 62.396483 
L 375.610065 74.938509 
L 396.461403 89.570872 
L 417.31274 108.38391 
L 438.164078 127.196948 
L 459.015416 150.190661 
L 479.866753 175.274712 
L 500.718091 194.08775 
L 521.569429 204.539437 
L 542.420766 208.720113 
" clip-path="url(#p5050d470bf)" style="fill: none; stroke: #000000; stroke-opacity: 0.15; stroke-width: 1.5; stroke-linecap: round"/>
   </g>
   <g id="line2d_22">
    <path d="M 62.84 173.184374 
L 83.691338 175.274712 
L 104.542675 173.184374 
L 125.394013 169.003699 
L 146.245351 166.913361 
L 167.096688 162.732686 
L 187.948026 152.280998 
L 208.799364 135.558298 
L 229.650701 114.654922 
L 250.502039 93.751547 
L 271.353377 72.848171 
L 292.204714 51.944796 
L 313.056052 43.583445 
L 333.90739 49.854458 
L 354.758727 68.667496 
L 375.610065 85.390196 
L 396.461403 100.022559 
L 417.31274 114.654922 
L 438.164078 131.377623 
L 459.015416 152.280998 
L 479.866753 173.184374 
L 500.718091 189.907075 
L 521.569429 198.268425 
L 542.420766 202.4491 
" clip-path="url(#p5050d470bf)" style="fill: none; stroke: #000000; stroke-opacity: 0.15; stroke-width: 1.5; stroke-linecap: round"/>
   </g>
   <g id="line2d_23">
    <path d="M 62.84 160.642349 
L 83.691338 164.823024 
L 104.542675 171.094037 
L 125.394013 171.094037 
L 146.245351 164.823024 
L 167.096688 156.461674 
L 187.948026 143.919648 
L 208.799364 127.196948 
L 229.650701 108.38391 
L 250.502039 89.570872 
L 271.353377 68.667496 
L 292.204714 47.76412 
L 313.056052 39.40277 
L 333.90739 49.854458 
L 354.758727 70.757834 
L 375.610065 89.570872 
L 396.461403 97.932222 
L 417.31274 104.203235 
L 438.164078 114.654922 
L 459.015416 137.648636 
L 479.866753 164.823024 
L 500.718091 185.726399 
L 521.569429 196.178087 
L 542.420766 198.268425 
" clip-path="url(#p5050d470bf)" style="fill: none; stroke: #000000; stroke-opacity: 0.15; stroke-width: 1.5; stroke-linecap: round"/>
   </g>
   <g id="line2d_24">
    <path d="M 62.84 171.094037 
L 83.691338 175.274712 
L 104.542675 177.365049 
L 125.394013 175.274712 
L 146.245351 169.003699 
L 167.096688 158.552011 
L 187.948026 141.829311 
L 208.799364 118.835597 
L 229.650701 89.570872 
L 250.502039 66.577158 
L 271.353377 49.854458 
L 292.204714 37.312433 
L 313.056052 33.131757 
L 333.90739 39.40277 
L 354.758727 51.944796 
L 375.610065 66.577158 
L 396.461403 79.119184 
L 417.31274 95.841884 
L 438.164078 112.564585 
L 459.015416 135.558298 
L 479.866753 160.642349 
L 500.718091 179.455387 
L 521.569429 189.907075 
L 542.420766 194.08775 
" clip-path="url(#p5050d470bf)" style="fill: none; stroke: #000000; stroke-opacity: 0.15; stroke-width: 1.5; stroke-linecap: round"/>
   </g>
   <g id="line2d_25">
    <path d="M 62.84 177.365049 
L 83.691338 175.274712 
L 104.542675 171.094037 
L 125.394013 164.823024 
L 146.245351 166.913361 
L 167.096688 171.094037 
L 187.948026 164.823024 
L 208.799364 137.648636 
L 229.650701 102.112897 
L 250.502039 72.848171 
L 271.353377 58.215808 
L 292.204714 49.854458 
L 313.056052 45.673783 
L 333.90739 47.76412 
L 354.758727 56.125471 
L 375.610065 66.577158 
L 396.461403 79.119184 
L 417.31274 95.841884 
L 438.164078 114.654922 
L 459.015416 141.829311 
L 479.866753 171.094037 
L 500.718091 194.08775 
L 521.569429 206.629775 
L 542.420766 212.900788 
" clip-path="url(#p5050d470bf)" style="fill: none; stroke: #000000; stroke-opacity: 0.15; stroke-width: 1.5; stroke-linecap: round"/>
   </g>
   <g id="line2d_26">
    <path d="M 62.84 166.913361 
L 83.691338 169.003699 
L 104.542675 166.913361 
L 125.394013 162.732686 
L 146.245351 156.461674 
L 167.096688 146.009986 
L 187.948026 133.46796 
L 208.799364 116.74526 
L 229.650701 95.841884 
L 250.502039 77.028846 
L 271.353377 60.306146 
L 292.204714 43.583445 
L 313.056052 37.312433 
L 333.90739 51.944796 
L 354.758727 77.028846 
L 375.610065 97.932222 
L 396.461403 108.38391 
L 417.31274 116.74526 
L 438.164078 129.287285 
L 459.015416 148.100323 
L 479.866753 171.094037 
L 500.718091 187.816737 
L 521.569429 200.358762 
L 542.420766 206.629775 
" clip-path="url(#p5050d470bf)" style="fill: none; stroke: #000000; stroke-opacity: 0.15; stroke-width: 1.5; stroke-linecap: round"/>
   </g>
   <g id="line2d_27">
    <path d="M 62.84 177.365049 
L 83.691338 177.365049 
L 104.542675 177.365049 
L 125.394013 173.184374 
L 146.245351 166.913361 
L 167.096688 158.552011 
L 187.948026 143.919648 
L 208.799364 120.925935 
L 229.650701 93.751547 
L 250.502039 72.848171 
L 271.353377 60.306146 
L 292.204714 51.944796 
L 313.056052 51.944796 
L 333.90739 60.306146 
L 354.758727 74.938509 
L 375.610065 89.570872 
L 396.461403 100.022559 
L 417.31274 108.38391 
L 438.164078 120.925935 
L 459.015416 141.829311 
L 479.866753 164.823024 
L 500.718091 183.636062 
L 521.569429 196.178087 
L 542.420766 204.539437 
" clip-path="url(#p5050d470bf)" style="fill: none; stroke: #000000; stroke-opacity: 0.15; stroke-width: 1.5; stroke-linecap: round"/>
   </g>
   <g id="line2d_28">
    <path d="M 62.84 179.455387 
L 83.691338 181.545724 
L 104.542675 181.545724 
L 125.394013 175.274712 
L 146.245351 162.732686 
L 167.096688 141.829311 
L 187.948026 123.016273 
L 208.799364 106.293572 
L 229.650701 91.661209 
L 250.502039 74.938509 
L 271.353377 54.035133 
L 292.204714 33.131757 
L 313.056052 22.68007 
L 333.90739 24.770407 
L 354.758727 37.312433 
L 375.610065 51.944796 
L 396.461403 66.577158 
L 417.31274 85.390196 
L 438.164078 104.203235 
L 459.015416 133.46796 
L 479.866753 162.732686 
L 500.718091 187.816737 
L 521.569429 198.268425 
L 542.420766 202.4491 
" clip-path="url(#p5050d470bf)" style="fill: none; stroke: #000000; stroke-opacity: 0.15; stroke-width: 1.5; stroke-linecap: round"/>
   </g>
   <g id="line2d_29">
    <path d="M 62.84 175.274712 
L 83.691338 173.184374 
L 104.542675 171.094037 
L 125.394013 169.003699 
L 146.245351 171.094037 
L 167.096688 175.274712 
L 187.948026 169.003699 
L 208.799364 143.919648 
L 229.650701 110.474247 
L 250.502039 85.390196 
L 271.353377 70.757834 
L 292.204714 64.486821 
L 313.056052 62.396483 
L 333.90739 62.396483 
L 354.758727 66.577158 
L 375.610065 74.938509 
L 396.461403 87.480534 
L 417.31274 104.203235 
L 438.164078 123.016273 
L 459.015416 143.919648 
L 479.866753 169.003699 
L 500.718091 187.816737 
L 521.569429 198.268425 
L 542.420766 202.4491 
" clip-path="url(#p5050d470bf)" style="fill: none; stroke: #000000; stroke-opacity: 0.15; stroke-width: 1.5; stroke-linecap: round"/>
   </g>
   <g id="line2d_30">
    <path d="M 62.84 150.190661 
L 83.691338 154.371336 
L 104.542675 158.552011 
L 125.394013 158.552011 
L 146.245351 162.732686 
L 167.096688 162.732686 
L 187.948026 156.461674 
L 208.799364 133.46796 
L 229.650701 100.022559 
L 250.502039 77.028846 
L 271.353377 70.757834 
L 292.204714 72.848171 
L 313.056052 79.119184 
L 333.90739 85.390196 
L 354.758727 93.751547 
L 375.610065 102.112897 
L 396.461403 110.474247 
L 417.31274 120.925935 
L 438.164078 133.46796 
L 459.015416 152.280998 
L 479.866753 175.274712 
L 500.718091 191.997412 
L 521.569429 198.268425 
L 542.420766 198.268425 
" clip-path="url(#p5050d470bf)" style="fill: none; stroke: #000000; stroke-opacity: 0.15; stroke-width: 1.5; stroke-linecap: round"/>
   </g>
   <g id="line2d_31">
    <path d="M 62.84 173.184374 
L 83.691338 179.455387 
L 104.542675 183.636062 
L 125.394013 183.636062 
L 146.245351 179.455387 
L 167.096688 169.003699 
L 187.948026 154.371336 
L 208.799364 127.196948 
L 229.650701 91.661209 
L 250.502039 68.667496 
L 271.353377 66.577158 
L 292.204714 74.938509 
L 313.056052 79.119184 
L 333.90739 72.848171 
L 354.758727 64.486821 
L 375.610065 62.396483 
L 396.461403 72.848171 
L 417.31274 93.751547 
L 438.164078 114.654922 
L 459.015416 141.829311 
L 479.866753 173.184374 
L 500.718091 196.178087 
L 521.569429 208.720113 
L 542.420766 217.081463 
" clip-path="url(#p5050d470bf)" style="fill: none; stroke: #000000; stroke-opacity: 0.15; stroke-width: 1.5; stroke-linecap: round"/>
   </g>
   <g id="line2d_32">
    <path d="M 62.84 171.094037 
L 83.691338 173.184374 
L 104.542675 171.094037 
L 125.394013 169.003699 
L 146.245351 166.913361 
L 167.096688 162.732686 
L 187.948026 152.280998 
L 208.799364 133.46796 
L 229.650701 106.293572 
L 250.502039 85.390196 
L 271.353377 72.848171 
L 292.204714 62.396483 
L 313.056052 58.215808 
L 333.90739 58.215808 
L 354.758727 62.396483 
L 375.610065 70.757834 
L 396.461403 85.390196 
L 417.31274 104.203235 
L 438.164078 125.10661 
L 459.015416 148.100323 
L 479.866753 171.094037 
L 500.718091 189.907075 
L 521.569429 204.539437 
L 542.420766 212.900788 
" clip-path="url(#p5050d470bf)" style="fill: none; stroke: #000000; stroke-opacity: 0.15; stroke-width: 1.5; stroke-linecap: round"/>
   </g>
   <g id="line2d_33">
    <path d="M 62.84 164.823024 
L 83.691338 166.913361 
L 104.542675 171.094037 
L 125.394013 166.913361 
L 146.245351 158.552011 
L 167.096688 143.919648 
L 187.948026 129.287285 
L 208.799364 114.654922 
L 229.650701 102.112897 
L 250.502039 87.480534 
L 271.353377 74.938509 
L 292.204714 60.306146 
L 313.056052 51.944796 
L 333.90739 49.854458 
L 354.758727 54.035133 
L 375.610065 62.396483 
L 396.461403 72.848171 
L 417.31274 89.570872 
L 438.164078 108.38391 
L 459.015416 133.46796 
L 479.866753 162.732686 
L 500.718091 185.726399 
L 521.569429 191.997412 
L 542.420766 191.997412 
" clip-path="url(#p5050d470bf)" style="fill: none; stroke: #000000; stroke-opacity: 0.15; stroke-width: 1.5; stroke-linecap: round"/>
   </g>
   <g id="line2d_34">
    <path d="M 62.84 154.371336 
L 83.691338 156.461674 
L 104.542675 158.552011 
L 125.394013 158.552011 
L 146.245351 158.552011 
L 167.096688 156.461674 
L 187.948026 148.100323 
L 208.799364 127.196948 
L 229.650701 100.022559 
L 250.502039 79.119184 
L 271.353377 70.757834 
L 292.204714 72.848171 
L 313.056052 74.938509 
L 333.90739 81.209521 
L 354.758727 89.570872 
L 375.610065 97.932222 
L 396.461403 106.293572 
L 417.31274 114.654922 
L 438.164078 125.10661 
L 459.015416 143.919648 
L 479.866753 162.732686 
L 500.718091 179.455387 
L 521.569429 185.726399 
L 542.420766 185.726399 
" clip-path="url(#p5050d470bf)" style="fill: none; stroke: #000000; stroke-opacity: 0.15; stroke-width: 1.5; stroke-linecap: round"/>
   </g>
   <g id="line2d_35">
    <path d="M 62.84 164.823024 
L 83.691338 175.274712 
L 104.542675 187.816737 
L 125.394013 189.907075 
L 146.245351 179.455387 
L 167.096688 162.732686 
L 187.948026 141.829311 
L 208.799364 120.925935 
L 229.650701 97.932222 
L 250.502039 77.028846 
L 271.353377 58.215808 
L 292.204714 43.583445 
L 313.056052 37.312433 
L 333.90739 45.673783 
L 354.758727 62.396483 
L 375.610065 79.119184 
L 396.461403 89.570872 
L 417.31274 102.112897 
L 438.164078 116.74526 
L 459.015416 141.829311 
L 479.866753 169.003699 
L 500.718091 191.997412 
L 521.569429 206.629775 
L 542.420766 214.991125 
" clip-path="url(#p5050d470bf)" style="fill: none; stroke: #000000; stroke-opacity: 0.15; stroke-width: 1.5; stroke-linecap: round"/>
   </g>
   <g id="line2d_36">
    <path d="M 62.84 175.274712 
L 83.691338 175.274712 
L 104.542675 175.274712 
L 125.394013 171.094037 
L 146.245351 169.003699 
L 167.096688 164.823024 
L 187.948026 154.371336 
L 208.799364 133.46796 
L 229.650701 106.293572 
L 250.502039 85.390196 
L 271.353377 72.848171 
L 292.204714 66.577158 
L 313.056052 66.577158 
L 333.90739 77.028846 
L 354.758727 93.751547 
L 375.610065 108.38391 
L 396.461403 110.474247 
L 417.31274 108.38391 
L 438.164078 114.654922 
L 459.015416 135.558298 
L 479.866753 162.732686 
L 500.718091 185.726399 
L 521.569429 200.358762 
L 542.420766 208.720113 
" clip-path="url(#p5050d470bf)" style="fill: none; stroke: #000000; stroke-opacity: 0.15; stroke-width: 1.5; stroke-linecap: round"/>
   </g>
   <g id="line2d_37">
    <path d="M 62.84 164.823024 
L 83.691338 164.823024 
L 104.542675 162.732686 
L 125.394013 160.642349 
L 146.245351 158.552011 
L 167.096688 156.461674 
L 187.948026 148.100323 
L 208.799364 127.196948 
L 229.650701 100.022559 
L 250.502039 77.028846 
L 271.353377 58.215808 
L 292.204714 45.673783 
L 313.056052 39.40277 
L 333.90739 45.673783 
L 354.758727 60.306146 
L 375.610065 74.938509 
L 396.461403 85.390196 
L 417.31274 95.841884 
L 438.164078 110.474247 
L 459.015416 133.46796 
L 479.866753 160.642349 
L 500.718091 181.545724 
L 521.569429 196.178087 
L 542.420766 204.539437 
" clip-path="url(#p5050d470bf)" style="fill: none; stroke: #000000; stroke-opacity: 0.15; stroke-width: 1.5; stroke-linecap: round"/>
   </g>
   <g id="line2d_38">
    <path d="M 62.84 181.545724 
L 83.691338 181.545724 
L 104.542675 179.455387 
L 125.394013 175.274712 
L 146.245351 171.094037 
L 167.096688 164.823024 
L 187.948026 154.371336 
L 208.799364 131.377623 
L 229.650701 104.203235 
L 250.502039 81.209521 
L 271.353377 64.486821 
L 292.204714 51.944796 
L 313.056052 47.76412 
L 333.90739 56.125471 
L 354.758727 70.757834 
L 375.610065 85.390196 
L 396.461403 95.841884 
L 417.31274 106.293572 
L 438.164078 120.925935 
L 459.015416 143.919648 
L 479.866753 169.003699 
L 500.718091 187.816737 
L 521.569429 200.358762 
L 542.420766 208.720113 
" clip-path="url(#p5050d470bf)" style="fill: none; stroke: #000000; stroke-opacity: 0.15; stroke-width: 1.5; stroke-linecap: round"/>
   </g>
   <g id="line2d_39">
    <path d="M 62.84 169.003699 
L 83.691338 173.184374 
L 104.542675 173.184374 
L 125.394013 169.003699 
L 146.245351 164.823024 
L 167.096688 158.552011 
L 187.948026 146.009986 
L 208.799364 123.016273 
L 229.650701 95.841884 
L 250.502039 72.848171 
L 271.353377 60.306146 
L 292.204714 51.944796 
L 313.056052 47.76412 
L 333.90739 51.944796 
L 354.758727 58.215808 
L 375.610065 68.667496 
L 396.461403 83.299859 
L 417.31274 97.932222 
L 438.164078 116.74526 
L 459.015416 139.738973 
L 479.866753 164.823024 
L 500.718091 183.636062 
L 521.569429 189.907075 
L 542.420766 191.997412 
" clip-path="url(#p5050d470bf)" style="fill: none; stroke: #000000; stroke-opacity: 0.15; stroke-width: 1.5; stroke-linecap: round"/>
   </g>
   <g id="line2d_40">
    <path d="M 62.84 158.552011 
L 83.691338 160.642349 
L 104.542675 162.732686 
L 125.394013 162.732686 
L 146.245351 166.913361 
L 167.096688 169.003699 
L 187.948026 160.642349 
L 208.799364 133.46796 
L 229.650701 97.932222 
L 250.502039 66.577158 
L 271.353377 47.76412 
L 292.204714 35.222095 
L 313.056052 31.04142 
L 333.90739 39.40277 
L 354.758727 56.125471 
L 375.610065 72.848171 
L 396.461403 85.390196 
L 417.31274 97.932222 
L 438.164078 112.564585 
L 459.015416 135.558298 
L 479.866753 162.732686 
L 500.718091 185.726399 
L 521.569429 198.268425 
L 542.420766 208.720113 
" clip-path="url(#p5050d470bf)" style="fill: none; stroke: #000000; stroke-opacity: 0.15; stroke-width: 1.5; stroke-linecap: round"/>
   </g>
   <g id="line2d_41">
    <path d="M 62.84 173.184374 
L 83.691338 171.094037 
L 104.542675 171.094037 
L 125.394013 171.094037 
L 146.245351 171.094037 
L 167.096688 171.094037 
L 187.948026 162.732686 
L 208.799364 137.648636 
L 229.650701 102.112897 
L 250.502039 74.938509 
L 271.353377 64.486821 
L 292.204714 62.396483 
L 313.056052 62.396483 
L 333.90739 68.667496 
L 354.758727 77.028846 
L 375.610065 85.390196 
L 396.461403 93.751547 
L 417.31274 104.203235 
L 438.164078 116.74526 
L 459.015416 139.738973 
L 479.866753 164.823024 
L 500.718091 185.726399 
L 521.569429 194.08775 
L 542.420766 198.268425 
" clip-path="url(#p5050d470bf)" style="fill: none; stroke: #000000; stroke-opacity: 0.15; stroke-width: 1.5; stroke-linecap: round"/>
   </g>
   <g id="line2d_42">
    <path d="M 62.84 164.823024 
L 83.691338 164.823024 
L 104.542675 164.823024 
L 125.394013 162.732686 
L 146.245351 164.823024 
L 167.096688 166.913361 
L 187.948026 158.552011 
L 208.799364 137.648636 
L 229.650701 108.38391 
L 250.502039 83.299859 
L 271.353377 66.577158 
L 292.204714 54.035133 
L 313.056052 47.76412 
L 333.90739 51.944796 
L 354.758727 62.396483 
L 375.610065 74.938509 
L 396.461403 89.570872 
L 417.31274 104.203235 
L 438.164078 120.925935 
L 459.015416 143.919648 
L 479.866753 166.913361 
L 500.718091 185.726399 
L 521.569429 196.178087 
L 542.420766 204.539437 
" clip-path="url(#p5050d470bf)" style="fill: none; stroke: #000000; stroke-opacity: 0.15; stroke-width: 1.5; stroke-linecap: round"/>
   </g>
   <g id="line2d_43">
    <path d="M 62.84 173.184374 
L 83.691338 173.184374 
L 104.542675 173.184374 
L 125.394013 171.094037 
L 146.245351 166.913361 
L 167.096688 160.642349 
L 187.948026 148.100323 
L 208.799364 131.377623 
L 229.650701 112.564585 
L 250.502039 93.751547 
L 271.353377 77.028846 
L 292.204714 60.306146 
L 313.056052 54.035133 
L 333.90739 58.215808 
L 354.758727 68.667496 
L 375.610065 81.209521 
L 396.461403 95.841884 
L 417.31274 112.564585 
L 438.164078 131.377623 
L 459.015416 154.371336 
L 479.866753 179.455387 
L 500.718091 196.178087 
L 521.569429 202.4491 
L 542.420766 200.358762 
" clip-path="url(#p5050d470bf)" style="fill: none; stroke: #000000; stroke-opacity: 0.15; stroke-width: 1.5; stroke-linecap: round"/>
   </g>
   <g id="line2d_44">
    <path d="M 62.84 166.913361 
L 83.691338 166.913361 
L 104.542675 166.913361 
L 125.394013 162.732686 
L 146.245351 162.732686 
L 167.096688 158.552011 
L 187.948026 150.190661 
L 208.799364 127.196948 
L 229.650701 95.841884 
L 250.502039 70.757834 
L 271.353377 54.035133 
L 292.204714 43.583445 
L 313.056052 39.40277 
L 333.90739 43.583445 
L 354.758727 51.944796 
L 375.610065 64.486821 
L 396.461403 79.119184 
L 417.31274 100.022559 
L 438.164078 118.835597 
L 459.015416 139.738973 
L 479.866753 160.642349 
L 500.718091 179.455387 
L 521.569429 191.997412 
L 542.420766 200.358762 
" clip-path="url(#p5050d470bf)" style="fill: none; stroke: #000000; stroke-opacity: 0.15; stroke-width: 1.5; stroke-linecap: round"/>
   </g>
   <g id="line2d_45">
    <path d="M 62.84 158.552011 
L 83.691338 158.552011 
L 104.542675 154.371336 
L 125.394013 152.280998 
L 146.245351 152.280998 
L 167.096688 154.371336 
L 187.948026 148.100323 
L 208.799364 131.377623 
L 229.650701 106.293572 
L 250.502039 85.390196 
L 271.353377 68.667496 
L 292.204714 51.944796 
L 313.056052 43.583445 
L 333.90739 51.944796 
L 354.758727 66.577158 
L 375.610065 81.209521 
L 396.461403 93.751547 
L 417.31274 104.203235 
L 438.164078 118.835597 
L 459.015416 139.738973 
L 479.866753 164.823024 
L 500.718091 183.636062 
L 521.569429 191.997412 
L 542.420766 196.178087 
" clip-path="url(#p5050d470bf)" style="fill: none; stroke: #000000; stroke-opacity: 0.15; stroke-width: 1.5; stroke-linecap: round"/>
   </g>
   <g id="line2d_46">
    <path d="M 62.84 164.823024 
L 83.691338 166.913361 
L 104.542675 164.823024 
L 125.394013 162.732686 
L 146.245351 158.552011 
L 167.096688 154.371336 
L 187.948026 146.009986 
L 208.799364 133.46796 
L 229.650701 116.74526 
L 250.502039 100.022559 
L 271.353377 79.119184 
L 292.204714 58.215808 
L 313.056052 45.673783 
L 333.90739 45.673783 
L 354.758727 54.035133 
L 375.610065 66.577158 
L 396.461403 83.299859 
L 417.31274 104.203235 
L 438.164078 127.196948 
L 459.015416 150.190661 
L 479.866753 175.274712 
L 500.718091 194.08775 
L 521.569429 200.358762 
L 542.420766 202.4491 
" clip-path="url(#p5050d470bf)" style="fill: none; stroke: #000000; stroke-opacity: 0.15; stroke-width: 1.5; stroke-linecap: round"/>
   </g>
   <g id="line2d_47">
    <path d="M 62.84 166.913361 
L 83.691338 169.003699 
L 104.542675 171.094037 
L 125.394013 171.094037 
L 146.245351 171.094037 
L 167.096688 169.003699 
L 187.948026 158.552011 
L 208.799364 137.648636 
L 229.650701 108.38391 
L 250.502039 83.299859 
L 271.353377 66.577158 
L 292.204714 56.125471 
L 313.056052 49.854458 
L 333.90739 51.944796 
L 354.758727 58.215808 
L 375.610065 70.757834 
L 396.461403 87.480534 
L 417.31274 108.38391 
L 438.164078 127.196948 
L 459.015416 148.100323 
L 479.866753 166.913361 
L 500.718091 183.636062 
L 521.569429 191.997412 
L 542.420766 196.178087 
" clip-path="url(#p5050d470bf)" style="fill: none; stroke: #000000; stroke-opacity: 0.15; stroke-width: 1.5; stroke-linecap: round"/>
   </g>
   <g id="line2d_48">
    <path d="M 62.84 166.913361 
L 83.691338 169.003699 
L 104.542675 171.094037 
L 125.394013 173.184374 
L 146.245351 173.184374 
L 167.096688 171.094037 
L 187.948026 160.642349 
L 208.799364 135.558298 
L 229.650701 104.203235 
L 250.502039 77.028846 
L 271.353377 60.306146 
L 292.204714 47.76412 
L 313.056052 43.583445 
L 333.90739 45.673783 
L 354.758727 56.125471 
L 375.610065 68.667496 
L 396.461403 81.209521 
L 417.31274 97.932222 
L 438.164078 116.74526 
L 459.015416 139.738973 
L 479.866753 164.823024 
L 500.718091 183.636062 
L 521.569429 196.178087 
L 542.420766 204.539437 
" clip-path="url(#p5050d470bf)" style="fill: none; stroke: #000000; stroke-opacity: 0.15; stroke-width: 1.5; stroke-linecap: round"/>
   </g>
   <g id="line2d_49">
    <path d="M 62.84 171.094037 
L 83.691338 171.094037 
L 104.542675 173.184374 
L 125.394013 171.094037 
L 146.245351 166.913361 
L 167.096688 158.552011 
L 187.948026 146.009986 
L 208.799364 125.10661 
L 229.650701 95.841884 
L 250.502039 72.848171 
L 271.353377 56.125471 
L 292.204714 45.673783 
L 313.056052 41.493108 
L 333.90739 43.583445 
L 354.758727 51.944796 
L 375.610065 64.486821 
L 396.461403 74.938509 
L 417.31274 89.570872 
L 438.164078 108.38391 
L 459.015416 135.558298 
L 479.866753 164.823024 
L 500.718091 189.907075 
L 521.569429 206.629775 
L 542.420766 214.991125 
" clip-path="url(#p5050d470bf)" style="fill: none; stroke: #000000; stroke-opacity: 0.15; stroke-width: 1.5; stroke-linecap: round"/>
   </g>
   <g id="line2d_50">
    <path d="M 62.84 164.823024 
L 83.691338 164.823024 
L 104.542675 164.823024 
L 125.394013 162.732686 
L 146.245351 164.823024 
L 167.096688 164.823024 
L 187.948026 156.461674 
L 208.799364 135.558298 
L 229.650701 108.38391 
L 250.502039 83.299859 
L 271.353377 66.577158 
L 292.204714 56.125471 
L 313.056052 51.944796 
L 333.90739 62.396483 
L 354.758727 81.209521 
L 375.610065 97.932222 
L 396.461403 112.564585 
L 417.31274 123.016273 
L 438.164078 137.648636 
L 459.015416 154.371336 
L 479.866753 171.094037 
L 500.718091 185.726399 
L 521.569429 196.178087 
L 542.420766 204.539437 
" clip-path="url(#p5050d470bf)" style="fill: none; stroke: #000000; stroke-opacity: 0.15; stroke-width: 1.5; stroke-linecap: round"/>
   </g>
   <g id="line2d_51">
    <path d="M 62.84 171.094037 
L 83.691338 171.094037 
L 104.542675 171.094037 
L 125.394013 166.913361 
L 146.245351 160.642349 
L 167.096688 150.190661 
L 187.948026 135.558298 
L 208.799364 114.654922 
L 229.650701 91.661209 
L 250.502039 72.848171 
L 271.353377 56.125471 
L 292.204714 41.493108 
L 313.056052 35.222095 
L 333.90739 43.583445 
L 354.758727 60.306146 
L 375.610065 74.938509 
L 396.461403 89.570872 
L 417.31274 102.112897 
L 438.164078 118.835597 
L 459.015416 143.919648 
L 479.866753 171.094037 
L 500.718091 191.997412 
L 521.569429 198.268425 
L 542.420766 198.268425 
" clip-path="url(#p5050d470bf)" style="fill: none; stroke: #000000; stroke-opacity: 0.15; stroke-width: 1.5; stroke-linecap: round"/>
   </g>
   <g id="line2d_52">
    <path d="M 62.84 185.726399 
L 83.691338 183.636062 
L 104.542675 175.274712 
L 125.394013 166.913361 
L 146.245351 156.461674 
L 167.096688 143.919648 
L 187.948026 131.377623 
L 208.799364 116.74526 
L 229.650701 100.022559 
L 250.502039 85.390196 
L 271.353377 68.667496 
L 292.204714 51.944796 
L 313.056052 43.583445 
L 333.90739 49.854458 
L 354.758727 66.577158 
L 375.610065 81.209521 
L 396.461403 93.751547 
L 417.31274 106.293572 
L 438.164078 120.925935 
L 459.015416 141.829311 
L 479.866753 166.913361 
L 500.718091 185.726399 
L 521.569429 196.178087 
L 542.420766 200.358762 
" clip-path="url(#p5050d470bf)" style="fill: none; stroke: #000000; stroke-opacity: 0.15; stroke-width: 1.5; stroke-linecap: round"/>
   </g>
   <g id="line2d_53">
    <path d="M 62.84 177.365049 
L 83.691338 179.455387 
L 104.542675 179.455387 
L 125.394013 177.365049 
L 146.245351 173.184374 
L 167.096688 169.003699 
L 187.948026 156.461674 
L 208.799364 131.377623 
L 229.650701 100.022559 
L 250.502039 74.938509 
L 271.353377 62.396483 
L 292.204714 56.125471 
L 313.056052 56.125471 
L 333.90739 64.486821 
L 354.758727 77.028846 
L 375.610065 91.661209 
L 396.461403 104.203235 
L 417.31274 116.74526 
L 438.164078 131.377623 
L 459.015416 150.190661 
L 479.866753 169.003699 
L 500.718091 183.636062 
L 521.569429 191.997412 
L 542.420766 194.08775 
" clip-path="url(#p5050d470bf)" style="fill: none; stroke: #000000; stroke-opacity: 0.15; stroke-width: 1.5; stroke-linecap: round"/>
   </g>
   <g id="line2d_54">
    <path d="M 62.84 183.636062 
L 83.691338 187.816737 
L 104.542675 187.816737 
L 125.394013 181.545724 
L 146.245351 169.003699 
L 167.096688 154.371336 
L 187.948026 135.558298 
L 208.799364 116.74526 
L 229.650701 93.751547 
L 250.502039 74.938509 
L 271.353377 60.306146 
L 292.204714 47.76412 
L 313.056052 43.583445 
L 333.90739 58.215808 
L 354.758727 81.209521 
L 375.610065 102.112897 
L 396.461403 112.564585 
L 417.31274 120.925935 
L 438.164078 131.377623 
L 459.015416 148.100323 
L 479.866753 169.003699 
L 500.718091 183.636062 
L 521.569429 194.08775 
L 542.420766 200.358762 
" clip-path="url(#p5050d470bf)" style="fill: none; stroke: #000000; stroke-opacity: 0.15; stroke-width: 1.5; stroke-linecap: round"/>
   </g>
   <g id="line2d_55">
    <path d="M 62.84 173.184374 
L 83.691338 177.365049 
L 104.542675 181.545724 
L 125.394013 179.455387 
L 146.245351 175.274712 
L 167.096688 164.823024 
L 187.948026 148.100323 
L 208.799364 123.016273 
L 229.650701 91.661209 
L 250.502039 66.577158 
L 271.353377 47.76412 
L 292.204714 33.131757 
L 313.056052 28.951082 
L 333.90739 37.312433 
L 354.758727 54.035133 
L 375.610065 68.667496 
L 396.461403 81.209521 
L 417.31274 91.661209 
L 438.164078 108.38391 
L 459.015416 135.558298 
L 479.866753 164.823024 
L 500.718091 189.907075 
L 521.569429 200.358762 
L 542.420766 202.4491 
" clip-path="url(#p5050d470bf)" style="fill: none; stroke: #000000; stroke-opacity: 0.15; stroke-width: 1.5; stroke-linecap: round"/>
   </g>
   <g id="line2d_56">
    <path d="M 62.84 164.823024 
L 83.691338 169.003699 
L 104.542675 175.274712 
L 125.394013 177.365049 
L 146.245351 175.274712 
L 167.096688 166.913361 
L 187.948026 154.371336 
L 208.799364 135.558298 
L 229.650701 108.38391 
L 250.502039 85.390196 
L 271.353377 66.577158 
L 292.204714 47.76412 
L 313.056052 39.40277 
L 333.90739 41.493108 
L 354.758727 51.944796 
L 375.610065 66.577158 
L 396.461403 83.299859 
L 417.31274 102.112897 
L 438.164078 123.016273 
L 459.015416 148.100323 
L 479.866753 175.274712 
L 500.718091 194.08775 
L 521.569429 202.4491 
L 542.420766 202.4491 
" clip-path="url(#p5050d470bf)" style="fill: none; stroke: #000000; stroke-opacity: 0.15; stroke-width: 1.5; stroke-linecap: round"/>
   </g>
   <g id="line2d_57">
    <path d="M 62.84 150.190661 
L 83.691338 152.280998 
L 104.542675 156.461674 
L 125.394013 158.552011 
L 146.245351 158.552011 
L 167.096688 156.461674 
L 187.948026 148.100323 
L 208.799364 129.287285 
L 229.650701 102.112897 
L 250.502039 81.209521 
L 271.353377 66.577158 
L 292.204714 54.035133 
L 313.056052 49.854458 
L 333.90739 54.035133 
L 354.758727 66.577158 
L 375.610065 77.028846 
L 396.461403 85.390196 
L 417.31274 93.751547 
L 438.164078 106.293572 
L 459.015416 131.377623 
L 479.866753 162.732686 
L 500.718091 187.816737 
L 521.569429 202.4491 
L 542.420766 208.720113 
" clip-path="url(#p5050d470bf)" style="fill: none; stroke: #000000; stroke-opacity: 0.15; stroke-width: 1.5; stroke-linecap: round"/>
   </g>
   <g id="line2d_58">
    <path d="M 62.84 156.461674 
L 83.691338 158.552011 
L 104.542675 158.552011 
L 125.394013 158.552011 
L 146.245351 158.552011 
L 167.096688 158.552011 
L 187.948026 152.280998 
L 208.799364 135.558298 
L 229.650701 114.654922 
L 250.502039 91.661209 
L 271.353377 72.848171 
L 292.204714 54.035133 
L 313.056052 43.583445 
L 333.90739 45.673783 
L 354.758727 58.215808 
L 375.610065 72.848171 
L 396.461403 87.480534 
L 417.31274 104.203235 
L 438.164078 123.016273 
L 459.015416 146.009986 
L 479.866753 171.094037 
L 500.718091 191.997412 
L 521.569429 206.629775 
L 542.420766 214.991125 
" clip-path="url(#p5050d470bf)" style="fill: none; stroke: #000000; stroke-opacity: 0.15; stroke-width: 1.5; stroke-linecap: round"/>
   </g>
   <g id="line2d_59">
    <path d="M 62.84 158.552011 
L 83.691338 164.823024 
L 104.542675 169.003699 
L 125.394013 169.003699 
L 146.245351 164.823024 
L 167.096688 158.552011 
L 187.948026 143.919648 
L 208.799364 123.016273 
L 229.650701 95.841884 
L 250.502039 74.938509 
L 271.353377 64.486821 
L 292.204714 60.306146 
L 313.056052 62.396483 
L 333.90739 68.667496 
L 354.758727 79.119184 
L 375.610065 91.661209 
L 396.461403 100.022559 
L 417.31274 110.474247 
L 438.164078 125.10661 
L 459.015416 146.009986 
L 479.866753 171.094037 
L 500.718091 187.816737 
L 521.569429 191.997412 
L 542.420766 189.907075 
" clip-path="url(#p5050d470bf)" style="fill: none; stroke: #000000; stroke-opacity: 0.15; stroke-width: 1.5; stroke-linecap: round"/>
   </g>
   <g id="line2d_60">
    <path d="M 62.84 164.823024 
L 83.691338 166.913361 
L 104.542675 164.823024 
L 125.394013 162.732686 
L 146.245351 162.732686 
L 167.096688 160.642349 
L 187.948026 152.280998 
L 208.799364 135.558298 
L 229.650701 110.474247 
L 250.502039 89.570872 
L 271.353377 72.848171 
L 292.204714 60.306146 
L 313.056052 54.035133 
L 333.90739 60.306146 
L 354.758727 74.938509 
L 375.610065 89.570872 
L 396.461403 100.022559 
L 417.31274 110.474247 
L 438.164078 125.10661 
L 459.015416 146.009986 
L 479.866753 173.184374 
L 500.718091 191.997412 
L 521.569429 198.268425 
L 542.420766 198.268425 
" clip-path="url(#p5050d470bf)" style="fill: none; stroke: #000000; stroke-opacity: 0.15; stroke-width: 1.5; stroke-linecap: round"/>
   </g>
   <g id="line2d_61">
    <path d="M 62.84 173.184374 
L 83.691338 175.274712 
L 104.542675 177.365049 
L 125.394013 177.365049 
L 146.245351 175.274712 
L 167.096688 171.094037 
L 187.948026 162.732686 
L 208.799364 146.009986 
L 229.650701 127.196948 
L 250.502039 108.38391 
L 271.353377 93.751547 
L 292.204714 79.119184 
L 313.056052 70.757834 
L 333.90739 64.486821 
L 354.758727 60.306146 
L 375.610065 64.486821 
L 396.461403 79.119184 
L 417.31274 102.112897 
L 438.164078 125.10661 
L 459.015416 150.190661 
L 479.866753 177.365049 
L 500.718091 196.178087 
L 521.569429 204.539437 
L 542.420766 208.720113 
" clip-path="url(#p5050d470bf)" style="fill: none; stroke: #000000; stroke-opacity: 0.15; stroke-width: 1.5; stroke-linecap: round"/>
   </g>
   <g id="line2d_62">
    <path d="M 62.84 183.636062 
L 83.691338 183.636062 
L 104.542675 181.545724 
L 125.394013 177.365049 
L 146.245351 171.094037 
L 167.096688 162.732686 
L 187.948026 150.190661 
L 208.799364 127.196948 
L 229.650701 102.112897 
L 250.502039 83.299859 
L 271.353377 74.938509 
L 292.204714 74.938509 
L 313.056052 77.028846 
L 333.90739 83.299859 
L 354.758727 93.751547 
L 375.610065 102.112897 
L 396.461403 106.293572 
L 417.31274 108.38391 
L 438.164078 116.74526 
L 459.015416 135.558298 
L 479.866753 162.732686 
L 500.718091 183.636062 
L 521.569429 194.08775 
L 542.420766 200.358762 
" clip-path="url(#p5050d470bf)" style="fill: none; stroke: #000000; stroke-opacity: 0.15; stroke-width: 1.5; stroke-linecap: round"/>
   </g>
   <g id="line2d_63">
    <path d="M 62.84 160.642349 
L 83.691338 160.642349 
L 104.542675 158.552011 
L 125.394013 156.461674 
L 146.245351 158.552011 
L 167.096688 158.552011 
L 187.948026 150.190661 
L 208.799364 129.287285 
L 229.650701 100.022559 
L 250.502039 77.028846 
L 271.353377 64.486821 
L 292.204714 58.215808 
L 313.056052 60.306146 
L 333.90739 79.119184 
L 354.758727 106.293572 
L 375.610065 129.287285 
L 396.461403 135.558298 
L 417.31274 135.558298 
L 438.164078 141.829311 
L 459.015416 158.552011 
L 479.866753 179.455387 
L 500.718091 196.178087 
L 521.569429 204.539437 
L 542.420766 208.720113 
" clip-path="url(#p5050d470bf)" style="fill: none; stroke: #000000; stroke-opacity: 0.15; stroke-width: 1.5; stroke-linecap: round"/>
   </g>
   <g id="line2d_64">
    <path d="M 62.84 162.732686 
L 83.691338 160.642349 
L 104.542675 160.642349 
L 125.394013 156.461674 
L 146.245351 156.461674 
L 167.096688 154.371336 
L 187.948026 143.919648 
L 208.799364 120.925935 
L 229.650701 89.570872 
L 250.502039 64.486821 
L 271.353377 51.944796 
L 292.204714 45.673783 
L 313.056052 41.493108 
L 333.90739 43.583445 
L 354.758727 49.854458 
L 375.610065 58.215808 
L 396.461403 74.938509 
L 417.31274 93.751547 
L 438.164078 116.74526 
L 459.015416 141.829311 
L 479.866753 166.913361 
L 500.718091 187.816737 
L 521.569429 200.358762 
L 542.420766 206.629775 
" clip-path="url(#p5050d470bf)" style="fill: none; stroke: #000000; stroke-opacity: 0.15; stroke-width: 1.5; stroke-linecap: round"/>
   </g>
   <g id="line2d_65">
    <path d="M 62.84 166.913361 
L 83.691338 166.913361 
L 104.542675 166.913361 
L 125.394013 164.823024 
L 146.245351 162.732686 
L 167.096688 160.642349 
L 187.948026 150.190661 
L 208.799364 129.287285 
L 229.650701 100.022559 
L 250.502039 77.028846 
L 271.353377 60.306146 
L 292.204714 45.673783 
L 313.056052 39.40277 
L 333.90739 41.493108 
L 354.758727 49.854458 
L 375.610065 62.396483 
L 396.461403 79.119184 
L 417.31274 97.932222 
L 438.164078 116.74526 
L 459.015416 141.829311 
L 479.866753 169.003699 
L 500.718091 187.816737 
L 521.569429 198.268425 
L 542.420766 204.539437 
" clip-path="url(#p5050d470bf)" style="fill: none; stroke: #000000; stroke-opacity: 0.15; stroke-width: 1.5; stroke-linecap: round"/>
   </g>
   <g id="line2d_66">
    <path d="M 62.84 171.094037 
L 83.691338 173.184374 
L 104.542675 173.184374 
L 125.394013 169.003699 
L 146.245351 164.823024 
L 167.096688 158.552011 
L 187.948026 146.009986 
L 208.799364 125.10661 
L 229.650701 95.841884 
L 250.502039 74.938509 
L 271.353377 64.486821 
L 292.204714 58.215808 
L 313.056052 56.125471 
L 333.90739 56.125471 
L 354.758727 58.215808 
L 375.610065 64.486821 
L 396.461403 79.119184 
L 417.31274 97.932222 
L 438.164078 118.835597 
L 459.015416 146.009986 
L 479.866753 173.184374 
L 500.718091 196.178087 
L 521.569429 208.720113 
L 542.420766 214.991125 
" clip-path="url(#p5050d470bf)" style="fill: none; stroke: #000000; stroke-opacity: 0.15; stroke-width: 1.5; stroke-linecap: round"/>
   </g>
   <g id="line2d_67">
    <path d="M 62.84 173.184374 
L 83.691338 171.094037 
L 104.542675 171.094037 
L 125.394013 169.003699 
L 146.245351 169.003699 
L 167.096688 166.913361 
L 187.948026 158.552011 
L 208.799364 137.648636 
L 229.650701 108.38391 
L 250.502039 83.299859 
L 271.353377 66.577158 
L 292.204714 56.125471 
L 313.056052 49.854458 
L 333.90739 54.035133 
L 354.758727 64.486821 
L 375.610065 74.938509 
L 396.461403 87.480534 
L 417.31274 102.112897 
L 438.164078 118.835597 
L 459.015416 139.738973 
L 479.866753 162.732686 
L 500.718091 181.545724 
L 521.569429 194.08775 
L 542.420766 200.358762 
" clip-path="url(#p5050d470bf)" style="fill: none; stroke: #000000; stroke-opacity: 0.15; stroke-width: 1.5; stroke-linecap: round"/>
   </g>
   <g id="line2d_68">
    <path d="M 62.84 150.190661 
L 83.691338 152.280998 
L 104.542675 154.371336 
L 125.394013 152.280998 
L 146.245351 150.190661 
L 167.096688 146.009986 
L 187.948026 137.648636 
L 208.799364 118.835597 
L 229.650701 95.841884 
L 250.502039 72.848171 
L 271.353377 54.035133 
L 292.204714 37.312433 
L 313.056052 31.04142 
L 333.90739 45.673783 
L 354.758727 72.848171 
L 375.610065 93.751547 
L 396.461403 102.112897 
L 417.31274 106.293572 
L 438.164078 114.654922 
L 459.015416 137.648636 
L 479.866753 164.823024 
L 500.718091 183.636062 
L 521.569429 191.997412 
L 542.420766 191.997412 
" clip-path="url(#p5050d470bf)" style="fill: none; stroke: #000000; stroke-opacity: 0.15; stroke-width: 1.5; stroke-linecap: round"/>
   </g>
   <g id="line2d_69">
    <path d="M 62.84 167.528167 
L 83.691338 169.12666 
L 104.542675 169.782452 
L 125.394013 167.692115 
L 146.245351 165.068946 
L 167.096688 160.150505 
L 187.948026 149.24796 
L 208.799364 128.590506 
L 229.650701 102.07191 
L 250.502039 79.85695 
L 271.353377 64.609782 
L 292.204714 53.461315 
L 313.056052 49.034718 
L 333.90739 54.199081 
L 354.758727 65.921366 
L 375.610065 78.709314 
L 396.461403 90.718508 
L 417.31274 104.162248 
L 438.164078 120.270143 
L 459.015416 143.017934 
L 479.866753 168.347907 
L 500.718091 188.062659 
L 521.569429 198.555334 
L 542.420766 203.391801 
" clip-path="url(#p5050d470bf)" style="fill: none; stroke: #000000; stroke-opacity: 0.15; stroke-width: 1.5; stroke-linecap: round"/>
   </g>
   <g id="line2d_70">
    <path d="M 62.84 167.528167 
L 83.691338 169.12666 
L 104.542675 169.782452 
L 125.394013 167.692115 
L 146.245351 165.068946 
L 167.096688 160.150505 
L 187.948026 149.24796 
L 208.799364 128.590506 
L 229.650701 102.07191 
L 250.502039 79.85695 
L 271.353377 64.609782 
L 292.204714 53.461315 
L 313.056052 49.034718 
L 333.90739 54.199081 
L 354.758727 65.921366 
L 375.610065 78.709314 
L 396.461403 90.718508 
L 417.31274 104.162248 
L 438.164078 120.270143 
L 459.015416 143.017934 
L 479.866753 168.347907 
L 500.718091 188.062659 
L 521.569429 198.555334 
L 542.420766 203.391801 
" clip-path="url(#p5050d470bf)" style="fill: none; stroke: #ff0000; stroke-opacity: 0.9; stroke-width: 1.5; stroke-linecap: round"/>
   </g>
   <g id="patch_3">
    <path d="M 62.84 226.801533 
L 62.84 12.96 
" style="fill: none; stroke: #000000; stroke-width: 1.5; stroke-linejoin: miter; stroke-linecap: square"/>
   </g>
   <g id="patch_4">
    <path d="M 62.84 226.801533 
L 542.420766 226.801533 
" style="fill: none; stroke: #000000; stroke-width: 1.5; stroke-linejoin: miter; stroke-linecap: square"/>
   </g>
  </g>
 </g>
 <defs>
  <clipPath id="p5050d470bf">
   <rect x="62.84" y="12.96" width="479.580766" height="213.841533"/>
  </clipPath>
 </defs>
</svg>
